ply
format ascii 1.0
comment VTK generated PLY File
obj_info vtkPolyData points and polygons: vtk4.0
element vertex 162
property float x
property float y
property float z
element face 80
property list uchar int vertex_indices
end_header
-0.00975 -0.000125 0 
-0.00950625 -0.000125 0 
-0.0092625 -0.000125 0 
-0.00901875 -0.000125 0 
-0.008775 -0.000125 0 
-0.00853125 -0.000125 0 
-0.0082875 -0.000125 0 
-0.00804375 -0.000125 0 
-0.0078 -0.000125 0 
-0.00755625 -0.000125 0 
-0.0073125 -0.000125 0 
-0.00706875 -0.000125 0 
-0.006825 -0.000125 0 
-0.00658125 -0.000125 0 
-0.0063375 -0.000125 0 
-0.00609375 -0.000125 0 
-0.00585 -0.000125 0 
-0.00560625 -0.000125 0 
-0.0053625 -0.000125 0 
-0.00511875 -0.000125 0 
-0.004875 -0.000125 0 
-0.00463125 -0.000125 0 
-0.0043875 -0.000125 0 
-0.00414375 -0.000125 0 
-0.0039 -0.000125 0 
-0.00365625 -0.000125 0 
-0.0034125 -0.000125 0 
-0.00316875 -0.000125 0 
-0.002925 -0.000125 0 
-0.00268125 -0.000125 0 
-0.0024375 -0.000125 0 
-0.00219375 -0.000125 0 
-0.00195 -0.000125 0 
-0.00170625 -0.000125 0 
-0.0014625 -0.000125 0 
-0.00121875 -0.000125 0 
-0.000975 -0.000125 0 
-0.00073125 -0.000125 0 
-0.0004875 -0.000125 0 
-0.00024375 -0.000125 0 
0 -0.000125 0 
0.00024375 -0.000125 0 
0.0004875 -0.000125 0 
0.00073125 -0.000125 0 
0.000975 -0.000125 0 
0.00121875 -0.000125 0 
0.0014625 -0.000125 0 
0.00170625 -0.000125 0 
0.00195 -0.000125 0 
0.00219375 -0.000125 0 
0.0024375 -0.000125 0 
0.00268125 -0.000125 0 
0.002925 -0.000125 0 
0.00316875 -0.000125 0 
0.0034125 -0.000125 0 
0.00365625 -0.000125 0 
0.0039 -0.000125 0 
0.00414375 -0.000125 0 
0.0043875 -0.000125 0 
0.00463125 -0.000125 0 
0.004875 -0.000125 0 
0.00511875 -0.000125 0 
0.0053625 -0.000125 0 
0.00560625 -0.000125 0 
0.00585 -0.000125 0 
0.00609375 -0.000125 0 
0.0063375 -0.000125 0 
0.00658125 -0.000125 0 
0.006825 -0.000125 0 
0.00706875 -0.000125 0 
0.0073125 -0.000125 0 
0.00755625 -0.000125 0 
0.0078 -0.000125 0 
0.00804375 -0.000125 0 
0.0082875 -0.000125 0 
0.00853125 -0.000125 0 
0.008775 -0.000125 0 
0.00901875 -0.000125 0 
0.0092625 -0.000125 0 
0.00950625 -0.000125 0 
0.00975 -0.000125 0 
-0.00975 0.000125 0 
-0.00950625 0.000125 0 
-0.0092625 0.000125 0 
-0.00901875 0.000125 0 
-0.008775 0.000125 0 
-0.00853125 0.000125 0 
-0.0082875 0.000125 0 
-0.00804375 0.000125 0 
-0.0078 0.000125 0 
-0.00755625 0.000125 0 
-0.0073125 0.000125 0 
-0.00706875 0.000125 0 
-0.006825 0.000125 0 
-0.00658125 0.000125 0 
-0.0063375 0.000125 0 
-0.00609375 0.000125 0 
-0.00585 0.000125 0 
-0.00560625 0.000125 0 
-0.0053625 0.000125 0 
-0.00511875 0.000125 0 
-0.004875 0.000125 0 
-0.00463125 0.000125 0 
-0.0043875 0.000125 0 
-0.00414375 0.000125 0 
-0.0039 0.000125 0 
-0.00365625 0.000125 0 
-0.0034125 0.000125 0 
-0.00316875 0.000125 0 
-0.002925 0.000125 0 
-0.00268125 0.000125 0 
-0.0024375 0.000125 0 
-0.00219375 0.000125 0 
-0.00195 0.000125 0 
-0.00170625 0.000125 0 
-0.0014625 0.000125 0 
-0.00121875 0.000125 0 
-0.000975 0.000125 0 
-0.00073125 0.000125 0 
-0.0004875 0.000125 0 
-0.00024375 0.000125 0 
0 0.000125 0 
0.00024375 0.000125 0 
0.0004875 0.000125 0 
0.00073125 0.000125 0 
0.000975 0.000125 0 
0.00121875 0.000125 0 
0.0014625 0.000125 0 
0.00170625 0.000125 0 
0.00195 0.000125 0 
0.00219375 0.000125 0 
0.0024375 0.000125 0 
0.00268125 0.000125 0 
0.002925 0.000125 0 
0.00316875 0.000125 0 
0.0034125 0.000125 0 
0.00365625 0.000125 0 
0.0039 0.000125 0 
0.00414375 0.000125 0 
0.0043875 0.000125 0 
0.00463125 0.000125 0 
0.004875 0.000125 0 
0.00511875 0.000125 0 
0.0053625 0.000125 0 
0.00560625 0.000125 0 
0.00585 0.000125 0 
0.00609375 0.000125 0 
0.0063375 0.000125 0 
0.00658125 0.000125 0 
0.006825 0.000125 0 
0.00706875 0.000125 0 
0.0073125 0.000125 0 
0.00755625 0.000125 0 
0.0078 0.000125 0 
0.00804375 0.000125 0 
0.0082875 0.000125 0 
0.00853125 0.000125 0 
0.008775 0.000125 0 
0.00901875 0.000125 0 
0.0092625 0.000125 0 
0.00950625 0.000125 0 
0.00975 0.000125 0 
4 0 81 82 1 
4 1 82 83 2 
4 2 83 84 3 
4 3 84 85 4 
4 4 85 86 5 
4 5 86 87 6 
4 6 87 88 7 
4 7 88 89 8 
4 8 89 90 9 
4 9 90 91 10 
4 10 91 92 11 
4 11 92 93 12 
4 12 93 94 13 
4 13 94 95 14 
4 14 95 96 15 
4 15 96 97 16 
4 16 97 98 17 
4 17 98 99 18 
4 18 99 100 19 
4 19 100 101 20 
4 20 101 102 21 
4 21 102 103 22 
4 22 103 104 23 
4 23 104 105 24 
4 24 105 106 25 
4 25 106 107 26 
4 26 107 108 27 
4 27 108 109 28 
4 28 109 110 29 
4 29 110 111 30 
4 30 111 112 31 
4 31 112 113 32 
4 32 113 114 33 
4 33 114 115 34 
4 34 115 116 35 
4 35 116 117 36 
4 36 117 118 37 
4 37 118 119 38 
4 38 119 120 39 
4 39 120 121 40 
4 40 121 122 41 
4 41 122 123 42 
4 42 123 124 43 
4 43 124 125 44 
4 44 125 126 45 
4 45 126 127 46 
4 46 127 128 47 
4 47 128 129 48 
4 48 129 130 49 
4 49 130 131 50 
4 50 131 132 51 
4 51 132 133 52 
4 52 133 134 53 
4 53 134 135 54 
4 54 135 136 55 
4 55 136 137 56 
4 56 137 138 57 
4 57 138 139 58 
4 58 139 140 59 
4 59 140 141 60 
4 60 141 142 61 
4 61 142 143 62 
4 62 143 144 63 
4 63 144 145 64 
4 64 145 146 65 
4 65 146 147 66 
4 66 147 148 67 
4 67 148 149 68 
4 68 149 150 69 
4 69 150 151 70 
4 70 151 152 71 
4 71 152 153 72 
4 72 153 154 73 
4 73 154 155 74 
4 74 155 156 75 
4 75 156 157 76 
4 76 157 158 77 
4 77 158 159 78 
4 78 159 160 79 
4 79 160 161 80 
