ply
format ascii 1.0
comment VTK generated PLY File
obj_info vtkPolyData points and polygons: vtk4.0
element vertex 162
property float x
property float y
property float z
element face 80
property list uchar int vertex_indices
end_header
0.00975 -0.000125 0 
0.00975 0.000125 0 
0.00975 -0.000125 0.00025 
0.00975 0.000125 0.00025 
0.00975 -0.000125 0.0005 
0.00975 0.000125 0.0005 
0.00975 -0.000125 0.00075 
0.00975 0.000125 0.00075 
0.00975 -0.000125 0.001 
0.00975 0.000125 0.001 
0.00975 -0.000125 0.00125 
0.00975 0.000125 0.00125 
0.00975 -0.000125 0.0015 
0.00975 0.000125 0.0015 
0.00975 -0.000125 0.00175 
0.00975 0.000125 0.00175 
0.00975 -0.000125 0.002 
0.00975 0.000125 0.002 
0.00975 -0.000125 0.00225 
0.00975 0.000125 0.00225 
0.00975 -0.000125 0.0025 
0.00975 0.000125 0.0025 
0.00975 -0.000125 0.00275 
0.00975 0.000125 0.00275 
0.00975 -0.000125 0.003 
0.00975 0.000125 0.003 
0.00975 -0.000125 0.00325 
0.00975 0.000125 0.00325 
0.00975 -0.000125 0.0035 
0.00975 0.000125 0.0035 
0.00975 -0.000125 0.00375 
0.00975 0.000125 0.00375 
0.00975 -0.000125 0.004 
0.00975 0.000125 0.004 
0.00975 -0.000125 0.00425 
0.00975 0.000125 0.00425 
0.00975 -0.000125 0.0045 
0.00975 0.000125 0.0045 
0.00975 -0.000125 0.00475 
0.00975 0.000125 0.00475 
0.00975 -0.000125 0.005 
0.00975 0.000125 0.005 
0.00975 -0.000125 0.00525 
0.00975 0.000125 0.00525 
0.00975 -0.000125 0.0055 
0.00975 0.000125 0.0055 
0.00975 -0.000125 0.00575 
0.00975 0.000125 0.00575 
0.00975 -0.000125 0.006 
0.00975 0.000125 0.006 
0.00975 -0.000125 0.00625 
0.00975 0.000125 0.00625 
0.00975 -0.000125 0.0065 
0.00975 0.000125 0.0065 
0.00975 -0.000125 0.00675 
0.00975 0.000125 0.00675 
0.00975 -0.000125 0.007 
0.00975 0.000125 0.007 
0.00975 -0.000125 0.00725 
0.00975 0.000125 0.00725 
0.00975 -0.000125 0.0075 
0.00975 0.000125 0.0075 
0.00975 -0.000125 0.00775 
0.00975 0.000125 0.00775 
0.00975 -0.000125 0.008 
0.00975 0.000125 0.008 
0.00975 -0.000125 0.00825 
0.00975 0.000125 0.00825 
0.00975 -0.000125 0.0085 
0.00975 0.000125 0.0085 
0.00975 -0.000125 0.00875 
0.00975 0.000125 0.00875 
0.00975 -0.000125 0.009 
0.00975 0.000125 0.009 
0.00975 -0.000125 0.00925 
0.00975 0.000125 0.00925 
0.00975 -0.000125 0.0095 
0.00975 0.000125 0.0095 
0.00975 -0.000125 0.00975 
0.00975 0.000125 0.00975 
0.00975 -0.000125 0.01 
0.00975 0.000125 0.01 
0.00975 -0.000125 0.01025 
0.00975 0.000125 0.01025 
0.00975 -0.000125 0.0105 
0.00975 0.000125 0.0105 
0.00975 -0.000125 0.01075 
0.00975 0.000125 0.01075 
0.00975 -0.000125 0.011 
0.00975 0.000125 0.011 
0.00975 -0.000125 0.01125 
0.00975 0.000125 0.01125 
0.00975 -0.000125 0.0115 
0.00975 0.000125 0.0115 
0.00975 -0.000125 0.01175 
0.00975 0.000125 0.01175 
0.00975 -0.000125 0.012 
0.00975 0.000125 0.012 
0.00975 -0.000125 0.01225 
0.00975 0.000125 0.01225 
0.00975 -0.000125 0.0125 
0.00975 0.000125 0.0125 
0.00975 -0.000125 0.01275 
0.00975 0.000125 0.01275 
0.00975 -0.000125 0.013 
0.00975 0.000125 0.013 
0.00975 -0.000125 0.01325 
0.00975 0.000125 0.01325 
0.00975 -0.000125 0.0135 
0.00975 0.000125 0.0135 
0.00975 -0.000125 0.01375 
0.00975 0.000125 0.01375 
0.00975 -0.000125 0.014 
0.00975 0.000125 0.014 
0.00975 -0.000125 0.01425 
0.00975 0.000125 0.01425 
0.00975 -0.000125 0.0145 
0.00975 0.000125 0.0145 
0.00975 -0.000125 0.01475 
0.00975 0.000125 0.01475 
0.00975 -0.000125 0.015 
0.00975 0.000125 0.015 
0.00975 -0.000125 0.01525 
0.00975 0.000125 0.01525 
0.00975 -0.000125 0.0155 
0.00975 0.000125 0.0155 
0.00975 -0.000125 0.01575 
0.00975 0.000125 0.01575 
0.00975 -0.000125 0.016 
0.00975 0.000125 0.016 
0.00975 -0.000125 0.01625 
0.00975 0.000125 0.01625 
0.00975 -0.000125 0.0165 
0.00975 0.000125 0.0165 
0.00975 -0.000125 0.01675 
0.00975 0.000125 0.01675 
0.00975 -0.000125 0.017 
0.00975 0.000125 0.017 
0.00975 -0.000125 0.01725 
0.00975 0.000125 0.01725 
0.00975 -0.000125 0.0175 
0.00975 0.000125 0.0175 
0.00975 -0.000125 0.01775 
0.00975 0.000125 0.01775 
0.00975 -0.000125 0.018 
0.00975 0.000125 0.018 
0.00975 -0.000125 0.01825 
0.00975 0.000125 0.01825 
0.00975 -0.000125 0.0185 
0.00975 0.000125 0.0185 
0.00975 -0.000125 0.01875 
0.00975 0.000125 0.01875 
0.00975 -0.000125 0.019 
0.00975 0.000125 0.019 
0.00975 -0.000125 0.01925 
0.00975 0.000125 0.01925 
0.00975 -0.000125 0.0195 
0.00975 0.000125 0.0195 
0.00975 -0.000125 0.01975 
0.00975 0.000125 0.01975 
0.00975 -0.000125 0.02 
0.00975 0.000125 0.02 
4 0 1 3 2 
4 2 3 5 4 
4 4 5 7 6 
4 6 7 9 8 
4 8 9 11 10 
4 10 11 13 12 
4 12 13 15 14 
4 14 15 17 16 
4 16 17 19 18 
4 18 19 21 20 
4 20 21 23 22 
4 22 23 25 24 
4 24 25 27 26 
4 26 27 29 28 
4 28 29 31 30 
4 30 31 33 32 
4 32 33 35 34 
4 34 35 37 36 
4 36 37 39 38 
4 38 39 41 40 
4 40 41 43 42 
4 42 43 45 44 
4 44 45 47 46 
4 46 47 49 48 
4 48 49 51 50 
4 50 51 53 52 
4 52 53 55 54 
4 54 55 57 56 
4 56 57 59 58 
4 58 59 61 60 
4 60 61 63 62 
4 62 63 65 64 
4 64 65 67 66 
4 66 67 69 68 
4 68 69 71 70 
4 70 71 73 72 
4 72 73 75 74 
4 74 75 77 76 
4 76 77 79 78 
4 78 79 81 80 
4 80 81 83 82 
4 82 83 85 84 
4 84 85 87 86 
4 86 87 89 88 
4 88 89 91 90 
4 90 91 93 92 
4 92 93 95 94 
4 94 95 97 96 
4 96 97 99 98 
4 98 99 101 100 
4 100 101 103 102 
4 102 103 105 104 
4 104 105 107 106 
4 106 107 109 108 
4 108 109 111 110 
4 110 111 113 112 
4 112 113 115 114 
4 114 115 117 116 
4 116 117 119 118 
4 118 119 121 120 
4 120 121 123 122 
4 122 123 125 124 
4 124 125 127 126 
4 126 127 129 128 
4 128 129 131 130 
4 130 131 133 132 
4 132 133 135 134 
4 134 135 137 136 
4 136 137 139 138 
4 138 139 141 140 
4 140 141 143 142 
4 142 143 145 144 
4 144 145 147 146 
4 146 147 149 148 
4 148 149 151 150 
4 150 151 153 152 
4 152 153 155 154 
4 154 155 157 156 
4 156 157 159 158 
4 158 159 161 160 
