ply
format ascii 1.0
comment VTK generated PLY File
obj_info vtkPolyData points and polygons: vtk4.0
element vertex 162
property float x
property float y
property float z
element face 80
property list uchar int vertex_indices
end_header
-0.00975 -0.000125 0 
-0.00975 0.000125 0 
-0.00975 -0.000125 0.00025 
-0.00975 0.000125 0.00025 
-0.00975 -0.000125 0.0005 
-0.00975 0.000125 0.0005 
-0.00975 -0.000125 0.00075 
-0.00975 0.000125 0.00075 
-0.00975 -0.000125 0.001 
-0.00975 0.000125 0.001 
-0.00975 -0.000125 0.00125 
-0.00975 0.000125 0.00125 
-0.00975 -0.000125 0.0015 
-0.00975 0.000125 0.0015 
-0.00975 -0.000125 0.00175 
-0.00975 0.000125 0.00175 
-0.00975 -0.000125 0.002 
-0.00975 0.000125 0.002 
-0.00975 -0.000125 0.00225 
-0.00975 0.000125 0.00225 
-0.00975 -0.000125 0.0025 
-0.00975 0.000125 0.0025 
-0.00975 -0.000125 0.00275 
-0.00975 0.000125 0.00275 
-0.00975 -0.000125 0.003 
-0.00975 0.000125 0.003 
-0.00975 -0.000125 0.00325 
-0.00975 0.000125 0.00325 
-0.00975 -0.000125 0.0035 
-0.00975 0.000125 0.0035 
-0.00975 -0.000125 0.00375 
-0.00975 0.000125 0.00375 
-0.00975 -0.000125 0.004 
-0.00975 0.000125 0.004 
-0.00975 -0.000125 0.00425 
-0.00975 0.000125 0.00425 
-0.00975 -0.000125 0.0045 
-0.00975 0.000125 0.0045 
-0.00975 -0.000125 0.00475 
-0.00975 0.000125 0.00475 
-0.00975 -0.000125 0.005 
-0.00975 0.000125 0.005 
-0.00975 -0.000125 0.00525 
-0.00975 0.000125 0.00525 
-0.00975 -0.000125 0.0055 
-0.00975 0.000125 0.0055 
-0.00975 -0.000125 0.00575 
-0.00975 0.000125 0.00575 
-0.00975 -0.000125 0.006 
-0.00975 0.000125 0.006 
-0.00975 -0.000125 0.00625 
-0.00975 0.000125 0.00625 
-0.00975 -0.000125 0.0065 
-0.00975 0.000125 0.0065 
-0.00975 -0.000125 0.00675 
-0.00975 0.000125 0.00675 
-0.00975 -0.000125 0.007 
-0.00975 0.000125 0.007 
-0.00975 -0.000125 0.00725 
-0.00975 0.000125 0.00725 
-0.00975 -0.000125 0.0075 
-0.00975 0.000125 0.0075 
-0.00975 -0.000125 0.00775 
-0.00975 0.000125 0.00775 
-0.00975 -0.000125 0.008 
-0.00975 0.000125 0.008 
-0.00975 -0.000125 0.00825 
-0.00975 0.000125 0.00825 
-0.00975 -0.000125 0.0085 
-0.00975 0.000125 0.0085 
-0.00975 -0.000125 0.00875 
-0.00975 0.000125 0.00875 
-0.00975 -0.000125 0.009 
-0.00975 0.000125 0.009 
-0.00975 -0.000125 0.00925 
-0.00975 0.000125 0.00925 
-0.00975 -0.000125 0.0095 
-0.00975 0.000125 0.0095 
-0.00975 -0.000125 0.00975 
-0.00975 0.000125 0.00975 
-0.00975 -0.000125 0.01 
-0.00975 0.000125 0.01 
-0.00975 -0.000125 0.01025 
-0.00975 0.000125 0.01025 
-0.00975 -0.000125 0.0105 
-0.00975 0.000125 0.0105 
-0.00975 -0.000125 0.01075 
-0.00975 0.000125 0.01075 
-0.00975 -0.000125 0.011 
-0.00975 0.000125 0.011 
-0.00975 -0.000125 0.01125 
-0.00975 0.000125 0.01125 
-0.00975 -0.000125 0.0115 
-0.00975 0.000125 0.0115 
-0.00975 -0.000125 0.01175 
-0.00975 0.000125 0.01175 
-0.00975 -0.000125 0.012 
-0.00975 0.000125 0.012 
-0.00975 -0.000125 0.01225 
-0.00975 0.000125 0.01225 
-0.00975 -0.000125 0.0125 
-0.00975 0.000125 0.0125 
-0.00975 -0.000125 0.01275 
-0.00975 0.000125 0.01275 
-0.00975 -0.000125 0.013 
-0.00975 0.000125 0.013 
-0.00975 -0.000125 0.01325 
-0.00975 0.000125 0.01325 
-0.00975 -0.000125 0.0135 
-0.00975 0.000125 0.0135 
-0.00975 -0.000125 0.01375 
-0.00975 0.000125 0.01375 
-0.00975 -0.000125 0.014 
-0.00975 0.000125 0.014 
-0.00975 -0.000125 0.01425 
-0.00975 0.000125 0.01425 
-0.00975 -0.000125 0.0145 
-0.00975 0.000125 0.0145 
-0.00975 -0.000125 0.01475 
-0.00975 0.000125 0.01475 
-0.00975 -0.000125 0.015 
-0.00975 0.000125 0.015 
-0.00975 -0.000125 0.01525 
-0.00975 0.000125 0.01525 
-0.00975 -0.000125 0.0155 
-0.00975 0.000125 0.0155 
-0.00975 -0.000125 0.01575 
-0.00975 0.000125 0.01575 
-0.00975 -0.000125 0.016 
-0.00975 0.000125 0.016 
-0.00975 -0.000125 0.01625 
-0.00975 0.000125 0.01625 
-0.00975 -0.000125 0.0165 
-0.00975 0.000125 0.0165 
-0.00975 -0.000125 0.01675 
-0.00975 0.000125 0.01675 
-0.00975 -0.000125 0.017 
-0.00975 0.000125 0.017 
-0.00975 -0.000125 0.01725 
-0.00975 0.000125 0.01725 
-0.00975 -0.000125 0.0175 
-0.00975 0.000125 0.0175 
-0.00975 -0.000125 0.01775 
-0.00975 0.000125 0.01775 
-0.00975 -0.000125 0.018 
-0.00975 0.000125 0.018 
-0.00975 -0.000125 0.01825 
-0.00975 0.000125 0.01825 
-0.00975 -0.000125 0.0185 
-0.00975 0.000125 0.0185 
-0.00975 -0.000125 0.01875 
-0.00975 0.000125 0.01875 
-0.00975 -0.000125 0.019 
-0.00975 0.000125 0.019 
-0.00975 -0.000125 0.01925 
-0.00975 0.000125 0.01925 
-0.00975 -0.000125 0.0195 
-0.00975 0.000125 0.0195 
-0.00975 -0.000125 0.01975 
-0.00975 0.000125 0.01975 
-0.00975 -0.000125 0.02 
-0.00975 0.000125 0.02 
4 0 2 3 1 
4 2 4 5 3 
4 4 6 7 5 
4 6 8 9 7 
4 8 10 11 9 
4 10 12 13 11 
4 12 14 15 13 
4 14 16 17 15 
4 16 18 19 17 
4 18 20 21 19 
4 20 22 23 21 
4 22 24 25 23 
4 24 26 27 25 
4 26 28 29 27 
4 28 30 31 29 
4 30 32 33 31 
4 32 34 35 33 
4 34 36 37 35 
4 36 38 39 37 
4 38 40 41 39 
4 40 42 43 41 
4 42 44 45 43 
4 44 46 47 45 
4 46 48 49 47 
4 48 50 51 49 
4 50 52 53 51 
4 52 54 55 53 
4 54 56 57 55 
4 56 58 59 57 
4 58 60 61 59 
4 60 62 63 61 
4 62 64 65 63 
4 64 66 67 65 
4 66 68 69 67 
4 68 70 71 69 
4 70 72 73 71 
4 72 74 75 73 
4 74 76 77 75 
4 76 78 79 77 
4 78 80 81 79 
4 80 82 83 81 
4 82 84 85 83 
4 84 86 87 85 
4 86 88 89 87 
4 88 90 91 89 
4 90 92 93 91 
4 92 94 95 93 
4 94 96 97 95 
4 96 98 99 97 
4 98 100 101 99 
4 100 102 103 101 
4 102 104 105 103 
4 104 106 107 105 
4 106 108 109 107 
4 108 110 111 109 
4 110 112 113 111 
4 112 114 115 113 
4 114 116 117 115 
4 116 118 119 117 
4 118 120 121 119 
4 120 122 123 121 
4 122 124 125 123 
4 124 126 127 125 
4 126 128 129 127 
4 128 130 131 129 
4 130 132 133 131 
4 132 134 135 133 
4 134 136 137 135 
4 136 138 139 137 
4 138 140 141 139 
4 140 142 143 141 
4 142 144 145 143 
4 144 146 147 145 
4 146 148 149 147 
4 148 150 151 149 
4 150 152 153 151 
4 152 154 155 153 
4 154 156 157 155 
4 156 158 159 157 
4 158 160 161 159 
