ply
format ascii 1.0
comment VTK generated PLY File
obj_info vtkPolyData points and polygons: vtk4.0
element vertex 462
property float x
property float y
property float z
element face 230
property list uchar int vertex_indices
end_header
1.735 -0.0025 0 
1.735 0.0025 0 
1.735 -0.0025 0.005 
1.735 0.0025 0.005 
1.735 -0.0025 0.01 
1.735 0.0025 0.01 
1.735 -0.0025 0.015 
1.735 0.0025 0.015 
1.735 -0.0025 0.02 
1.735 0.0025 0.02 
1.735 -0.0025 0.025 
1.735 0.0025 0.025 
1.735 -0.0025 0.03 
1.735 0.0025 0.03 
1.735 -0.0025 0.035 
1.735 0.0025 0.035 
1.735 -0.0025 0.04 
1.735 0.0025 0.04 
1.735 -0.0025 0.045 
1.735 0.0025 0.045 
1.735 -0.0025 0.05 
1.735 0.0025 0.05 
1.735 -0.0025 0.055 
1.735 0.0025 0.055 
1.735 -0.0025 0.06 
1.735 0.0025 0.06 
1.735 -0.0025 0.065 
1.735 0.0025 0.065 
1.735 -0.0025 0.07 
1.735 0.0025 0.07 
1.735 -0.0025 0.075 
1.735 0.0025 0.075 
1.735 -0.0025 0.08 
1.735 0.0025 0.08 
1.735 -0.0025 0.085 
1.735 0.0025 0.085 
1.735 -0.0025 0.09 
1.735 0.0025 0.09 
1.735 -0.0025 0.095 
1.735 0.0025 0.095 
1.735 -0.0025 0.1 
1.735 0.0025 0.1 
1.735 -0.0025 0.105 
1.735 0.0025 0.105 
1.735 -0.0025 0.11 
1.735 0.0025 0.11 
1.735 -0.0025 0.115 
1.735 0.0025 0.115 
1.735 -0.0025 0.12 
1.735 0.0025 0.12 
1.735 -0.0025 0.125 
1.735 0.0025 0.125 
1.735 -0.0025 0.13 
1.735 0.0025 0.13 
1.735 -0.0025 0.135 
1.735 0.0025 0.135 
1.735 -0.0025 0.14 
1.735 0.0025 0.14 
1.735 -0.0025 0.145 
1.735 0.0025 0.145 
1.735 -0.0025 0.15 
1.735 0.0025 0.15 
1.735 -0.0025 0.155 
1.735 0.0025 0.155 
1.735 -0.0025 0.16 
1.735 0.0025 0.16 
1.735 -0.0025 0.165 
1.735 0.0025 0.165 
1.735 -0.0025 0.17 
1.735 0.0025 0.17 
1.735 -0.0025 0.175 
1.735 0.0025 0.175 
1.735 -0.0025 0.18 
1.735 0.0025 0.18 
1.735 -0.0025 0.185 
1.735 0.0025 0.185 
1.735 -0.0025 0.19 
1.735 0.0025 0.19 
1.735 -0.0025 0.195 
1.735 0.0025 0.195 
1.735 -0.0025 0.2 
1.735 0.0025 0.2 
1.735 -0.0025 0.205 
1.735 0.0025 0.205 
1.735 -0.0025 0.21 
1.735 0.0025 0.21 
1.735 -0.0025 0.215 
1.735 0.0025 0.215 
1.735 -0.0025 0.22 
1.735 0.0025 0.22 
1.735 -0.0025 0.225 
1.735 0.0025 0.225 
1.735 -0.0025 0.23 
1.735 0.0025 0.23 
1.735 -0.0025 0.235 
1.735 0.0025 0.235 
1.735 -0.0025 0.24 
1.735 0.0025 0.24 
1.735 -0.0025 0.245 
1.735 0.0025 0.245 
1.735 -0.0025 0.25 
1.735 0.0025 0.25 
1.735 -0.0025 0.255 
1.735 0.0025 0.255 
1.735 -0.0025 0.26 
1.735 0.0025 0.26 
1.735 -0.0025 0.265 
1.735 0.0025 0.265 
1.735 -0.0025 0.27 
1.735 0.0025 0.27 
1.735 -0.0025 0.275 
1.735 0.0025 0.275 
1.735 -0.0025 0.28 
1.735 0.0025 0.28 
1.735 -0.0025 0.285 
1.735 0.0025 0.285 
1.735 -0.0025 0.29 
1.735 0.0025 0.29 
1.735 -0.0025 0.295 
1.735 0.0025 0.295 
1.735 -0.0025 0.3 
1.735 0.0025 0.3 
1.735 -0.0025 0.305 
1.735 0.0025 0.305 
1.735 -0.0025 0.31 
1.735 0.0025 0.31 
1.735 -0.0025 0.315 
1.735 0.0025 0.315 
1.735 -0.0025 0.32 
1.735 0.0025 0.32 
1.735 -0.0025 0.325 
1.735 0.0025 0.325 
1.735 -0.0025 0.33 
1.735 0.0025 0.33 
1.735 -0.0025 0.335 
1.735 0.0025 0.335 
1.735 -0.0025 0.34 
1.735 0.0025 0.34 
1.735 -0.0025 0.345 
1.735 0.0025 0.345 
1.735 -0.0025 0.35 
1.735 0.0025 0.35 
1.735 -0.0025 0.355 
1.735 0.0025 0.355 
1.735 -0.0025 0.36 
1.735 0.0025 0.36 
1.735 -0.0025 0.365 
1.735 0.0025 0.365 
1.735 -0.0025 0.37 
1.735 0.0025 0.37 
1.735 -0.0025 0.375 
1.735 0.0025 0.375 
1.735 -0.0025 0.38 
1.735 0.0025 0.38 
1.735 -0.0025 0.385 
1.735 0.0025 0.385 
1.735 -0.0025 0.39 
1.735 0.0025 0.39 
1.735 -0.0025 0.395 
1.735 0.0025 0.395 
1.735 -0.0025 0.4 
1.735 0.0025 0.4 
1.735 -0.0025 0.405 
1.735 0.0025 0.405 
1.735 -0.0025 0.41 
1.735 0.0025 0.41 
1.735 -0.0025 0.415 
1.735 0.0025 0.415 
1.735 -0.0025 0.42 
1.735 0.0025 0.42 
1.735 -0.0025 0.425 
1.735 0.0025 0.425 
1.735 -0.0025 0.43 
1.735 0.0025 0.43 
1.735 -0.0025 0.435 
1.735 0.0025 0.435 
1.735 -0.0025 0.44 
1.735 0.0025 0.44 
1.735 -0.0025 0.445 
1.735 0.0025 0.445 
1.735 -0.0025 0.45 
1.735 0.0025 0.45 
1.735 -0.0025 0.455 
1.735 0.0025 0.455 
1.735 -0.0025 0.46 
1.735 0.0025 0.46 
1.735 -0.0025 0.465 
1.735 0.0025 0.465 
1.735 -0.0025 0.47 
1.735 0.0025 0.47 
1.735 -0.0025 0.475 
1.735 0.0025 0.475 
1.735 -0.0025 0.48 
1.735 0.0025 0.48 
1.735 -0.0025 0.485 
1.735 0.0025 0.485 
1.735 -0.0025 0.49 
1.735 0.0025 0.49 
1.735 -0.0025 0.495 
1.735 0.0025 0.495 
1.735 -0.0025 0.5 
1.735 0.0025 0.5 
1.735 -0.0025 0.505 
1.735 0.0025 0.505 
1.735 -0.0025 0.51 
1.735 0.0025 0.51 
1.735 -0.0025 0.515 
1.735 0.0025 0.515 
1.735 -0.0025 0.52 
1.735 0.0025 0.52 
1.735 -0.0025 0.525 
1.735 0.0025 0.525 
1.735 -0.0025 0.53 
1.735 0.0025 0.53 
1.735 -0.0025 0.535 
1.735 0.0025 0.535 
1.735 -0.0025 0.54 
1.735 0.0025 0.54 
1.735 -0.0025 0.545 
1.735 0.0025 0.545 
1.735 -0.0025 0.55 
1.735 0.0025 0.55 
1.735 -0.0025 0.555 
1.735 0.0025 0.555 
1.735 -0.0025 0.56 
1.735 0.0025 0.56 
1.735 -0.0025 0.565 
1.735 0.0025 0.565 
1.735 -0.0025 0.57 
1.735 0.0025 0.57 
1.735 -0.0025 0.575 
1.735 0.0025 0.575 
1.735 -0.0025 0.58 
1.735 0.0025 0.58 
1.735 -0.0025 0.585 
1.735 0.0025 0.585 
1.735 -0.0025 0.59 
1.735 0.0025 0.59 
1.735 -0.0025 0.595 
1.735 0.0025 0.595 
1.735 -0.0025 0.6 
1.735 0.0025 0.6 
1.735 -0.0025 0.605 
1.735 0.0025 0.605 
1.735 -0.0025 0.61 
1.735 0.0025 0.61 
1.735 -0.0025 0.615 
1.735 0.0025 0.615 
1.735 -0.0025 0.62 
1.735 0.0025 0.62 
1.735 -0.0025 0.625 
1.735 0.0025 0.625 
1.735 -0.0025 0.63 
1.735 0.0025 0.63 
1.735 -0.0025 0.635 
1.735 0.0025 0.635 
1.735 -0.0025 0.64 
1.735 0.0025 0.64 
1.735 -0.0025 0.645 
1.735 0.0025 0.645 
1.735 -0.0025 0.65 
1.735 0.0025 0.65 
1.735 -0.0025 0.655 
1.735 0.0025 0.655 
1.735 -0.0025 0.66 
1.735 0.0025 0.66 
1.735 -0.0025 0.665 
1.735 0.0025 0.665 
1.735 -0.0025 0.67 
1.735 0.0025 0.67 
1.735 -0.0025 0.675 
1.735 0.0025 0.675 
1.735 -0.0025 0.68 
1.735 0.0025 0.68 
1.735 -0.0025 0.685 
1.735 0.0025 0.685 
1.735 -0.0025 0.69 
1.735 0.0025 0.69 
1.735 -0.0025 0.695 
1.735 0.0025 0.695 
1.735 -0.0025 0.7 
1.735 0.0025 0.7 
1.735 -0.0025 0.705 
1.735 0.0025 0.705 
1.735 -0.0025 0.71 
1.735 0.0025 0.71 
1.735 -0.0025 0.715 
1.735 0.0025 0.715 
1.735 -0.0025 0.72 
1.735 0.0025 0.72 
1.735 -0.0025 0.725 
1.735 0.0025 0.725 
1.735 -0.0025 0.73 
1.735 0.0025 0.73 
1.735 -0.0025 0.735 
1.735 0.0025 0.735 
1.735 -0.0025 0.74 
1.735 0.0025 0.74 
1.735 -0.0025 0.745 
1.735 0.0025 0.745 
1.735 -0.0025 0.75 
1.735 0.0025 0.75 
1.735 -0.0025 0.755 
1.735 0.0025 0.755 
1.735 -0.0025 0.76 
1.735 0.0025 0.76 
1.735 -0.0025 0.765 
1.735 0.0025 0.765 
1.735 -0.0025 0.77 
1.735 0.0025 0.77 
1.735 -0.0025 0.775 
1.735 0.0025 0.775 
1.735 -0.0025 0.78 
1.735 0.0025 0.78 
1.735 -0.0025 0.785 
1.735 0.0025 0.785 
1.735 -0.0025 0.79 
1.735 0.0025 0.79 
1.735 -0.0025 0.795 
1.735 0.0025 0.795 
1.735 -0.0025 0.8 
1.735 0.0025 0.8 
1.735 -0.0025 0.805 
1.735 0.0025 0.805 
1.735 -0.0025 0.81 
1.735 0.0025 0.81 
1.735 -0.0025 0.815 
1.735 0.0025 0.815 
1.735 -0.0025 0.82 
1.735 0.0025 0.82 
1.735 -0.0025 0.825 
1.735 0.0025 0.825 
1.735 -0.0025 0.83 
1.735 0.0025 0.83 
1.735 -0.0025 0.835 
1.735 0.0025 0.835 
1.735 -0.0025 0.84 
1.735 0.0025 0.84 
1.735 -0.0025 0.845 
1.735 0.0025 0.845 
1.735 -0.0025 0.85 
1.735 0.0025 0.85 
1.735 -0.0025 0.855 
1.735 0.0025 0.855 
1.735 -0.0025 0.86 
1.735 0.0025 0.86 
1.735 -0.0025 0.865 
1.735 0.0025 0.865 
1.735 -0.0025 0.87 
1.735 0.0025 0.87 
1.735 -0.0025 0.875 
1.735 0.0025 0.875 
1.735 -0.0025 0.88 
1.735 0.0025 0.88 
1.735 -0.0025 0.885 
1.735 0.0025 0.885 
1.735 -0.0025 0.89 
1.735 0.0025 0.89 
1.735 -0.0025 0.895 
1.735 0.0025 0.895 
1.735 -0.0025 0.9 
1.735 0.0025 0.9 
1.735 -0.0025 0.905 
1.735 0.0025 0.905 
1.735 -0.0025 0.91 
1.735 0.0025 0.91 
1.735 -0.0025 0.915 
1.735 0.0025 0.915 
1.735 -0.0025 0.92 
1.735 0.0025 0.92 
1.735 -0.0025 0.925 
1.735 0.0025 0.925 
1.735 -0.0025 0.93 
1.735 0.0025 0.93 
1.735 -0.0025 0.935 
1.735 0.0025 0.935 
1.735 -0.0025 0.94 
1.735 0.0025 0.94 
1.735 -0.0025 0.945 
1.735 0.0025 0.945 
1.735 -0.0025 0.95 
1.735 0.0025 0.95 
1.735 -0.0025 0.955 
1.735 0.0025 0.955 
1.735 -0.0025 0.96 
1.735 0.0025 0.96 
1.735 -0.0025 0.965 
1.735 0.0025 0.965 
1.735 -0.0025 0.97 
1.735 0.0025 0.97 
1.735 -0.0025 0.975 
1.735 0.0025 0.975 
1.735 -0.0025 0.98 
1.735 0.0025 0.98 
1.735 -0.0025 0.985 
1.735 0.0025 0.985 
1.735 -0.0025 0.99 
1.735 0.0025 0.99 
1.735 -0.0025 0.995 
1.735 0.0025 0.995 
1.735 -0.0025 1 
1.735 0.0025 1 
1.735 -0.0025 1.005 
1.735 0.0025 1.005 
1.735 -0.0025 1.01 
1.735 0.0025 1.01 
1.735 -0.0025 1.015 
1.735 0.0025 1.015 
1.735 -0.0025 1.02 
1.735 0.0025 1.02 
1.735 -0.0025 1.025 
1.735 0.0025 1.025 
1.735 -0.0025 1.03 
1.735 0.0025 1.03 
1.735 -0.0025 1.035 
1.735 0.0025 1.035 
1.735 -0.0025 1.04 
1.735 0.0025 1.04 
1.735 -0.0025 1.045 
1.735 0.0025 1.045 
1.735 -0.0025 1.05 
1.735 0.0025 1.05 
1.735 -0.0025 1.055 
1.735 0.0025 1.055 
1.735 -0.0025 1.06 
1.735 0.0025 1.06 
1.735 -0.0025 1.065 
1.735 0.0025 1.065 
1.735 -0.0025 1.07 
1.735 0.0025 1.07 
1.735 -0.0025 1.075 
1.735 0.0025 1.075 
1.735 -0.0025 1.08 
1.735 0.0025 1.08 
1.735 -0.0025 1.085 
1.735 0.0025 1.085 
1.735 -0.0025 1.09 
1.735 0.0025 1.09 
1.735 -0.0025 1.095 
1.735 0.0025 1.095 
1.735 -0.0025 1.1 
1.735 0.0025 1.1 
1.735 -0.0025 1.105 
1.735 0.0025 1.105 
1.735 -0.0025 1.11 
1.735 0.0025 1.11 
1.735 -0.0025 1.115 
1.735 0.0025 1.115 
1.735 -0.0025 1.12 
1.735 0.0025 1.12 
1.735 -0.0025 1.125 
1.735 0.0025 1.125 
1.735 -0.0025 1.13 
1.735 0.0025 1.13 
1.735 -0.0025 1.135 
1.735 0.0025 1.135 
1.735 -0.0025 1.14 
1.735 0.0025 1.14 
1.735 -0.0025 1.145 
1.735 0.0025 1.145 
1.735 -0.0025 1.15 
1.735 0.0025 1.15 
4 0 1 3 2 
4 2 3 5 4 
4 4 5 7 6 
4 6 7 9 8 
4 8 9 11 10 
4 10 11 13 12 
4 12 13 15 14 
4 14 15 17 16 
4 16 17 19 18 
4 18 19 21 20 
4 20 21 23 22 
4 22 23 25 24 
4 24 25 27 26 
4 26 27 29 28 
4 28 29 31 30 
4 30 31 33 32 
4 32 33 35 34 
4 34 35 37 36 
4 36 37 39 38 
4 38 39 41 40 
4 40 41 43 42 
4 42 43 45 44 
4 44 45 47 46 
4 46 47 49 48 
4 48 49 51 50 
4 50 51 53 52 
4 52 53 55 54 
4 54 55 57 56 
4 56 57 59 58 
4 58 59 61 60 
4 60 61 63 62 
4 62 63 65 64 
4 64 65 67 66 
4 66 67 69 68 
4 68 69 71 70 
4 70 71 73 72 
4 72 73 75 74 
4 74 75 77 76 
4 76 77 79 78 
4 78 79 81 80 
4 80 81 83 82 
4 82 83 85 84 
4 84 85 87 86 
4 86 87 89 88 
4 88 89 91 90 
4 90 91 93 92 
4 92 93 95 94 
4 94 95 97 96 
4 96 97 99 98 
4 98 99 101 100 
4 100 101 103 102 
4 102 103 105 104 
4 104 105 107 106 
4 106 107 109 108 
4 108 109 111 110 
4 110 111 113 112 
4 112 113 115 114 
4 114 115 117 116 
4 116 117 119 118 
4 118 119 121 120 
4 120 121 123 122 
4 122 123 125 124 
4 124 125 127 126 
4 126 127 129 128 
4 128 129 131 130 
4 130 131 133 132 
4 132 133 135 134 
4 134 135 137 136 
4 136 137 139 138 
4 138 139 141 140 
4 140 141 143 142 
4 142 143 145 144 
4 144 145 147 146 
4 146 147 149 148 
4 148 149 151 150 
4 150 151 153 152 
4 152 153 155 154 
4 154 155 157 156 
4 156 157 159 158 
4 158 159 161 160 
4 160 161 163 162 
4 162 163 165 164 
4 164 165 167 166 
4 166 167 169 168 
4 168 169 171 170 
4 170 171 173 172 
4 172 173 175 174 
4 174 175 177 176 
4 176 177 179 178 
4 178 179 181 180 
4 180 181 183 182 
4 182 183 185 184 
4 184 185 187 186 
4 186 187 189 188 
4 188 189 191 190 
4 190 191 193 192 
4 192 193 195 194 
4 194 195 197 196 
4 196 197 199 198 
4 198 199 201 200 
4 200 201 203 202 
4 202 203 205 204 
4 204 205 207 206 
4 206 207 209 208 
4 208 209 211 210 
4 210 211 213 212 
4 212 213 215 214 
4 214 215 217 216 
4 216 217 219 218 
4 218 219 221 220 
4 220 221 223 222 
4 222 223 225 224 
4 224 225 227 226 
4 226 227 229 228 
4 228 229 231 230 
4 230 231 233 232 
4 232 233 235 234 
4 234 235 237 236 
4 236 237 239 238 
4 238 239 241 240 
4 240 241 243 242 
4 242 243 245 244 
4 244 245 247 246 
4 246 247 249 248 
4 248 249 251 250 
4 250 251 253 252 
4 252 253 255 254 
4 254 255 257 256 
4 256 257 259 258 
4 258 259 261 260 
4 260 261 263 262 
4 262 263 265 264 
4 264 265 267 266 
4 266 267 269 268 
4 268 269 271 270 
4 270 271 273 272 
4 272 273 275 274 
4 274 275 277 276 
4 276 277 279 278 
4 278 279 281 280 
4 280 281 283 282 
4 282 283 285 284 
4 284 285 287 286 
4 286 287 289 288 
4 288 289 291 290 
4 290 291 293 292 
4 292 293 295 294 
4 294 295 297 296 
4 296 297 299 298 
4 298 299 301 300 
4 300 301 303 302 
4 302 303 305 304 
4 304 305 307 306 
4 306 307 309 308 
4 308 309 311 310 
4 310 311 313 312 
4 312 313 315 314 
4 314 315 317 316 
4 316 317 319 318 
4 318 319 321 320 
4 320 321 323 322 
4 322 323 325 324 
4 324 325 327 326 
4 326 327 329 328 
4 328 329 331 330 
4 330 331 333 332 
4 332 333 335 334 
4 334 335 337 336 
4 336 337 339 338 
4 338 339 341 340 
4 340 341 343 342 
4 342 343 345 344 
4 344 345 347 346 
4 346 347 349 348 
4 348 349 351 350 
4 350 351 353 352 
4 352 353 355 354 
4 354 355 357 356 
4 356 357 359 358 
4 358 359 361 360 
4 360 361 363 362 
4 362 363 365 364 
4 364 365 367 366 
4 366 367 369 368 
4 368 369 371 370 
4 370 371 373 372 
4 372 373 375 374 
4 374 375 377 376 
4 376 377 379 378 
4 378 379 381 380 
4 380 381 383 382 
4 382 383 385 384 
4 384 385 387 386 
4 386 387 389 388 
4 388 389 391 390 
4 390 391 393 392 
4 392 393 395 394 
4 394 395 397 396 
4 396 397 399 398 
4 398 399 401 400 
4 400 401 403 402 
4 402 403 405 404 
4 404 405 407 406 
4 406 407 409 408 
4 408 409 411 410 
4 410 411 413 412 
4 412 413 415 414 
4 414 415 417 416 
4 416 417 419 418 
4 418 419 421 420 
4 420 421 423 422 
4 422 423 425 424 
4 424 425 427 426 
4 426 427 429 428 
4 428 429 431 430 
4 430 431 433 432 
4 432 433 435 434 
4 434 435 437 436 
4 436 437 439 438 
4 438 439 441 440 
4 440 441 443 442 
4 442 443 445 444 
4 444 445 447 446 
4 446 447 449 448 
4 448 449 451 450 
4 450 451 453 452 
4 452 453 455 454 
4 454 455 457 456 
4 456 457 459 458 
4 458 459 461 460 
