ply
format ascii 1.0
comment VTK generated PLY File
obj_info vtkPolyData points and polygons: vtk4.0
element vertex 696
property float x
property float y
property float z
element face 347
property list uchar int vertex_indices
end_header
0 -0.0025 0 
0.005 -0.0025 0 
0.01 -0.0025 0 
0.015 -0.0025 0 
0.02 -0.0025 0 
0.025 -0.0025 0 
0.03 -0.0025 0 
0.035 -0.0025 0 
0.04 -0.0025 0 
0.045 -0.0025 0 
0.05 -0.0025 0 
0.055 -0.0025 0 
0.06 -0.0025 0 
0.065 -0.0025 0 
0.07 -0.0025 0 
0.075 -0.0025 0 
0.08 -0.0025 0 
0.085 -0.0025 0 
0.09 -0.0025 0 
0.095 -0.0025 0 
0.1 -0.0025 0 
0.105 -0.0025 0 
0.11 -0.0025 0 
0.115 -0.0025 0 
0.12 -0.0025 0 
0.125 -0.0025 0 
0.13 -0.0025 0 
0.135 -0.0025 0 
0.14 -0.0025 0 
0.145 -0.0025 0 
0.15 -0.0025 0 
0.155 -0.0025 0 
0.16 -0.0025 0 
0.165 -0.0025 0 
0.17 -0.0025 0 
0.175 -0.0025 0 
0.18 -0.0025 0 
0.185 -0.0025 0 
0.19 -0.0025 0 
0.195 -0.0025 0 
0.2 -0.0025 0 
0.205 -0.0025 0 
0.21 -0.0025 0 
0.215 -0.0025 0 
0.22 -0.0025 0 
0.225 -0.0025 0 
0.23 -0.0025 0 
0.235 -0.0025 0 
0.24 -0.0025 0 
0.245 -0.0025 0 
0.25 -0.0025 0 
0.255 -0.0025 0 
0.26 -0.0025 0 
0.265 -0.0025 0 
0.27 -0.0025 0 
0.275 -0.0025 0 
0.28 -0.0025 0 
0.285 -0.0025 0 
0.29 -0.0025 0 
0.295 -0.0025 0 
0.3 -0.0025 0 
0.305 -0.0025 0 
0.31 -0.0025 0 
0.315 -0.0025 0 
0.32 -0.0025 0 
0.325 -0.0025 0 
0.33 -0.0025 0 
0.335 -0.0025 0 
0.34 -0.0025 0 
0.345 -0.0025 0 
0.35 -0.0025 0 
0.355 -0.0025 0 
0.36 -0.0025 0 
0.365 -0.0025 0 
0.37 -0.0025 0 
0.375 -0.0025 0 
0.38 -0.0025 0 
0.385 -0.0025 0 
0.39 -0.0025 0 
0.395 -0.0025 0 
0.4 -0.0025 0 
0.405 -0.0025 0 
0.41 -0.0025 0 
0.415 -0.0025 0 
0.42 -0.0025 0 
0.425 -0.0025 0 
0.43 -0.0025 0 
0.435 -0.0025 0 
0.44 -0.0025 0 
0.445 -0.0025 0 
0.45 -0.0025 0 
0.455 -0.0025 0 
0.46 -0.0025 0 
0.465 -0.0025 0 
0.47 -0.0025 0 
0.475 -0.0025 0 
0.48 -0.0025 0 
0.485 -0.0025 0 
0.49 -0.0025 0 
0.495 -0.0025 0 
0.5 -0.0025 0 
0.505 -0.0025 0 
0.51 -0.0025 0 
0.515 -0.0025 0 
0.52 -0.0025 0 
0.525 -0.0025 0 
0.53 -0.0025 0 
0.535 -0.0025 0 
0.54 -0.0025 0 
0.545 -0.0025 0 
0.55 -0.0025 0 
0.555 -0.0025 0 
0.56 -0.0025 0 
0.565 -0.0025 0 
0.57 -0.0025 0 
0.575 -0.0025 0 
0.58 -0.0025 0 
0.585 -0.0025 0 
0.59 -0.0025 0 
0.595 -0.0025 0 
0.6 -0.0025 0 
0.605 -0.0025 0 
0.61 -0.0025 0 
0.615 -0.0025 0 
0.62 -0.0025 0 
0.625 -0.0025 0 
0.63 -0.0025 0 
0.635 -0.0025 0 
0.64 -0.0025 0 
0.645 -0.0025 0 
0.65 -0.0025 0 
0.655 -0.0025 0 
0.66 -0.0025 0 
0.665 -0.0025 0 
0.67 -0.0025 0 
0.675 -0.0025 0 
0.68 -0.0025 0 
0.685 -0.0025 0 
0.69 -0.0025 0 
0.695 -0.0025 0 
0.7 -0.0025 0 
0.705 -0.0025 0 
0.71 -0.0025 0 
0.715 -0.0025 0 
0.72 -0.0025 0 
0.725 -0.0025 0 
0.73 -0.0025 0 
0.735 -0.0025 0 
0.74 -0.0025 0 
0.745 -0.0025 0 
0.75 -0.0025 0 
0.755 -0.0025 0 
0.76 -0.0025 0 
0.765 -0.0025 0 
0.77 -0.0025 0 
0.775 -0.0025 0 
0.78 -0.0025 0 
0.785 -0.0025 0 
0.79 -0.0025 0 
0.795 -0.0025 0 
0.8 -0.0025 0 
0.805 -0.0025 0 
0.81 -0.0025 0 
0.815 -0.0025 0 
0.82 -0.0025 0 
0.825 -0.0025 0 
0.83 -0.0025 0 
0.835 -0.0025 0 
0.84 -0.0025 0 
0.845 -0.0025 0 
0.85 -0.0025 0 
0.855 -0.0025 0 
0.86 -0.0025 0 
0.865 -0.0025 0 
0.87 -0.0025 0 
0.875 -0.0025 0 
0.88 -0.0025 0 
0.885 -0.0025 0 
0.89 -0.0025 0 
0.895 -0.0025 0 
0.9 -0.0025 0 
0.905 -0.0025 0 
0.91 -0.0025 0 
0.915 -0.0025 0 
0.92 -0.0025 0 
0.925 -0.0025 0 
0.93 -0.0025 0 
0.935 -0.0025 0 
0.94 -0.0025 0 
0.945 -0.0025 0 
0.95 -0.0025 0 
0.955 -0.0025 0 
0.96 -0.0025 0 
0.965 -0.0025 0 
0.97 -0.0025 0 
0.975 -0.0025 0 
0.98 -0.0025 0 
0.985 -0.0025 0 
0.99 -0.0025 0 
0.995 -0.0025 0 
1 -0.0025 0 
1.005 -0.0025 0 
1.01 -0.0025 0 
1.015 -0.0025 0 
1.02 -0.0025 0 
1.025 -0.0025 0 
1.03 -0.0025 0 
1.035 -0.0025 0 
1.04 -0.0025 0 
1.045 -0.0025 0 
1.05 -0.0025 0 
1.055 -0.0025 0 
1.06 -0.0025 0 
1.065 -0.0025 0 
1.07 -0.0025 0 
1.075 -0.0025 0 
1.08 -0.0025 0 
1.085 -0.0025 0 
1.09 -0.0025 0 
1.095 -0.0025 0 
1.1 -0.0025 0 
1.105 -0.0025 0 
1.11 -0.0025 0 
1.115 -0.0025 0 
1.12 -0.0025 0 
1.125 -0.0025 0 
1.13 -0.0025 0 
1.135 -0.0025 0 
1.14 -0.0025 0 
1.145 -0.0025 0 
1.15 -0.0025 0 
1.155 -0.0025 0 
1.16 -0.0025 0 
1.165 -0.0025 0 
1.17 -0.0025 0 
1.175 -0.0025 0 
1.18 -0.0025 0 
1.185 -0.0025 0 
1.19 -0.0025 0 
1.195 -0.0025 0 
1.2 -0.0025 0 
1.205 -0.0025 0 
1.21 -0.0025 0 
1.215 -0.0025 0 
1.22 -0.0025 0 
1.225 -0.0025 0 
1.23 -0.0025 0 
1.235 -0.0025 0 
1.24 -0.0025 0 
1.245 -0.0025 0 
1.25 -0.0025 0 
1.255 -0.0025 0 
1.26 -0.0025 0 
1.265 -0.0025 0 
1.27 -0.0025 0 
1.275 -0.0025 0 
1.28 -0.0025 0 
1.285 -0.0025 0 
1.29 -0.0025 0 
1.295 -0.0025 0 
1.3 -0.0025 0 
1.305 -0.0025 0 
1.31 -0.0025 0 
1.315 -0.0025 0 
1.32 -0.0025 0 
1.325 -0.0025 0 
1.33 -0.0025 0 
1.335 -0.0025 0 
1.34 -0.0025 0 
1.345 -0.0025 0 
1.35 -0.0025 0 
1.355 -0.0025 0 
1.36 -0.0025 0 
1.365 -0.0025 0 
1.37 -0.0025 0 
1.375 -0.0025 0 
1.38 -0.0025 0 
1.385 -0.0025 0 
1.39 -0.0025 0 
1.395 -0.0025 0 
1.4 -0.0025 0 
1.405 -0.0025 0 
1.41 -0.0025 0 
1.415 -0.0025 0 
1.42 -0.0025 0 
1.425 -0.0025 0 
1.43 -0.0025 0 
1.435 -0.0025 0 
1.44 -0.0025 0 
1.445 -0.0025 0 
1.45 -0.0025 0 
1.455 -0.0025 0 
1.46 -0.0025 0 
1.465 -0.0025 0 
1.47 -0.0025 0 
1.475 -0.0025 0 
1.48 -0.0025 0 
1.485 -0.0025 0 
1.49 -0.0025 0 
1.495 -0.0025 0 
1.5 -0.0025 0 
1.505 -0.0025 0 
1.51 -0.0025 0 
1.515 -0.0025 0 
1.52 -0.0025 0 
1.525 -0.0025 0 
1.53 -0.0025 0 
1.535 -0.0025 0 
1.54 -0.0025 0 
1.545 -0.0025 0 
1.55 -0.0025 0 
1.555 -0.0025 0 
1.56 -0.0025 0 
1.565 -0.0025 0 
1.57 -0.0025 0 
1.575 -0.0025 0 
1.58 -0.0025 0 
1.585 -0.0025 0 
1.59 -0.0025 0 
1.595 -0.0025 0 
1.6 -0.0025 0 
1.605 -0.0025 0 
1.61 -0.0025 0 
1.615 -0.0025 0 
1.62 -0.0025 0 
1.625 -0.0025 0 
1.63 -0.0025 0 
1.635 -0.0025 0 
1.64 -0.0025 0 
1.645 -0.0025 0 
1.65 -0.0025 0 
1.655 -0.0025 0 
1.66 -0.0025 0 
1.665 -0.0025 0 
1.67 -0.0025 0 
1.675 -0.0025 0 
1.68 -0.0025 0 
1.685 -0.0025 0 
1.69 -0.0025 0 
1.695 -0.0025 0 
1.7 -0.0025 0 
1.705 -0.0025 0 
1.71 -0.0025 0 
1.715 -0.0025 0 
1.72 -0.0025 0 
1.725 -0.0025 0 
1.73 -0.0025 0 
1.735 -0.0025 0 
0 0.0025 0 
0.005 0.0025 0 
0.01 0.0025 0 
0.015 0.0025 0 
0.02 0.0025 0 
0.025 0.0025 0 
0.03 0.0025 0 
0.035 0.0025 0 
0.04 0.0025 0 
0.045 0.0025 0 
0.05 0.0025 0 
0.055 0.0025 0 
0.06 0.0025 0 
0.065 0.0025 0 
0.07 0.0025 0 
0.075 0.0025 0 
0.08 0.0025 0 
0.085 0.0025 0 
0.09 0.0025 0 
0.095 0.0025 0 
0.1 0.0025 0 
0.105 0.0025 0 
0.11 0.0025 0 
0.115 0.0025 0 
0.12 0.0025 0 
0.125 0.0025 0 
0.13 0.0025 0 
0.135 0.0025 0 
0.14 0.0025 0 
0.145 0.0025 0 
0.15 0.0025 0 
0.155 0.0025 0 
0.16 0.0025 0 
0.165 0.0025 0 
0.17 0.0025 0 
0.175 0.0025 0 
0.18 0.0025 0 
0.185 0.0025 0 
0.19 0.0025 0 
0.195 0.0025 0 
0.2 0.0025 0 
0.205 0.0025 0 
0.21 0.0025 0 
0.215 0.0025 0 
0.22 0.0025 0 
0.225 0.0025 0 
0.23 0.0025 0 
0.235 0.0025 0 
0.24 0.0025 0 
0.245 0.0025 0 
0.25 0.0025 0 
0.255 0.0025 0 
0.26 0.0025 0 
0.265 0.0025 0 
0.27 0.0025 0 
0.275 0.0025 0 
0.28 0.0025 0 
0.285 0.0025 0 
0.29 0.0025 0 
0.295 0.0025 0 
0.3 0.0025 0 
0.305 0.0025 0 
0.31 0.0025 0 
0.315 0.0025 0 
0.32 0.0025 0 
0.325 0.0025 0 
0.33 0.0025 0 
0.335 0.0025 0 
0.34 0.0025 0 
0.345 0.0025 0 
0.35 0.0025 0 
0.355 0.0025 0 
0.36 0.0025 0 
0.365 0.0025 0 
0.37 0.0025 0 
0.375 0.0025 0 
0.38 0.0025 0 
0.385 0.0025 0 
0.39 0.0025 0 
0.395 0.0025 0 
0.4 0.0025 0 
0.405 0.0025 0 
0.41 0.0025 0 
0.415 0.0025 0 
0.42 0.0025 0 
0.425 0.0025 0 
0.43 0.0025 0 
0.435 0.0025 0 
0.44 0.0025 0 
0.445 0.0025 0 
0.45 0.0025 0 
0.455 0.0025 0 
0.46 0.0025 0 
0.465 0.0025 0 
0.47 0.0025 0 
0.475 0.0025 0 
0.48 0.0025 0 
0.485 0.0025 0 
0.49 0.0025 0 
0.495 0.0025 0 
0.5 0.0025 0 
0.505 0.0025 0 
0.51 0.0025 0 
0.515 0.0025 0 
0.52 0.0025 0 
0.525 0.0025 0 
0.53 0.0025 0 
0.535 0.0025 0 
0.54 0.0025 0 
0.545 0.0025 0 
0.55 0.0025 0 
0.555 0.0025 0 
0.56 0.0025 0 
0.565 0.0025 0 
0.57 0.0025 0 
0.575 0.0025 0 
0.58 0.0025 0 
0.585 0.0025 0 
0.59 0.0025 0 
0.595 0.0025 0 
0.6 0.0025 0 
0.605 0.0025 0 
0.61 0.0025 0 
0.615 0.0025 0 
0.62 0.0025 0 
0.625 0.0025 0 
0.63 0.0025 0 
0.635 0.0025 0 
0.64 0.0025 0 
0.645 0.0025 0 
0.65 0.0025 0 
0.655 0.0025 0 
0.66 0.0025 0 
0.665 0.0025 0 
0.67 0.0025 0 
0.675 0.0025 0 
0.68 0.0025 0 
0.685 0.0025 0 
0.69 0.0025 0 
0.695 0.0025 0 
0.7 0.0025 0 
0.705 0.0025 0 
0.71 0.0025 0 
0.715 0.0025 0 
0.72 0.0025 0 
0.725 0.0025 0 
0.73 0.0025 0 
0.735 0.0025 0 
0.74 0.0025 0 
0.745 0.0025 0 
0.75 0.0025 0 
0.755 0.0025 0 
0.76 0.0025 0 
0.765 0.0025 0 
0.77 0.0025 0 
0.775 0.0025 0 
0.78 0.0025 0 
0.785 0.0025 0 
0.79 0.0025 0 
0.795 0.0025 0 
0.8 0.0025 0 
0.805 0.0025 0 
0.81 0.0025 0 
0.815 0.0025 0 
0.82 0.0025 0 
0.825 0.0025 0 
0.83 0.0025 0 
0.835 0.0025 0 
0.84 0.0025 0 
0.845 0.0025 0 
0.85 0.0025 0 
0.855 0.0025 0 
0.86 0.0025 0 
0.865 0.0025 0 
0.87 0.0025 0 
0.875 0.0025 0 
0.88 0.0025 0 
0.885 0.0025 0 
0.89 0.0025 0 
0.895 0.0025 0 
0.9 0.0025 0 
0.905 0.0025 0 
0.91 0.0025 0 
0.915 0.0025 0 
0.92 0.0025 0 
0.925 0.0025 0 
0.93 0.0025 0 
0.935 0.0025 0 
0.94 0.0025 0 
0.945 0.0025 0 
0.95 0.0025 0 
0.955 0.0025 0 
0.96 0.0025 0 
0.965 0.0025 0 
0.97 0.0025 0 
0.975 0.0025 0 
0.98 0.0025 0 
0.985 0.0025 0 
0.99 0.0025 0 
0.995 0.0025 0 
1 0.0025 0 
1.005 0.0025 0 
1.01 0.0025 0 
1.015 0.0025 0 
1.02 0.0025 0 
1.025 0.0025 0 
1.03 0.0025 0 
1.035 0.0025 0 
1.04 0.0025 0 
1.045 0.0025 0 
1.05 0.0025 0 
1.055 0.0025 0 
1.06 0.0025 0 
1.065 0.0025 0 
1.07 0.0025 0 
1.075 0.0025 0 
1.08 0.0025 0 
1.085 0.0025 0 
1.09 0.0025 0 
1.095 0.0025 0 
1.1 0.0025 0 
1.105 0.0025 0 
1.11 0.0025 0 
1.115 0.0025 0 
1.12 0.0025 0 
1.125 0.0025 0 
1.13 0.0025 0 
1.135 0.0025 0 
1.14 0.0025 0 
1.145 0.0025 0 
1.15 0.0025 0 
1.155 0.0025 0 
1.16 0.0025 0 
1.165 0.0025 0 
1.17 0.0025 0 
1.175 0.0025 0 
1.18 0.0025 0 
1.185 0.0025 0 
1.19 0.0025 0 
1.195 0.0025 0 
1.2 0.0025 0 
1.205 0.0025 0 
1.21 0.0025 0 
1.215 0.0025 0 
1.22 0.0025 0 
1.225 0.0025 0 
1.23 0.0025 0 
1.235 0.0025 0 
1.24 0.0025 0 
1.245 0.0025 0 
1.25 0.0025 0 
1.255 0.0025 0 
1.26 0.0025 0 
1.265 0.0025 0 
1.27 0.0025 0 
1.275 0.0025 0 
1.28 0.0025 0 
1.285 0.0025 0 
1.29 0.0025 0 
1.295 0.0025 0 
1.3 0.0025 0 
1.305 0.0025 0 
1.31 0.0025 0 
1.315 0.0025 0 
1.32 0.0025 0 
1.325 0.0025 0 
1.33 0.0025 0 
1.335 0.0025 0 
1.34 0.0025 0 
1.345 0.0025 0 
1.35 0.0025 0 
1.355 0.0025 0 
1.36 0.0025 0 
1.365 0.0025 0 
1.37 0.0025 0 
1.375 0.0025 0 
1.38 0.0025 0 
1.385 0.0025 0 
1.39 0.0025 0 
1.395 0.0025 0 
1.4 0.0025 0 
1.405 0.0025 0 
1.41 0.0025 0 
1.415 0.0025 0 
1.42 0.0025 0 
1.425 0.0025 0 
1.43 0.0025 0 
1.435 0.0025 0 
1.44 0.0025 0 
1.445 0.0025 0 
1.45 0.0025 0 
1.455 0.0025 0 
1.46 0.0025 0 
1.465 0.0025 0 
1.47 0.0025 0 
1.475 0.0025 0 
1.48 0.0025 0 
1.485 0.0025 0 
1.49 0.0025 0 
1.495 0.0025 0 
1.5 0.0025 0 
1.505 0.0025 0 
1.51 0.0025 0 
1.515 0.0025 0 
1.52 0.0025 0 
1.525 0.0025 0 
1.53 0.0025 0 
1.535 0.0025 0 
1.54 0.0025 0 
1.545 0.0025 0 
1.55 0.0025 0 
1.555 0.0025 0 
1.56 0.0025 0 
1.565 0.0025 0 
1.57 0.0025 0 
1.575 0.0025 0 
1.58 0.0025 0 
1.585 0.0025 0 
1.59 0.0025 0 
1.595 0.0025 0 
1.6 0.0025 0 
1.605 0.0025 0 
1.61 0.0025 0 
1.615 0.0025 0 
1.62 0.0025 0 
1.625 0.0025 0 
1.63 0.0025 0 
1.635 0.0025 0 
1.64 0.0025 0 
1.645 0.0025 0 
1.65 0.0025 0 
1.655 0.0025 0 
1.66 0.0025 0 
1.665 0.0025 0 
1.67 0.0025 0 
1.675 0.0025 0 
1.68 0.0025 0 
1.685 0.0025 0 
1.69 0.0025 0 
1.695 0.0025 0 
1.7 0.0025 0 
1.705 0.0025 0 
1.71 0.0025 0 
1.715 0.0025 0 
1.72 0.0025 0 
1.725 0.0025 0 
1.73 0.0025 0 
1.735 0.0025 0 
4 0 348 349 1 
4 1 349 350 2 
4 2 350 351 3 
4 3 351 352 4 
4 4 352 353 5 
4 5 353 354 6 
4 6 354 355 7 
4 7 355 356 8 
4 8 356 357 9 
4 9 357 358 10 
4 10 358 359 11 
4 11 359 360 12 
4 12 360 361 13 
4 13 361 362 14 
4 14 362 363 15 
4 15 363 364 16 
4 16 364 365 17 
4 17 365 366 18 
4 18 366 367 19 
4 19 367 368 20 
4 20 368 369 21 
4 21 369 370 22 
4 22 370 371 23 
4 23 371 372 24 
4 24 372 373 25 
4 25 373 374 26 
4 26 374 375 27 
4 27 375 376 28 
4 28 376 377 29 
4 29 377 378 30 
4 30 378 379 31 
4 31 379 380 32 
4 32 380 381 33 
4 33 381 382 34 
4 34 382 383 35 
4 35 383 384 36 
4 36 384 385 37 
4 37 385 386 38 
4 38 386 387 39 
4 39 387 388 40 
4 40 388 389 41 
4 41 389 390 42 
4 42 390 391 43 
4 43 391 392 44 
4 44 392 393 45 
4 45 393 394 46 
4 46 394 395 47 
4 47 395 396 48 
4 48 396 397 49 
4 49 397 398 50 
4 50 398 399 51 
4 51 399 400 52 
4 52 400 401 53 
4 53 401 402 54 
4 54 402 403 55 
4 55 403 404 56 
4 56 404 405 57 
4 57 405 406 58 
4 58 406 407 59 
4 59 407 408 60 
4 60 408 409 61 
4 61 409 410 62 
4 62 410 411 63 
4 63 411 412 64 
4 64 412 413 65 
4 65 413 414 66 
4 66 414 415 67 
4 67 415 416 68 
4 68 416 417 69 
4 69 417 418 70 
4 70 418 419 71 
4 71 419 420 72 
4 72 420 421 73 
4 73 421 422 74 
4 74 422 423 75 
4 75 423 424 76 
4 76 424 425 77 
4 77 425 426 78 
4 78 426 427 79 
4 79 427 428 80 
4 80 428 429 81 
4 81 429 430 82 
4 82 430 431 83 
4 83 431 432 84 
4 84 432 433 85 
4 85 433 434 86 
4 86 434 435 87 
4 87 435 436 88 
4 88 436 437 89 
4 89 437 438 90 
4 90 438 439 91 
4 91 439 440 92 
4 92 440 441 93 
4 93 441 442 94 
4 94 442 443 95 
4 95 443 444 96 
4 96 444 445 97 
4 97 445 446 98 
4 98 446 447 99 
4 99 447 448 100 
4 100 448 449 101 
4 101 449 450 102 
4 102 450 451 103 
4 103 451 452 104 
4 104 452 453 105 
4 105 453 454 106 
4 106 454 455 107 
4 107 455 456 108 
4 108 456 457 109 
4 109 457 458 110 
4 110 458 459 111 
4 111 459 460 112 
4 112 460 461 113 
4 113 461 462 114 
4 114 462 463 115 
4 115 463 464 116 
4 116 464 465 117 
4 117 465 466 118 
4 118 466 467 119 
4 119 467 468 120 
4 120 468 469 121 
4 121 469 470 122 
4 122 470 471 123 
4 123 471 472 124 
4 124 472 473 125 
4 125 473 474 126 
4 126 474 475 127 
4 127 475 476 128 
4 128 476 477 129 
4 129 477 478 130 
4 130 478 479 131 
4 131 479 480 132 
4 132 480 481 133 
4 133 481 482 134 
4 134 482 483 135 
4 135 483 484 136 
4 136 484 485 137 
4 137 485 486 138 
4 138 486 487 139 
4 139 487 488 140 
4 140 488 489 141 
4 141 489 490 142 
4 142 490 491 143 
4 143 491 492 144 
4 144 492 493 145 
4 145 493 494 146 
4 146 494 495 147 
4 147 495 496 148 
4 148 496 497 149 
4 149 497 498 150 
4 150 498 499 151 
4 151 499 500 152 
4 152 500 501 153 
4 153 501 502 154 
4 154 502 503 155 
4 155 503 504 156 
4 156 504 505 157 
4 157 505 506 158 
4 158 506 507 159 
4 159 507 508 160 
4 160 508 509 161 
4 161 509 510 162 
4 162 510 511 163 
4 163 511 512 164 
4 164 512 513 165 
4 165 513 514 166 
4 166 514 515 167 
4 167 515 516 168 
4 168 516 517 169 
4 169 517 518 170 
4 170 518 519 171 
4 171 519 520 172 
4 172 520 521 173 
4 173 521 522 174 
4 174 522 523 175 
4 175 523 524 176 
4 176 524 525 177 
4 177 525 526 178 
4 178 526 527 179 
4 179 527 528 180 
4 180 528 529 181 
4 181 529 530 182 
4 182 530 531 183 
4 183 531 532 184 
4 184 532 533 185 
4 185 533 534 186 
4 186 534 535 187 
4 187 535 536 188 
4 188 536 537 189 
4 189 537 538 190 
4 190 538 539 191 
4 191 539 540 192 
4 192 540 541 193 
4 193 541 542 194 
4 194 542 543 195 
4 195 543 544 196 
4 196 544 545 197 
4 197 545 546 198 
4 198 546 547 199 
4 199 547 548 200 
4 200 548 549 201 
4 201 549 550 202 
4 202 550 551 203 
4 203 551 552 204 
4 204 552 553 205 
4 205 553 554 206 
4 206 554 555 207 
4 207 555 556 208 
4 208 556 557 209 
4 209 557 558 210 
4 210 558 559 211 
4 211 559 560 212 
4 212 560 561 213 
4 213 561 562 214 
4 214 562 563 215 
4 215 563 564 216 
4 216 564 565 217 
4 217 565 566 218 
4 218 566 567 219 
4 219 567 568 220 
4 220 568 569 221 
4 221 569 570 222 
4 222 570 571 223 
4 223 571 572 224 
4 224 572 573 225 
4 225 573 574 226 
4 226 574 575 227 
4 227 575 576 228 
4 228 576 577 229 
4 229 577 578 230 
4 230 578 579 231 
4 231 579 580 232 
4 232 580 581 233 
4 233 581 582 234 
4 234 582 583 235 
4 235 583 584 236 
4 236 584 585 237 
4 237 585 586 238 
4 238 586 587 239 
4 239 587 588 240 
4 240 588 589 241 
4 241 589 590 242 
4 242 590 591 243 
4 243 591 592 244 
4 244 592 593 245 
4 245 593 594 246 
4 246 594 595 247 
4 247 595 596 248 
4 248 596 597 249 
4 249 597 598 250 
4 250 598 599 251 
4 251 599 600 252 
4 252 600 601 253 
4 253 601 602 254 
4 254 602 603 255 
4 255 603 604 256 
4 256 604 605 257 
4 257 605 606 258 
4 258 606 607 259 
4 259 607 608 260 
4 260 608 609 261 
4 261 609 610 262 
4 262 610 611 263 
4 263 611 612 264 
4 264 612 613 265 
4 265 613 614 266 
4 266 614 615 267 
4 267 615 616 268 
4 268 616 617 269 
4 269 617 618 270 
4 270 618 619 271 
4 271 619 620 272 
4 272 620 621 273 
4 273 621 622 274 
4 274 622 623 275 
4 275 623 624 276 
4 276 624 625 277 
4 277 625 626 278 
4 278 626 627 279 
4 279 627 628 280 
4 280 628 629 281 
4 281 629 630 282 
4 282 630 631 283 
4 283 631 632 284 
4 284 632 633 285 
4 285 633 634 286 
4 286 634 635 287 
4 287 635 636 288 
4 288 636 637 289 
4 289 637 638 290 
4 290 638 639 291 
4 291 639 640 292 
4 292 640 641 293 
4 293 641 642 294 
4 294 642 643 295 
4 295 643 644 296 
4 296 644 645 297 
4 297 645 646 298 
4 298 646 647 299 
4 299 647 648 300 
4 300 648 649 301 
4 301 649 650 302 
4 302 650 651 303 
4 303 651 652 304 
4 304 652 653 305 
4 305 653 654 306 
4 306 654 655 307 
4 307 655 656 308 
4 308 656 657 309 
4 309 657 658 310 
4 310 658 659 311 
4 311 659 660 312 
4 312 660 661 313 
4 313 661 662 314 
4 314 662 663 315 
4 315 663 664 316 
4 316 664 665 317 
4 317 665 666 318 
4 318 666 667 319 
4 319 667 668 320 
4 320 668 669 321 
4 321 669 670 322 
4 322 670 671 323 
4 323 671 672 324 
4 324 672 673 325 
4 325 673 674 326 
4 326 674 675 327 
4 327 675 676 328 
4 328 676 677 329 
4 329 677 678 330 
4 330 678 679 331 
4 331 679 680 332 
4 332 680 681 333 
4 333 681 682 334 
4 334 682 683 335 
4 335 683 684 336 
4 336 684 685 337 
4 337 685 686 338 
4 338 686 687 339 
4 339 687 688 340 
4 340 688 689 341 
4 341 689 690 342 
4 342 690 691 343 
4 343 691 692 344 
4 344 692 693 345 
4 345 693 694 346 
4 346 694 695 347 
