ply
format ascii 1.0
comment VTK generated PLY File
obj_info vtkPolyData points and polygons: vtk4.0
element vertex 462
property float x
property float y
property float z
element face 230
property list uchar int vertex_indices
end_header
0 -0.0025 0 
0 0.0025 0 
0 -0.0025 0.005 
0 0.0025 0.005 
0 -0.0025 0.01 
0 0.0025 0.01 
0 -0.0025 0.015 
0 0.0025 0.015 
0 -0.0025 0.02 
0 0.0025 0.02 
0 -0.0025 0.025 
0 0.0025 0.025 
0 -0.0025 0.03 
0 0.0025 0.03 
0 -0.0025 0.035 
0 0.0025 0.035 
0 -0.0025 0.04 
0 0.0025 0.04 
0 -0.0025 0.045 
0 0.0025 0.045 
0 -0.0025 0.05 
0 0.0025 0.05 
0 -0.0025 0.055 
0 0.0025 0.055 
0 -0.0025 0.06 
0 0.0025 0.06 
0 -0.0025 0.065 
0 0.0025 0.065 
0 -0.0025 0.07 
0 0.0025 0.07 
0 -0.0025 0.075 
0 0.0025 0.075 
0 -0.0025 0.08 
0 0.0025 0.08 
0 -0.0025 0.085 
0 0.0025 0.085 
0 -0.0025 0.09 
0 0.0025 0.09 
0 -0.0025 0.095 
0 0.0025 0.095 
0 -0.0025 0.1 
0 0.0025 0.1 
0 -0.0025 0.105 
0 0.0025 0.105 
0 -0.0025 0.11 
0 0.0025 0.11 
0 -0.0025 0.115 
0 0.0025 0.115 
0 -0.0025 0.12 
0 0.0025 0.12 
0 -0.0025 0.125 
0 0.0025 0.125 
0 -0.0025 0.13 
0 0.0025 0.13 
0 -0.0025 0.135 
0 0.0025 0.135 
0 -0.0025 0.14 
0 0.0025 0.14 
0 -0.0025 0.145 
0 0.0025 0.145 
0 -0.0025 0.15 
0 0.0025 0.15 
0 -0.0025 0.155 
0 0.0025 0.155 
0 -0.0025 0.16 
0 0.0025 0.16 
0 -0.0025 0.165 
0 0.0025 0.165 
0 -0.0025 0.17 
0 0.0025 0.17 
0 -0.0025 0.175 
0 0.0025 0.175 
0 -0.0025 0.18 
0 0.0025 0.18 
0 -0.0025 0.185 
0 0.0025 0.185 
0 -0.0025 0.19 
0 0.0025 0.19 
0 -0.0025 0.195 
0 0.0025 0.195 
0 -0.0025 0.2 
0 0.0025 0.2 
0 -0.0025 0.205 
0 0.0025 0.205 
0 -0.0025 0.21 
0 0.0025 0.21 
0 -0.0025 0.215 
0 0.0025 0.215 
0 -0.0025 0.22 
0 0.0025 0.22 
0 -0.0025 0.225 
0 0.0025 0.225 
0 -0.0025 0.23 
0 0.0025 0.23 
0 -0.0025 0.235 
0 0.0025 0.235 
0 -0.0025 0.24 
0 0.0025 0.24 
0 -0.0025 0.245 
0 0.0025 0.245 
0 -0.0025 0.25 
0 0.0025 0.25 
0 -0.0025 0.255 
0 0.0025 0.255 
0 -0.0025 0.26 
0 0.0025 0.26 
0 -0.0025 0.265 
0 0.0025 0.265 
0 -0.0025 0.27 
0 0.0025 0.27 
0 -0.0025 0.275 
0 0.0025 0.275 
0 -0.0025 0.28 
0 0.0025 0.28 
0 -0.0025 0.285 
0 0.0025 0.285 
0 -0.0025 0.29 
0 0.0025 0.29 
0 -0.0025 0.295 
0 0.0025 0.295 
0 -0.0025 0.3 
0 0.0025 0.3 
0 -0.0025 0.305 
0 0.0025 0.305 
0 -0.0025 0.31 
0 0.0025 0.31 
0 -0.0025 0.315 
0 0.0025 0.315 
0 -0.0025 0.32 
0 0.0025 0.32 
0 -0.0025 0.325 
0 0.0025 0.325 
0 -0.0025 0.33 
0 0.0025 0.33 
0 -0.0025 0.335 
0 0.0025 0.335 
0 -0.0025 0.34 
0 0.0025 0.34 
0 -0.0025 0.345 
0 0.0025 0.345 
0 -0.0025 0.35 
0 0.0025 0.35 
0 -0.0025 0.355 
0 0.0025 0.355 
0 -0.0025 0.36 
0 0.0025 0.36 
0 -0.0025 0.365 
0 0.0025 0.365 
0 -0.0025 0.37 
0 0.0025 0.37 
0 -0.0025 0.375 
0 0.0025 0.375 
0 -0.0025 0.38 
0 0.0025 0.38 
0 -0.0025 0.385 
0 0.0025 0.385 
0 -0.0025 0.39 
0 0.0025 0.39 
0 -0.0025 0.395 
0 0.0025 0.395 
0 -0.0025 0.4 
0 0.0025 0.4 
0 -0.0025 0.405 
0 0.0025 0.405 
0 -0.0025 0.41 
0 0.0025 0.41 
0 -0.0025 0.415 
0 0.0025 0.415 
0 -0.0025 0.42 
0 0.0025 0.42 
0 -0.0025 0.425 
0 0.0025 0.425 
0 -0.0025 0.43 
0 0.0025 0.43 
0 -0.0025 0.435 
0 0.0025 0.435 
0 -0.0025 0.44 
0 0.0025 0.44 
0 -0.0025 0.445 
0 0.0025 0.445 
0 -0.0025 0.45 
0 0.0025 0.45 
0 -0.0025 0.455 
0 0.0025 0.455 
0 -0.0025 0.46 
0 0.0025 0.46 
0 -0.0025 0.465 
0 0.0025 0.465 
0 -0.0025 0.47 
0 0.0025 0.47 
0 -0.0025 0.475 
0 0.0025 0.475 
0 -0.0025 0.48 
0 0.0025 0.48 
0 -0.0025 0.485 
0 0.0025 0.485 
0 -0.0025 0.49 
0 0.0025 0.49 
0 -0.0025 0.495 
0 0.0025 0.495 
0 -0.0025 0.5 
0 0.0025 0.5 
0 -0.0025 0.505 
0 0.0025 0.505 
0 -0.0025 0.51 
0 0.0025 0.51 
0 -0.0025 0.515 
0 0.0025 0.515 
0 -0.0025 0.52 
0 0.0025 0.52 
0 -0.0025 0.525 
0 0.0025 0.525 
0 -0.0025 0.53 
0 0.0025 0.53 
0 -0.0025 0.535 
0 0.0025 0.535 
0 -0.0025 0.54 
0 0.0025 0.54 
0 -0.0025 0.545 
0 0.0025 0.545 
0 -0.0025 0.55 
0 0.0025 0.55 
0 -0.0025 0.555 
0 0.0025 0.555 
0 -0.0025 0.56 
0 0.0025 0.56 
0 -0.0025 0.565 
0 0.0025 0.565 
0 -0.0025 0.57 
0 0.0025 0.57 
0 -0.0025 0.575 
0 0.0025 0.575 
0 -0.0025 0.58 
0 0.0025 0.58 
0 -0.0025 0.585 
0 0.0025 0.585 
0 -0.0025 0.59 
0 0.0025 0.59 
0 -0.0025 0.595 
0 0.0025 0.595 
0 -0.0025 0.6 
0 0.0025 0.6 
0 -0.0025 0.605 
0 0.0025 0.605 
0 -0.0025 0.61 
0 0.0025 0.61 
0 -0.0025 0.615 
0 0.0025 0.615 
0 -0.0025 0.62 
0 0.0025 0.62 
0 -0.0025 0.625 
0 0.0025 0.625 
0 -0.0025 0.63 
0 0.0025 0.63 
0 -0.0025 0.635 
0 0.0025 0.635 
0 -0.0025 0.64 
0 0.0025 0.64 
0 -0.0025 0.645 
0 0.0025 0.645 
0 -0.0025 0.65 
0 0.0025 0.65 
0 -0.0025 0.655 
0 0.0025 0.655 
0 -0.0025 0.66 
0 0.0025 0.66 
0 -0.0025 0.665 
0 0.0025 0.665 
0 -0.0025 0.67 
0 0.0025 0.67 
0 -0.0025 0.675 
0 0.0025 0.675 
0 -0.0025 0.68 
0 0.0025 0.68 
0 -0.0025 0.685 
0 0.0025 0.685 
0 -0.0025 0.69 
0 0.0025 0.69 
0 -0.0025 0.695 
0 0.0025 0.695 
0 -0.0025 0.7 
0 0.0025 0.7 
0 -0.0025 0.705 
0 0.0025 0.705 
0 -0.0025 0.71 
0 0.0025 0.71 
0 -0.0025 0.715 
0 0.0025 0.715 
0 -0.0025 0.72 
0 0.0025 0.72 
0 -0.0025 0.725 
0 0.0025 0.725 
0 -0.0025 0.73 
0 0.0025 0.73 
0 -0.0025 0.735 
0 0.0025 0.735 
0 -0.0025 0.74 
0 0.0025 0.74 
0 -0.0025 0.745 
0 0.0025 0.745 
0 -0.0025 0.75 
0 0.0025 0.75 
0 -0.0025 0.755 
0 0.0025 0.755 
0 -0.0025 0.76 
0 0.0025 0.76 
0 -0.0025 0.765 
0 0.0025 0.765 
0 -0.0025 0.77 
0 0.0025 0.77 
0 -0.0025 0.775 
0 0.0025 0.775 
0 -0.0025 0.78 
0 0.0025 0.78 
0 -0.0025 0.785 
0 0.0025 0.785 
0 -0.0025 0.79 
0 0.0025 0.79 
0 -0.0025 0.795 
0 0.0025 0.795 
0 -0.0025 0.8 
0 0.0025 0.8 
0 -0.0025 0.805 
0 0.0025 0.805 
0 -0.0025 0.81 
0 0.0025 0.81 
0 -0.0025 0.815 
0 0.0025 0.815 
0 -0.0025 0.82 
0 0.0025 0.82 
0 -0.0025 0.825 
0 0.0025 0.825 
0 -0.0025 0.83 
0 0.0025 0.83 
0 -0.0025 0.835 
0 0.0025 0.835 
0 -0.0025 0.84 
0 0.0025 0.84 
0 -0.0025 0.845 
0 0.0025 0.845 
0 -0.0025 0.85 
0 0.0025 0.85 
0 -0.0025 0.855 
0 0.0025 0.855 
0 -0.0025 0.86 
0 0.0025 0.86 
0 -0.0025 0.865 
0 0.0025 0.865 
0 -0.0025 0.87 
0 0.0025 0.87 
0 -0.0025 0.875 
0 0.0025 0.875 
0 -0.0025 0.88 
0 0.0025 0.88 
0 -0.0025 0.885 
0 0.0025 0.885 
0 -0.0025 0.89 
0 0.0025 0.89 
0 -0.0025 0.895 
0 0.0025 0.895 
0 -0.0025 0.9 
0 0.0025 0.9 
0 -0.0025 0.905 
0 0.0025 0.905 
0 -0.0025 0.91 
0 0.0025 0.91 
0 -0.0025 0.915 
0 0.0025 0.915 
0 -0.0025 0.92 
0 0.0025 0.92 
0 -0.0025 0.925 
0 0.0025 0.925 
0 -0.0025 0.93 
0 0.0025 0.93 
0 -0.0025 0.935 
0 0.0025 0.935 
0 -0.0025 0.94 
0 0.0025 0.94 
0 -0.0025 0.945 
0 0.0025 0.945 
0 -0.0025 0.95 
0 0.0025 0.95 
0 -0.0025 0.955 
0 0.0025 0.955 
0 -0.0025 0.96 
0 0.0025 0.96 
0 -0.0025 0.965 
0 0.0025 0.965 
0 -0.0025 0.97 
0 0.0025 0.97 
0 -0.0025 0.975 
0 0.0025 0.975 
0 -0.0025 0.98 
0 0.0025 0.98 
0 -0.0025 0.985 
0 0.0025 0.985 
0 -0.0025 0.99 
0 0.0025 0.99 
0 -0.0025 0.995 
0 0.0025 0.995 
0 -0.0025 1 
0 0.0025 1 
0 -0.0025 1.005 
0 0.0025 1.005 
0 -0.0025 1.01 
0 0.0025 1.01 
0 -0.0025 1.015 
0 0.0025 1.015 
0 -0.0025 1.02 
0 0.0025 1.02 
0 -0.0025 1.025 
0 0.0025 1.025 
0 -0.0025 1.03 
0 0.0025 1.03 
0 -0.0025 1.035 
0 0.0025 1.035 
0 -0.0025 1.04 
0 0.0025 1.04 
0 -0.0025 1.045 
0 0.0025 1.045 
0 -0.0025 1.05 
0 0.0025 1.05 
0 -0.0025 1.055 
0 0.0025 1.055 
0 -0.0025 1.06 
0 0.0025 1.06 
0 -0.0025 1.065 
0 0.0025 1.065 
0 -0.0025 1.07 
0 0.0025 1.07 
0 -0.0025 1.075 
0 0.0025 1.075 
0 -0.0025 1.08 
0 0.0025 1.08 
0 -0.0025 1.085 
0 0.0025 1.085 
0 -0.0025 1.09 
0 0.0025 1.09 
0 -0.0025 1.095 
0 0.0025 1.095 
0 -0.0025 1.1 
0 0.0025 1.1 
0 -0.0025 1.105 
0 0.0025 1.105 
0 -0.0025 1.11 
0 0.0025 1.11 
0 -0.0025 1.115 
0 0.0025 1.115 
0 -0.0025 1.12 
0 0.0025 1.12 
0 -0.0025 1.125 
0 0.0025 1.125 
0 -0.0025 1.13 
0 0.0025 1.13 
0 -0.0025 1.135 
0 0.0025 1.135 
0 -0.0025 1.14 
0 0.0025 1.14 
0 -0.0025 1.145 
0 0.0025 1.145 
0 -0.0025 1.15 
0 0.0025 1.15 
4 0 2 3 1 
4 2 4 5 3 
4 4 6 7 5 
4 6 8 9 7 
4 8 10 11 9 
4 10 12 13 11 
4 12 14 15 13 
4 14 16 17 15 
4 16 18 19 17 
4 18 20 21 19 
4 20 22 23 21 
4 22 24 25 23 
4 24 26 27 25 
4 26 28 29 27 
4 28 30 31 29 
4 30 32 33 31 
4 32 34 35 33 
4 34 36 37 35 
4 36 38 39 37 
4 38 40 41 39 
4 40 42 43 41 
4 42 44 45 43 
4 44 46 47 45 
4 46 48 49 47 
4 48 50 51 49 
4 50 52 53 51 
4 52 54 55 53 
4 54 56 57 55 
4 56 58 59 57 
4 58 60 61 59 
4 60 62 63 61 
4 62 64 65 63 
4 64 66 67 65 
4 66 68 69 67 
4 68 70 71 69 
4 70 72 73 71 
4 72 74 75 73 
4 74 76 77 75 
4 76 78 79 77 
4 78 80 81 79 
4 80 82 83 81 
4 82 84 85 83 
4 84 86 87 85 
4 86 88 89 87 
4 88 90 91 89 
4 90 92 93 91 
4 92 94 95 93 
4 94 96 97 95 
4 96 98 99 97 
4 98 100 101 99 
4 100 102 103 101 
4 102 104 105 103 
4 104 106 107 105 
4 106 108 109 107 
4 108 110 111 109 
4 110 112 113 111 
4 112 114 115 113 
4 114 116 117 115 
4 116 118 119 117 
4 118 120 121 119 
4 120 122 123 121 
4 122 124 125 123 
4 124 126 127 125 
4 126 128 129 127 
4 128 130 131 129 
4 130 132 133 131 
4 132 134 135 133 
4 134 136 137 135 
4 136 138 139 137 
4 138 140 141 139 
4 140 142 143 141 
4 142 144 145 143 
4 144 146 147 145 
4 146 148 149 147 
4 148 150 151 149 
4 150 152 153 151 
4 152 154 155 153 
4 154 156 157 155 
4 156 158 159 157 
4 158 160 161 159 
4 160 162 163 161 
4 162 164 165 163 
4 164 166 167 165 
4 166 168 169 167 
4 168 170 171 169 
4 170 172 173 171 
4 172 174 175 173 
4 174 176 177 175 
4 176 178 179 177 
4 178 180 181 179 
4 180 182 183 181 
4 182 184 185 183 
4 184 186 187 185 
4 186 188 189 187 
4 188 190 191 189 
4 190 192 193 191 
4 192 194 195 193 
4 194 196 197 195 
4 196 198 199 197 
4 198 200 201 199 
4 200 202 203 201 
4 202 204 205 203 
4 204 206 207 205 
4 206 208 209 207 
4 208 210 211 209 
4 210 212 213 211 
4 212 214 215 213 
4 214 216 217 215 
4 216 218 219 217 
4 218 220 221 219 
4 220 222 223 221 
4 222 224 225 223 
4 224 226 227 225 
4 226 228 229 227 
4 228 230 231 229 
4 230 232 233 231 
4 232 234 235 233 
4 234 236 237 235 
4 236 238 239 237 
4 238 240 241 239 
4 240 242 243 241 
4 242 244 245 243 
4 244 246 247 245 
4 246 248 249 247 
4 248 250 251 249 
4 250 252 253 251 
4 252 254 255 253 
4 254 256 257 255 
4 256 258 259 257 
4 258 260 261 259 
4 260 262 263 261 
4 262 264 265 263 
4 264 266 267 265 
4 266 268 269 267 
4 268 270 271 269 
4 270 272 273 271 
4 272 274 275 273 
4 274 276 277 275 
4 276 278 279 277 
4 278 280 281 279 
4 280 282 283 281 
4 282 284 285 283 
4 284 286 287 285 
4 286 288 289 287 
4 288 290 291 289 
4 290 292 293 291 
4 292 294 295 293 
4 294 296 297 295 
4 296 298 299 297 
4 298 300 301 299 
4 300 302 303 301 
4 302 304 305 303 
4 304 306 307 305 
4 306 308 309 307 
4 308 310 311 309 
4 310 312 313 311 
4 312 314 315 313 
4 314 316 317 315 
4 316 318 319 317 
4 318 320 321 319 
4 320 322 323 321 
4 322 324 325 323 
4 324 326 327 325 
4 326 328 329 327 
4 328 330 331 329 
4 330 332 333 331 
4 332 334 335 333 
4 334 336 337 335 
4 336 338 339 337 
4 338 340 341 339 
4 340 342 343 341 
4 342 344 345 343 
4 344 346 347 345 
4 346 348 349 347 
4 348 350 351 349 
4 350 352 353 351 
4 352 354 355 353 
4 354 356 357 355 
4 356 358 359 357 
4 358 360 361 359 
4 360 362 363 361 
4 362 364 365 363 
4 364 366 367 365 
4 366 368 369 367 
4 368 370 371 369 
4 370 372 373 371 
4 372 374 375 373 
4 374 376 377 375 
4 376 378 379 377 
4 378 380 381 379 
4 380 382 383 381 
4 382 384 385 383 
4 384 386 387 385 
4 386 388 389 387 
4 388 390 391 389 
4 390 392 393 391 
4 392 394 395 393 
4 394 396 397 395 
4 396 398 399 397 
4 398 400 401 399 
4 400 402 403 401 
4 402 404 405 403 
4 404 406 407 405 
4 406 408 409 407 
4 408 410 411 409 
4 410 412 413 411 
4 412 414 415 413 
4 414 416 417 415 
4 416 418 419 417 
4 418 420 421 419 
4 420 422 423 421 
4 422 424 425 423 
4 424 426 427 425 
4 426 428 429 427 
4 428 430 431 429 
4 430 432 433 431 
4 432 434 435 433 
4 434 436 437 435 
4 436 438 439 437 
4 438 440 441 439 
4 440 442 443 441 
4 442 444 445 443 
4 444 446 447 445 
4 446 448 449 447 
4 448 450 451 449 
4 450 452 453 451 
4 452 454 455 453 
4 454 456 457 455 
4 456 458 459 457 
4 458 460 461 459 
