ply
format ascii 1.0
comment VTK generated PLY File
obj_info vtkPolyData points and polygons: vtk4.0
element vertex 1010
property float x
property float y
property float z
element face 808
property list uchar int vertex_indices
end_header
-0.00941385 -0.00941958 -0.04 
1.67672e-008 -0.0095938 -0.04 
0.00941954 -0.00941382 -0.04 
-0.00959379 -2.24674e-008 -0.04 
-5.15844e-008 -6.65165e-008 -0.04 
0.00959388 1.02153e-009 -0.04 
-0.00941955 0.00941381 -0.04 
-3.64442e-008 0.00959389 -0.04 
0.00941386 0.0094196 -0.04 
-0.00915258 -0.028675 -0.03 
1.08545e-005 -0.0292969 -0.03 
0.0091528 -0.028675 -0.03 
-0.0204024 -0.0203814 -0.03 
-0.010112 -0.0203675 -0.03 
0.010112 -0.0203677 -0.03 
0.0203814 -0.0204024 -0.03 
-0.028675 -0.0091528 -0.03 
-0.0203676 -0.010112 -0.03 
0.0203676 -0.010112 -0.03 
0.028675 -0.00915258 -0.03 
-0.0292969 -1.0855e-005 -0.03 
0.0292969 1.08548e-005 -0.03 
-0.028675 0.00915259 -0.03 
-0.0203676 0.010112 -0.03 
0.0203676 0.010112 -0.03 
0.028675 0.0091528 -0.03 
-0.0203814 0.0204024 -0.03 
-0.010112 0.0203677 -0.03 
0.010112 0.0203675 -0.03 
0.0204024 0.0203814 -0.03 
-0.0091528 0.028675 -0.03 
-1.08567e-005 0.0292969 -0.03 
0.00915258 0.028675 -0.03 
-0.0197186 -0.0294535 -0.02 
0.0197164 -0.0294551 -0.02 
-0.0294551 -0.0197164 -0.02 
0.0294535 -0.0197186 -0.02 
-0.0294534 0.0197187 -0.02 
0.0294551 0.0197164 -0.02 
-0.0197164 0.0294551 -0.02 
0.0197186 0.0294535 -0.02 
-0.00924049 -0.0381329 -0.01 
2.8181e-006 -0.0388858 -0.01 
0.00924196 -0.0381327 -0.01 
-0.0277919 -0.0277917 -0.01 
0.0277917 -0.0277919 -0.01 
-0.0381327 -0.009242 -0.01 
0.0381328 -0.00924082 -0.01 
-0.0388857 -2.04789e-006 -0.01 
0.0388857 2.07137e-006 -0.01 
-0.0381327 0.00924131 -0.01 
0.0381327 0.00924201 -0.01 
-0.0277917 0.0277919 -0.01 
0.0277919 0.0277917 -0.01 
-0.00924196 0.0381327 -0.01 
-2.81788e-006 0.0388858 -0.01 
0.00924049 0.0381329 -0.01 
-0.00930763 -0.0385203 -3.46945e-018 
1.87771e-005 -0.0395593 -4.33681e-019 
0.00930668 -0.0385205 -2.1684e-018 
-0.0280438 -0.028045 -6.50521e-018 
0.028045 -0.0280438 1.73472e-018 
-0.0385205 -0.00930672 -3.46945e-018 
0.0385202 -0.00930789 3.46945e-018 
-0.0395588 -1.00486e-005 0 
0.0395588 1.00699e-005 1.30104e-018 
-0.0385201 0.00930823 -2.1684e-018 
0.0385205 0.00930672 4.77049e-018 
-0.0280448 0.028044 -1.30104e-018 
0.0280438 0.028045 5.63785e-018 
-0.00930668 0.0385205 2.1684e-018 
-1.8777e-005 0.0395593 4.33681e-019 
0.00930763 0.0385203 3.46945e-018 
-0.00910572 -0.0381169 0.01 
2.5241e-005 -0.0382652 0.01 
0.00922743 -0.0381206 0.01 
-0.0278693 -0.0278731 0.01 
0.0278732 -0.0278694 0.01 
-0.0381207 -0.00922693 0.01 
0.0381312 -0.00918251 0.01 
-0.0382499 -2.51214e-006 0.01 
0.0382509 2.51748e-006 0.01 
-0.0381192 0.00923329 0.01 
0.0381207 0.00922732 0.01 
-0.0278727 0.0278701 0.01 
0.0278693 0.0278731 0.01 
-0.00922743 0.0381206 0.01 
-2.52399e-005 0.0382652 0.01 
0.00910573 0.0381169 0.01 
-0.0191122 -0.0287154 0.02 
0.0191213 -0.0287093 0.02 
-0.0287093 -0.0191213 0.02 
0.0287153 -0.0191122 0.02 
-0.0287123 0.019117 0.02 
0.0287093 0.0191213 0.02 
-0.0191213 0.0287093 0.02 
0.0191122 0.0287154 0.02 
-0.00905181 -0.0284551 0.03 
5.61395e-006 -0.0286401 0.03 
0.00905557 -0.0284538 0.03 
-0.019772 -0.0197825 0.03 
-0.0101178 -0.0204296 0.03 
0.0101184 -0.0204292 0.03 
0.0197825 -0.019772 0.03 
-0.0284536 -0.00905528 0.03 
-0.0204292 -0.0101184 0.03 
0.0204296 -0.0101178 0.03 
0.0284549 -0.00905191 0.03 
-0.0286398 -5.23846e-006 0.03 
0.0286401 5.52172e-006 0.03 
-0.0284538 0.00905486 0.03 
-0.0204296 0.0101179 0.03 
0.0204292 0.0101184 0.03 
0.0284536 0.00905546 0.03 
-0.0197824 0.0197721 0.03 
-0.0101184 0.0204292 0.03 
0.0101178 0.0204296 0.03 
0.019772 0.0197825 0.03 
-0.00905546 0.0284538 0.03 
-5.63737e-006 0.0286402 0.03 
0.00905181 0.0284551 0.03 
-0.00937445 -0.00936883 0.04 
2.10092e-010 -0.00956503 0.04 
0.00936886 -0.00937446 0.04 
-0.00956502 3.98503e-009 0.04 
-6.92125e-008 -5.1595e-008 0.04 
0.00956511 -1.68942e-008 0.04 
-0.0093688 0.00937452 0.04 
-2.56583e-008 0.00956511 0.04 
0.0093745 0.00936888 0.04 
-0.00434864 -0.0238416 -0.035 
0.00434896 -0.0238416 -0.035 
-0.0158748 -0.0158483 -0.035 
-0.00440478 -0.0142479 -0.035 
0.00440485 -0.0142478 -0.035 
0.0158485 -0.0158749 -0.035 
-0.0238416 -0.00434897 -0.035 
-0.0142478 -0.00440487 -0.035 
0.0142479 -0.00440476 -0.035 
0.0238416 -0.00434865 -0.035 
-0.0238416 0.00434865 -0.035 
-0.0142479 0.00440476 -0.035 
0.0142478 0.00440488 -0.035 
0.0238416 0.00434896 -0.035 
-0.0158484 0.0158749 -0.035 
-0.00440486 0.0142478 -0.035 
0.00440479 0.0142479 -0.035 
0.0158748 0.0158483 -0.035 
-0.00434897 0.0238416 -0.035 
0.00434865 0.0238416 -0.035 
-0.0047446 -0.0332431 -0.025 
0.00474455 -0.0332431 -0.025 
-0.0236469 -0.0236469 -0.025 
-0.014822 -0.0248323 -0.025 
0.014822 -0.0248323 -0.025 
0.0236469 -0.0236469 -0.025 
-0.0248323 -0.014822 -0.025 
0.0248323 -0.0148219 -0.025 
-0.0332431 -0.00474455 -0.025 
0.0332431 -0.00474461 -0.025 
-0.0332431 0.00474462 -0.025 
0.0332431 0.00474455 -0.025 
-0.0248323 0.0148219 -0.025 
0.0248323 0.0148219 -0.025 
-0.0236469 0.0236469 -0.025 
-0.014822 0.0248323 -0.025 
0.0148219 0.0248323 -0.025 
0.0236469 0.0236469 -0.025 
-0.00474455 0.0332431 -0.025 
0.0047446 0.0332431 -0.025 
-0.0146074 -0.0344499 -0.015 
-0.00573108 -0.0364612 -0.015 
0.00573098 -0.0364612 -0.015 
0.0146112 -0.0344484 -0.015 
-0.0344484 -0.0146112 -0.015 
0.0344499 -0.0146074 -0.015 
-0.0364612 -0.00573098 -0.015 
0.0364612 -0.00573111 -0.015 
-0.0364611 0.00573117 -0.015 
0.0364612 0.00573098 -0.015 
-0.0344495 0.0146084 -0.015 
0.0344484 0.0146112 -0.015 
-0.0146112 0.0344484 -0.015 
-0.00573098 0.0364612 -0.015 
0.00573108 0.0364612 -0.015 
0.0146074 0.0344499 -0.015 
-0.0230347 -0.0326497 -0.005 
-0.0154328 -0.0361042 -0.005 
0.0154481 -0.0360974 -0.005 
0.0230408 -0.0326455 -0.005 
-0.0326455 -0.0230408 -0.005 
0.0326497 -0.0230347 -0.005 
-0.0360974 -0.0154481 -0.005 
0.0361042 -0.0154328 -0.005 
-0.0360988 0.015445 -0.005 
0.0360974 0.0154481 -0.005 
-0.0326483 0.0230368 -0.005 
0.0326455 0.0230408 -0.005 
-0.0230407 0.0326455 -0.005 
-0.0154481 0.0360974 -0.005 
0.0154328 0.0361042 -0.005 
0.0230347 0.0326497 -0.005 
-0.0233092 -0.0329822 0.005 
-0.0152375 -0.0359758 0.005 
0.015276 -0.0359585 0.005 
0.0233226 -0.0329732 0.005 
-0.0329733 -0.0233226 0.005 
0.0329823 -0.0233094 0.005 
-0.0359585 -0.015276 0.005 
0.0359758 -0.0152375 0.005 
-0.0359594 0.0152738 0.005 
0.0359585 0.015276 0.005 
-0.0329777 0.023317 0.005 
0.0329732 0.0233226 0.005 
-0.0233224 0.0329735 0.005 
-0.015276 0.0359585 0.005 
0.0152375 0.0359758 0.005 
0.0233092 0.0329823 0.005 
-0.0141298 -0.0338193 0.015 
-0.00427053 -0.0360274 0.015 
0.00474806 -0.0361066 0.015 
0.0141598 -0.0338051 0.015 
-0.033805 -0.0141598 0.015 
0.0338191 -0.01413 0.015 
-0.0361067 -0.00474691 0.015 
0.0361241 -0.00454103 0.015 
-0.0360788 0.00473931 0.015 
0.0361066 0.00474765 0.015 
-0.0338056 0.0141583 0.015 
0.033805 0.0141599 0.015 
-0.0141598 0.0338051 0.015 
-0.00474806 0.0361066 0.015 
0.00427053 0.0360274 0.015 
0.0141298 0.0338193 0.015 
-0.00430434 -0.0333307 0.025 
0.0044522 -0.0333403 0.025 
-0.0235217 -0.023529 0.025 
-0.0148895 -0.024919 0.025 
0.014891 -0.0249179 0.025 
0.023529 -0.0235218 0.025 
-0.0249179 -0.014891 0.025 
0.024919 -0.0148895 0.025 
-0.0333399 -0.00445109 0.025 
0.0333545 -0.00437219 0.025 
-0.0333331 0.00444857 0.025 
0.03334 0.0044519 0.025 
-0.0249187 0.0148901 0.025 
0.0249179 0.014891 0.025 
-0.0235288 0.0235221 0.025 
-0.014891 0.024918 0.025 
0.0148895 0.024919 0.025 
0.0235217 0.023529 0.025 
-0.00445208 0.0333403 0.025 
0.00430422 0.0333307 0.025 
-0.00426731 -0.0233788 0.035 
0.00426786 -0.0233786 0.035 
-0.0153098 -0.015323 0.035 
-0.00439659 -0.0142461 0.035 
0.00439665 -0.0142462 0.035 
0.015323 -0.0153098 0.035 
-0.0233785 -0.00426774 0.035 
-0.0142462 -0.00439665 0.035 
0.0142461 -0.00439658 0.035 
0.0233787 -0.00426735 0.035 
-0.0233786 0.00426758 0.035 
-0.0142461 0.00439659 0.035 
0.0142462 0.00439666 0.035 
0.0233786 0.00426783 0.035 
-0.015323 0.0153099 0.035 
-0.00439665 0.0142462 0.035 
0.00439658 0.0142461 0.035 
0.0153098 0.015323 0.035 
-0.00426787 0.0233786 0.035 
0.00426733 0.0233788 0.035 
-0.010112 -0.0203675 -0.035 
-3.59228e-006 -0.0143466 -0.04 
3.56177e-009 -0.0192903 -0.035 
0.010112 -0.0203677 -0.035 
-0.0203676 -0.010112 -0.035 
-0.00549346 -0.0103786 -0.04 
-0.0103783 -0.00549365 -0.04 
-0.00961004 -0.00962517 -0.035 
0.00549367 -0.0103784 -0.04 
1.09408e-009 -0.00486774 -0.04 
0.0103786 -0.00549349 -0.04 
0.00962517 -0.00961004 -0.035 
0.0203676 -0.010112 -0.035 
-0.0143466 3.52025e-006 -0.04 
-0.0192903 -8.37994e-009 -0.035 
-0.00486772 -6.43154e-008 -0.04 
-0.0103786 0.00549348 -0.04 
0.00486766 -4.96796e-008 -0.04 
-2.98643e-008 0.00486768 -0.04 
0.0143466 -3.52773e-006 -0.04 
0.0103784 0.00549366 -0.04 
0.0192903 7.30325e-009 -0.035 
-0.0203676 0.010112 -0.035 
-0.00549368 0.0103784 -0.04 
-0.00962517 0.00961004 -0.035 
0.00549347 0.0103786 -0.04 
3.52134e-006 0.0143466 -0.04 
0.00961005 0.00962518 -0.035 
0.0203676 0.010112 -0.035 
-0.010112 0.0203677 -0.035 
-8.59613e-009 0.0192903 -0.035 
0.010112 0.0203675 -0.035 
-0.0189432 -0.0236752 -0.03 
-0.0187018 -0.028152 -0.025 
-0.00545246 -0.029279 -0.03 
-0.0108658 -0.0260058 -0.03 
-0.00973339 -0.0304333 -0.025 
0.00545267 -0.029279 -0.03 
9.1205e-006 -0.0241814 -0.03 
0.010866 -0.0260059 -0.03 
0.00973356 -0.0304333 -0.025 
0.0189432 -0.0236754 -0.03 
0.0187017 -0.0281521 -0.025 
-0.0236753 -0.0189431 -0.03 
-0.0281521 -0.0187017 -0.025 
-0.0142417 -0.0191698 -0.03 
-0.0191699 -0.0142416 -0.03 
0.0142417 -0.01917 -0.03 
0.0236753 -0.0189433 -0.03 
0.0191699 -0.0142418 -0.03 
0.028152 -0.0187018 -0.025 
-0.0260058 -0.010866 -0.03 
-0.029279 -0.00545267 -0.03 
-0.0304333 -0.00973356 -0.025 
0.0260058 -0.0108657 -0.03 
0.029279 -0.00545247 -0.03 
0.0304333 -0.00973339 -0.025 
-0.0241814 -9.1336e-006 -0.03 
-0.029279 0.00545247 -0.03 
0.0241814 9.13298e-006 -0.03 
0.029279 0.00545267 -0.03 
-0.0260058 0.0108657 -0.03 
-0.0304333 0.00973339 -0.025 
-0.0191699 0.0142418 -0.03 
0.0260058 0.010866 -0.03 
0.0191699 0.0142416 -0.03 
0.0304333 0.00973356 -0.025 
-0.0236753 0.0189433 -0.03 
-0.028152 0.0187018 -0.025 
-0.0142417 0.01917 -0.03 
-0.0189432 0.0236754 -0.03 
-0.010866 0.0260059 -0.03 
-9.13478e-006 0.0241814 -0.03 
0.0142417 0.0191698 -0.03 
0.0108657 0.0260058 -0.03 
0.0236754 0.0189432 -0.03 
0.0189433 0.0236753 -0.03 
0.0281521 0.0187017 -0.025 
-0.0187017 0.0281521 -0.025 
-0.00545267 0.029279 -0.03 
-0.00973356 0.0304333 -0.025 
0.00545246 0.029279 -0.03 
0.00973339 0.0304333 -0.025 
0.0187018 0.028152 -0.025 
-0.0101016 -0.0343393 -0.02 
-2.07544e-005 -0.0351375 -0.02 
-1.14728e-008 -0.0380903 -0.015 
0.0101026 -0.0343392 -0.02 
-0.0230584 -0.0278907 -0.02 
-0.0278915 -0.0230575 -0.02 
-0.0159435 -0.0310774 -0.02 
-0.0207067 -0.030733 -0.015 
0.0159434 -0.0310775 -0.02 
0.0230575 -0.0278915 -0.02 
0.0207028 -0.0307358 -0.015 
0.0278907 -0.0230584 -0.02 
-0.0310775 -0.0159434 -0.02 
-0.0307358 -0.0207028 -0.015 
0.0310774 -0.0159435 -0.02 
0.030733 -0.0207067 -0.015 
-0.0343392 -0.0101026 -0.02 
0.0343393 -0.0101016 -0.02 
-0.0351375 2.07622e-005 -0.02 
-0.0380902 1.93185e-008 -0.015 
0.0351375 -2.07595e-005 -0.02 
0.0380902 -1.4019e-008 -0.015 
-0.0343393 0.0101018 -0.02 
-0.0310774 0.0159435 -0.02 
0.0343392 0.0101026 -0.02 
0.0310775 0.0159434 -0.02 
-0.0278907 0.0230585 -0.02 
-0.0307328 0.020707 -0.015 
0.0278915 0.0230575 -0.02 
0.0307358 0.0207028 -0.015 
-0.0230575 0.0278916 -0.02 
-0.0159434 0.0310775 -0.02 
-0.0207028 0.0307358 -0.015 
-0.0101026 0.0343392 -0.02 
2.07546e-005 0.0351375 -0.02 
0.0159435 0.0310774 -0.02 
0.0101016 0.0343393 -0.02 
0.0230584 0.0278907 -0.02 
0.0207067 0.030733 -0.015 
1.18443e-008 0.0380903 -0.015 
-0.0191345 -0.0337539 -0.01 
-0.00452396 -0.0386166 -0.01 
-0.0111178 -0.0368002 -0.01 
-0.00930763 -0.0385203 -0.005 
0.00452628 -0.0386163 -0.01 
1.04543e-005 -0.0394411 -0.005 
0.0111199 -0.0367996 -0.01 
0.00930668 -0.0385205 -0.005 
0.0191363 -0.0337529 -0.01 
-0.0245682 -0.0297283 -0.01 
-0.0297229 -0.0245746 -0.01 
-0.0280438 -0.028045 -0.005 
0.0245746 -0.0297229 -0.01 
0.0297283 -0.0245682 -0.01 
0.028045 -0.0280438 -0.005 
-0.0337529 -0.0191363 -0.01 
0.0337539 -0.0191345 -0.01 
-0.0367996 -0.0111199 -0.01 
-0.0386163 -0.00452613 -0.01 
-0.0385205 -0.00930672 -0.005 
0.0368001 -0.0111179 -0.01 
0.0386164 -0.00452485 -0.01 
0.0385202 -0.00930789 -0.005 
-0.0386164 0.00452498 -0.01 
-0.0394411 -7.7627e-006 -0.005 
0.0386163 0.00452614 -0.01 
0.0394411 7.78918e-006 -0.005 
-0.0367999 0.0111184 -0.01 
-0.0385201 0.00930823 -0.005 
0.0367996 0.0111199 -0.01 
0.0385205 0.00930672 -0.005 
-0.0337525 0.019137 -0.01 
-0.0297279 0.0245687 -0.01 
0.0337529 0.0191363 -0.01 
0.0297229 0.0245746 -0.01 
-0.0245745 0.0297229 -0.01 
-0.0280448 0.028044 -0.005 
-0.0191363 0.0337529 -0.01 
-0.0111199 0.0367996 -0.01 
0.0111178 0.0368002 -0.01 
0.0245682 0.0297283 -0.01 
0.0191345 0.0337539 -0.01 
0.0280438 0.028045 -0.005 
-0.00452628 0.0386163 -0.01 
-0.00930668 0.0385205 -0.005 
0.00452396 0.0386166 -0.01 
-1.04541e-005 0.0394411 -0.005 
0.00930763 0.0385203 -0.005 
-0.0135042 -0.0374834 -5.63785e-018 
-0.019462 -0.0344051 -1.30104e-018 
-0.0045945 -0.039282 -1.73472e-018 
-0.00910572 -0.0381169 0.005 
0.00460061 -0.0392811 4.33681e-019 
3.55163e-005 -0.0391572 0.005 
0.0135118 -0.0374804 -1.30104e-018 
0.00922743 -0.0381206 0.005 
0.0194736 -0.0343985 -4.33681e-019 
-0.0277561 -0.0277565 0.005 
0.0277565 -0.0277561 0.005 
-0.0343985 -0.0194736 -8.67362e-019 
-0.0374804 -0.0135118 -6.07153e-018 
0.0344051 -0.019462 8.67362e-019 
0.0374832 -0.0135045 2.60209e-018 
-0.0392811 -0.00460034 -2.1684e-018 
-0.0381207 -0.00922693 0.005 
0.0392817 -0.00459613 8.67362e-019 
0.0381312 -0.00918251 0.005 
-0.0392817 0.00459621 4.33681e-019 
-0.0391507 -5.02428e-006 0.005 
0.0392811 0.00460035 3.46945e-018 
0.0391507 5.03496e-006 0.005 
-0.03748 0.0135128 -1.30104e-018 
-0.0381192 0.00923329 0.005 
0.0374804 0.0135118 7.37257e-018 
0.0381207 0.00922732 0.005 
-0.0343979 0.0194746 0 
0.0343985 0.0194736 2.1684e-018 
-0.0277565 0.0277562 0.005 
-0.0194736 0.0343985 1.30104e-018 
0.019462 0.0344051 1.30104e-018 
0.0277561 0.0277565 0.005 
-0.0135118 0.0374804 1.73472e-018 
-0.00460061 0.0392811 -4.33681e-019 
-0.00922743 0.0381206 0.005 
0.0045945 0.039282 1.73472e-018 
-3.55157e-005 0.0391572 0.005 
0.0135042 0.0374834 6.07153e-018 
0.00910573 0.0381169 0.005 
-0.0187329 -0.0333071 0.01 
-0.00423177 -0.0380467 0.01 
-0.0106348 -0.0365895 0.01 
0.00439656 -0.0379917 0.01 
2.75393e-005 -0.0381495 0.015 
0.0107259 -0.0365597 0.01 
0.0187506 -0.0332969 0.01 
-0.0242947 -0.0293717 0.01 
-0.0293611 -0.0243069 0.01 
-0.0202566 -0.0303039 0.015 
0.0243069 -0.0293611 0.01 
0.0202686 -0.0302957 0.015 
0.0293717 -0.0242947 0.01 
-0.0332969 -0.0187506 0.01 
-0.0302957 -0.0202686 0.015 
0.033307 -0.018733 0.01 
0.0303039 -0.0202566 0.015 
-0.0365597 -0.0107258 0.01 
-0.0379909 -0.00439433 0.01 
0.0365895 -0.0106348 0.01 
0.038023 -0.00421049 0.01 
-0.0379845 0.00439078 0.01 
-0.0381181 -1.0027e-006 0.015 
0.037991 0.00439557 0.01 
0.038118 6.62836e-006 0.015 
-0.0365594 0.0107267 0.01 
0.0365597 0.0107259 0.01 
-0.033297 0.0187504 0.01 
-0.0293698 0.0242969 0.01 
-0.0302997 0.0202629 0.015 
0.0332969 0.0187506 0.01 
0.0293611 0.0243069 0.01 
0.0302957 0.0202686 0.015 
-0.0243068 0.0293613 0.01 
-0.0187506 0.0332969 0.01 
-0.0202686 0.0302958 0.015 
-0.0107259 0.0365597 0.01 
0.0106348 0.0365895 0.01 
0.0242947 0.0293717 0.01 
0.0187329 0.0333071 0.01 
0.0202566 0.0303039 0.015 
-0.00439656 0.0379917 0.01 
0.00423177 0.0380467 0.01 
-2.75375e-005 0.0381495 0.015 
-0.00980215 -0.0342504 0.02 
-6.59496e-018 -0.0342454 0.02 
0.00984659 -0.0342362 0.02 
-0.0229462 -0.0277598 0.02 
-0.0277533 -0.0229539 0.02 
-0.0153897 -0.0301356 0.02 
-0.018612 -0.0280931 0.025 
-0.00920724 -0.0291288 0.025 
0.0153992 -0.0301305 0.02 
0.00921159 -0.0291269 0.025 
0.0229539 -0.0277533 0.02 
0.018619 -0.0280886 0.025 
0.0277597 -0.0229462 0.02 
-0.0301305 -0.0153992 0.02 
-0.0280885 -0.018619 0.025 
0.0301356 -0.0153897 0.02 
0.028093 -0.0186121 0.025 
-0.034236 -0.00984624 0.02 
-0.0291269 -0.00921148 0.025 
0.0342502 -0.00980265 0.02 
0.0291287 -0.00920729 0.025 
-0.034239 3.86649e-018 0.02 
0.0342396 -3.24649e-019 0.02 
-0.0342358 0.00984607 0.02 
-0.0301313 0.0153979 0.02 
-0.0291271 0.00921094 0.025 
0.0342361 0.00984653 0.02 
0.0301305 0.0153992 0.02 
0.0291269 0.00921156 0.025 
-0.0277583 0.0229482 0.02 
-0.0280908 0.0186158 0.025 
0.0277533 0.0229539 0.02 
0.0280886 0.018619 0.025 
-0.0229537 0.0277536 0.02 
-0.0153992 0.0301305 0.02 
-0.0186189 0.0280887 0.025 
-0.00984658 0.0342362 0.02 
-0.00921156 0.0291269 0.025 
1.79278e-018 0.0342454 0.02 
0.0153897 0.0301356 0.02 
0.00980214 0.0342504 0.02 
0.00920726 0.0291288 0.025 
0.0229462 0.0277598 0.02 
0.018612 0.0280931 0.025 
-0.0187816 -0.0235092 0.03 
-0.00516719 -0.0289803 0.03 
-0.010454 -0.0251868 0.03 
0.00516982 -0.0289798 0.03 
9.33154e-006 -0.0241201 0.03 
0.0104547 -0.0251865 0.03 
0.0187834 -0.0235078 0.03 
-0.0235077 -0.0187834 0.03 
-0.0141696 -0.0190785 0.03 
-0.019078 -0.0141701 0.03 
-0.00979099 -0.0197527 0.035 
4.36952e-008 -0.019268 0.035 
0.0141701 -0.019078 0.03 
0.00979158 -0.0197524 0.035 
0.0235091 -0.0187816 0.03 
0.0190785 -0.0141696 0.03 
-0.0251864 -0.0104547 0.03 
-0.0289795 -0.00516957 0.03 
-0.0197524 -0.00979151 0.035 
-0.00961029 -0.00959522 0.035 
0.00959522 -0.00961029 0.035 
0.0251868 -0.010454 0.03 
0.0197527 -0.00979105 0.035 
0.0289801 -0.00516677 0.03 
-0.0241201 -9.30758e-006 0.03 
-0.0289797 0.00516894 0.03 
-0.019268 -5.12423e-008 0.035 
0.0241201 9.33191e-006 0.03 
0.019268 4.09487e-008 0.035 
0.0289796 0.0051694 0.03 
-0.0251866 0.0104544 0.03 
-0.0190785 0.0141697 0.03 
-0.0197527 0.00979116 0.035 
-0.00959522 0.00961029 0.035 
0.0096103 0.00959522 0.035 
0.0251865 0.0104547 0.03 
0.019078 0.0141701 0.03 
0.0197524 0.00979158 0.035 
-0.0235087 0.0187823 0.03 
-0.0141701 0.019078 0.03 
-0.0187833 0.0235079 0.03 
-0.0104547 0.0251865 0.03 
-0.00979157 0.0197524 0.035 
-9.33156e-006 0.0241201 0.03 
-8.30303e-008 0.019268 0.035 
0.0141696 0.0190785 0.03 
0.010454 0.0251868 0.03 
0.009791 0.0197527 0.035 
0.0235077 0.0187834 0.03 
0.0187816 0.0235092 0.03 
-0.00516936 0.0289797 0.03 
0.00516668 0.0289803 0.03 
3.66445e-006 -0.0143538 0.04 
-0.00549862 -0.0103892 0.04 
-0.0103894 -0.00549853 0.04 
0.00549852 -0.0103894 0.04 
-5.4084e-008 -0.00487269 0.04 
0.0103893 -0.00549861 0.04 
-0.0143538 -3.51726e-006 0.04 
-0.0048727 -4.5516e-009 0.04 
-0.0103892 0.0054986 0.04 
0.00487268 -1.59459e-008 0.04 
-5.37653e-008 0.00487266 0.04 
0.0143538 3.52987e-006 0.04 
0.0103894 0.00549852 0.04 
-0.00549853 0.0103894 0.04 
0.00549859 0.0103893 0.04 
-3.61678e-006 0.0143538 0.04 
-0.00437035 -0.0139783 -0.04 
0.00437045 -0.0139782 -0.04 
-0.0139782 -0.00437044 -0.04 
-0.00483628 -0.00483633 -0.04 
0.00483631 -0.00483631 -0.04 
0.0139783 -0.00437037 -0.04 
-0.0139783 0.00437031 -0.04 
-0.00483634 0.00483632 -0.04 
0.00483628 0.00483636 -0.04 
0.0139782 0.00437049 -0.04 
-0.00437046 0.0139782 -0.04 
0.00437039 0.0139783 -0.04 
-0.0142417 -0.0191698 -0.035 
-0.014822 -0.0248323 -0.03 
9.1205e-006 -0.0241814 -0.035 
-0.00588868 -0.0211705 -0.035 
-0.00434864 -0.0238416 -0.03 
0.00588885 -0.0211706 -0.035 
0.00434896 -0.0238416 -0.03 
0.0142417 -0.01917 -0.035 
0.014822 -0.0248323 -0.03 
-0.0191699 -0.0142416 -0.035 
-0.0248323 -0.014822 -0.03 
-0.00971507 -0.0146295 -0.035 
-0.0146295 -0.00971511 -0.035 
-9.43933e-006 -0.0147577 -0.035 
0.00971497 -0.0146296 -0.035 
0.0191699 -0.0142418 -0.035 
0.0146297 -0.00971492 -0.035 
0.0248323 -0.0148219 -0.03 
-0.0211705 -0.00588885 -0.035 
-0.0241814 -9.1336e-006 -0.035 
-0.0238416 -0.00434897 -0.03 
-0.0147577 9.43682e-006 -0.035 
0.0211706 -0.00588867 -0.035 
0.0147577 -9.43677e-006 -0.035 
0.0241814 9.13298e-006 -0.035 
0.0238416 -0.00434865 -0.03 
-0.0211706 0.00588867 -0.035 
-0.0238416 0.00434865 -0.03 
-0.0146297 0.00971491 -0.035 
0.0211705 0.00588885 -0.035 
0.0146295 0.00971512 -0.035 
0.0238416 0.00434896 -0.03 
-0.0191699 0.0142418 -0.035 
-0.0248323 0.0148219 -0.03 
-0.00971497 0.0146296 -0.035 
-0.0142417 0.01917 -0.035 
9.43912e-006 0.0147577 -0.035 
-0.00588885 0.0211706 -0.035 
0.00971507 0.0146295 -0.035 
0.00588868 0.0211705 -0.035 
0.0191699 0.0142416 -0.035 
0.0142417 0.0191698 -0.035 
0.0248323 0.0148219 -0.03 
-0.014822 0.0248323 -0.03 
-9.13478e-006 0.0241814 -0.035 
-0.00434897 0.0238416 -0.03 
0.00434865 0.0238416 -0.03 
0.0148219 0.0248323 -0.03 
-0.0151179 -0.0295283 -0.025 
-0.0140372 -0.033292 -0.02 
1.1009e-008 -0.0334889 -0.025 
-0.00591792 -0.0311873 -0.025 
-0.00531149 -0.0348654 -0.02 
0.00591796 -0.0311873 -0.025 
0.00531143 -0.0348655 -0.02 
0.0151178 -0.0295284 -0.025 
0.0140392 -0.0332912 -0.02 
-0.0200991 -0.0251094 -0.025 
-0.0251096 -0.020099 -0.025 
-0.0249102 -0.024902 -0.02 
0.020099 -0.0251096 -0.025 
0.0251095 -0.0200991 -0.025 
0.024902 -0.0249102 -0.02 
-0.0295284 -0.0151178 -0.025 
-0.0332912 -0.0140392 -0.02 
0.0295283 -0.0151179 -0.025 
0.0332919 -0.0140372 -0.02 
-0.0311873 -0.00591796 -0.025 
-0.0334889 -9.284e-009 -0.025 
-0.0348655 -0.00531143 -0.02 
0.0311873 -0.00591792 -0.025 
0.0334889 1.01854e-008 -0.025 
0.0348654 -0.00531152 -0.02 
-0.0311873 0.00591792 -0.025 
-0.0348654 0.00531156 -0.02 
0.0311873 0.00591796 -0.025 
0.0348655 0.00531143 -0.02 
-0.0295283 0.0151179 -0.025 
-0.0332918 0.0140375 -0.02 
-0.0251095 0.0200991 -0.025 
0.0295284 0.0151178 -0.025 
0.0251096 0.020099 -0.025 
0.0332912 0.0140392 -0.02 
-0.020099 0.0251096 -0.025 
-0.024902 0.0249102 -0.02 
-0.0151178 0.0295284 -0.025 
-0.00591796 0.0311873 -0.025 
0.00591792 0.0311873 -0.025 
0.0200991 0.0251095 -0.025 
0.0151179 0.0295283 -0.025 
0.0249102 0.024902 -0.02 
-0.0140392 0.0332912 -0.02 
-1.08174e-008 0.0334889 -0.025 
-0.00531143 0.0348655 -0.02 
0.00531149 0.0348654 -0.02 
0.0140372 0.033292 -0.02 
-0.00434713 -0.0378429 -0.015 
0.00434781 -0.0378429 -0.015 
-0.0186744 -0.0330182 -0.015 
-0.0238497 -0.0288867 -0.015 
-0.0106764 -0.035669 -0.015 
-0.0151128 -0.0354539 -0.01 
0.0106781 -0.0356686 -0.015 
0.0186755 -0.0330176 -0.015 
0.0151199 -0.0354509 -0.01 
0.0238504 -0.0288861 -0.015 
-0.0288861 -0.0238504 -0.015 
-0.0330176 -0.0186755 -0.015 
0.0288867 -0.0238497 -0.015 
0.0330182 -0.0186744 -0.015 
-0.0356686 -0.0106781 -0.015 
-0.0354509 -0.0151199 -0.01 
0.035669 -0.0106764 -0.015 
0.0354539 -0.0151128 -0.01 
-0.0378428 -0.00434775 -0.015 
0.0378427 -0.00434744 -0.015 
-0.0378427 0.00434753 -0.015 
-0.0356688 0.0106768 -0.015 
0.0378428 0.00434776 -0.015 
0.0356686 0.0106781 -0.015 
-0.0330177 0.0186752 -0.015 
-0.0354522 0.0151166 -0.01 
0.0330176 0.0186755 -0.015 
0.0354509 0.0151199 -0.01 
-0.0288866 0.0238498 -0.015 
-0.0238504 0.0288861 -0.015 
0.0288861 0.0238504 -0.015 
0.0238497 0.0288867 -0.015 
-0.0186755 0.0330176 -0.015 
-0.0106781 0.0356686 -0.015 
-0.0151199 0.0354509 -0.01 
-0.00434781 0.0378429 -0.015 
0.0106764 0.035669 -0.015 
0.00434713 0.0378429 -0.015 
0.0186744 0.0330182 -0.015 
0.0151128 0.0354539 -0.01 
-0.0135332 -0.0376194 -0.005 
-0.00460412 -0.0391633 -0.005 
0.00460897 -0.0391628 -0.005 
0.0135339 -0.0376191 -0.005 
-0.0194225 -0.0342715 -0.005 
-0.0250354 -0.0302677 -0.005 
-0.0229766 -0.0325372 -7.37257e-018 
0.0194275 -0.0342688 -0.005 
0.0250468 -0.0302579 -0.005 
0.0229878 -0.0325294 0 
-0.0302579 -0.0250467 -0.005 
-0.0342688 -0.0194275 -0.005 
-0.0325294 -0.0229878 -7.37257e-018 
0.0302677 -0.0250354 -0.005 
0.0342715 -0.0194225 -0.005 
0.0325372 -0.0229767 1.30104e-018 
-0.0376191 -0.0135339 -0.005 
0.0376194 -0.0135333 -0.005 
-0.0391628 -0.00460866 -0.005 
0.0391631 -0.00460596 -0.005 
-0.039163 0.00460609 -0.005 
0.0391628 0.00460867 -0.005 
-0.0376192 0.0135338 -0.005 
-0.0342681 0.0194286 -0.005 
0.0376191 0.0135339 -0.005 
0.0342688 0.0194275 -0.005 
-0.0302667 0.0250366 -0.005 
-0.0325336 0.0229818 -4.33681e-019 
-0.0250467 0.030258 -0.005 
0.0302579 0.0250468 -0.005 
0.0250354 0.0302677 -0.005 
0.0325294 0.0229878 8.23994e-018 
-0.0194275 0.0342688 -0.005 
-0.0229877 0.0325294 8.67362e-019 
-0.0135339 0.0376191 -0.005 
-0.00460897 0.0391628 -0.005 
0.00460412 0.0391633 -0.005 
0.0194225 0.0342715 -0.005 
0.0135332 0.0376194 -0.005 
0.0229766 0.0325372 7.80626e-018 
-0.0136958 -0.0378928 0.005 
-0.00445641 -0.0389333 0.005 
0.00453046 -0.0388789 0.005 
0.0137389 -0.0378894 0.005 
-0.0192163 -0.0340828 0.005 
-0.0249228 -0.0301077 0.005 
-0.0147352 -0.0351276 0.01 
0.0192328 -0.0340734 0.005 
0.0147713 -0.0351109 0.01 
0.0249367 -0.0300957 0.005 
-0.0300957 -0.0249367 0.005 
-0.0340734 -0.0192328 0.005 
0.0301077 -0.0249228 0.005 
0.0340828 -0.0192163 0.005 
-0.0378893 -0.0137387 0.005 
-0.0351109 -0.0147713 0.01 
0.0378974 -0.0137177 0.005 
0.0351276 -0.0147352 0.01 
-0.0388788 -0.00453026 0.005 
0.0389006 -0.00438761 0.005 
-0.0388762 0.00452651 0.005 
0.0388788 0.00453026 0.005 
-0.0378901 0.0137407 0.005 
-0.0340732 0.0192332 0.005 
-0.0351117 0.0147695 0.01 
0.0378893 0.0137389 0.005 
0.0340734 0.0192328 0.005 
0.0351109 0.0147713 0.01 
-0.0301058 0.0249251 0.005 
-0.0249365 0.0300959 0.005 
0.0300957 0.0249367 0.005 
0.0249228 0.0301077 0.005 
-0.0192328 0.0340734 0.005 
-0.0137389 0.0378894 0.005 
-0.0147713 0.0351109 0.01 
-0.00453046 0.0388789 0.005 
0.00445641 0.0389333 0.005 
0.0192163 0.0340828 0.005 
0.0136958 0.0378928 0.005 
0.0147352 0.0351276 0.01 
-0.00418808 -0.0379524 0.015 
0.00434533 -0.037894 0.015 
-0.0185099 -0.0329642 0.015 
-0.0233637 -0.0282931 0.015 
-0.010133 -0.0351442 0.015 
-0.0138911 -0.0332693 0.02 
-0.00426199 -0.0341256 0.02 
0.0101978 -0.0351222 0.015 
0.0045278 -0.034157 0.02 
0.0185262 -0.0329553 0.015 
0.0139148 -0.0332587 0.02 
0.0233738 -0.0282844 0.015 
-0.0282844 -0.0233738 0.015 
-0.0329552 -0.0185262 0.015 
-0.0242556 -0.0242681 0.02 
0.0282931 -0.0233637 0.015 
0.0242681 -0.0242556 0.02 
0.0329641 -0.0185103 0.015 
-0.0351222 -0.0101976 0.015 
-0.0332585 -0.0139146 0.02 
0.035144 -0.0101332 0.015 
0.033269 -0.0138916 0.02 
-0.0378941 -0.00434187 0.015 
-0.0341569 -0.00452685 0.02 
0.0379286 -0.00418432 0.015 
0.0341738 -0.00439737 0.02 
-0.0378779 0.00433795 0.015 
-0.0351219 0.0101979 0.015 
-0.0341431 0.00452248 0.02 
0.0378942 0.00434432 0.015 
0.0351222 0.0101977 0.015 
0.0341569 0.00452753 0.02 
-0.0329557 0.0185256 0.015 
-0.0332589 0.0139132 0.02 
0.0329552 0.0185262 0.015 
0.0332585 0.0139148 0.02 
-0.0282914 0.0233658 0.015 
-0.0233736 0.0282846 0.015 
-0.024268 0.0242558 0.02 
0.0282844 0.0233738 0.015 
0.0233637 0.0282931 0.015 
0.0242556 0.0242681 0.02 
-0.0185262 0.0329553 0.015 
-0.0101978 0.0351222 0.015 
-0.0139148 0.0332587 0.02 
-0.00434532 0.037894 0.015 
-0.00452778 0.034157 0.02 
0.010133 0.0351442 0.015 
0.00418808 0.0379524 0.015 
0.00426197 0.0341256 0.02 
0.0185099 0.0329642 0.015 
0.0138911 0.0332693 0.02 
-0.0148231 -0.0291643 0.025 
1.32896e-006 -0.0334592 0.025 
-0.00548274 -0.0299174 0.025 
0.00548578 -0.0299166 0.025 
0.0148303 -0.0291606 0.025 
-0.0192073 -0.0239965 0.025 
-0.0239948 -0.0192094 0.025 
-0.0144453 -0.024219 0.03 
-0.00425635 -0.023736 0.03 
0.0042567 -0.0237358 0.03 
0.0192094 -0.0239948 0.025 
0.0144466 -0.0242181 0.03 
0.0239965 -0.0192073 0.025 
-0.0291605 -0.0148303 0.025 
-0.0242181 -0.0144466 0.03 
0.0291642 -0.0148232 0.025 
0.0242189 -0.0144453 0.03 
-0.0299165 -0.00548563 0.025 
-0.0334558 -3.77196e-007 0.025 
-0.0237358 -0.00425667 0.03 
0.0299174 -0.00548261 0.025 
0.023736 -0.00425635 0.03 
0.033456 1.14382e-006 0.025 
-0.0299167 0.00548486 0.025 
-0.0237359 0.00425648 0.03 
0.0299166 0.00548563 0.025 
0.0237358 0.0042567 0.03 
-0.0291612 0.0148292 0.025 
-0.0239961 0.0192079 0.025 
-0.0242186 0.0144459 0.03 
0.0291605 0.0148303 0.025 
0.0239948 0.0192094 0.025 
0.0242181 0.0144466 0.03 
-0.0192094 0.0239949 0.025 
-0.0148303 0.0291606 0.025 
-0.0144466 0.0242181 0.03 
-0.00548565 0.0299166 0.025 
-0.00425671 0.0237358 0.03 
0.00548258 0.0299174 0.025 
0.00425635 0.023736 0.03 
0.0192073 0.0239965 0.025 
0.0148231 0.0291643 0.025 
0.0144453 0.0242189 0.03 
-1.33318e-006 0.0334592 0.025 
-0.0139622 -0.0187709 0.035 
3.70058e-006 -0.0236837 0.035 
-0.00556241 -0.0203797 0.035 
0.0055627 -0.0203796 0.035 
0.0139626 -0.0187705 0.035 
-0.0187705 -0.0139626 0.035 
-0.00971262 -0.0146267 0.035 
-0.0146266 -0.00971281 0.035 
9.49448e-006 -0.0147516 0.035 
-0.00436724 -0.0139868 0.04 
0.00971281 -0.0146266 0.035 
0.00436729 -0.0139868 0.04 
0.0187708 -0.0139621 0.035 
0.0146267 -0.00971263 0.035 
-0.0203795 -0.00556267 0.035 
-0.0236835 -3.53826e-006 0.035 
-0.0147516 -9.4936e-006 0.035 
-0.0139868 -0.00436731 0.04 
-0.00484176 -0.00484173 0.04 
0.00484177 -0.00484176 0.04 
0.0203797 -0.00556242 0.035 
0.0147516 9.49387e-006 0.035 
0.0139868 -0.00436721 0.04 
0.0236836 3.70048e-006 0.035 
-0.0203797 0.00556254 0.035 
-0.0146267 0.00971265 0.035 
-0.0139868 0.00436724 0.04 
-0.00484174 0.00484174 0.04 
0.00484178 0.00484174 0.04 
0.0203795 0.0055627 0.035 
0.0146266 0.00971282 0.035 
0.0139868 0.00436732 0.04 
-0.0187708 0.0139622 0.035 
-0.00971281 0.0146266 0.035 
-0.0139625 0.0187705 0.035 
-9.4942e-006 0.0147516 0.035 
-0.00556271 0.0203796 0.035 
-0.00436728 0.0139868 0.04 
0.00971262 0.0146267 0.035 
0.00556245 0.0203797 0.035 
0.00436719 0.0139868 0.04 
0.0187704 0.0139626 0.035 
0.0139622 0.0187709 0.035 
-3.72108e-006 0.0236837 0.035 
4 665 274 657 133 
4 643 275 667 134 
4 668 277 661 135 
4 672 278 666 137 
6 2 285 670 138 647 284 
4 675 287 648 141 
4 683 295 678 143 
4 686 296 682 144 
6 6 297 652 145 688 298 
4 692 301 684 147 
4 698 304 693 149 
4 655 306 711 153 
4 711 307 702 153 
6 11 314 709 154 662 313 
4 712 317 664 156 
4 717 318 712 156 
4 19 330 724 329 
5 21 725 161 729 334 
6 22 335 687 162 731 336 
6 735 167 742 350 29 349 
4 30 353 740 354 
5 31 355 741 169 746 
4 706 358 754 171 
5 708 359 360 751 172 
4 710 361 756 173 
5 753 362 713 363 760 
6 36 373 763 175 720 372 
4 764 374 723 176 
5 376 728 178 770 377 
4 771 380 732 180 
4 38 387 780 386 
6 39 389 745 182 782 390 
4 40 395 781 396 
4 755 398 794 187 
6 758 404 43 405 793 188 
4 45 412 803 411 
4 801 413 765 192 
4 47 420 809 419 
4 49 424 811 423 
6 50 425 775 194 812 426 
5 431 815 197 819 432 
4 52 433 818 434 
5 438 820 201 827 439 
4 54 441 825 442 
4 55 443 826 444 
5 830 446 447 834 203 
4 799 454 837 205 
5 61 456 842 207 805 
5 458 844 208 841 457 
4 63 464 849 463 
4 65 468 851 467 
4 67 472 855 471 
4 853 473 817 212 
5 68 823 214 859 475 
4 70 480 865 481 
4 71 482 866 483 
4 72 484 868 485 
4 836 486 872 218 
6 73 488 874 219 870 487 
4 838 491 877 221 
5 76 494 882 873 493 
4 883 499 845 222 
6 78 504 892 224 888 503 
4 81 510 899 509 
4 897 511 854 228 
5 516 904 518 909 517 
5 524 910 526 920 525 
4 87 528 918 529 
4 878 531 923 235 
6 886 540 90 541 932 239 
4 92 546 937 545 
5 942 243 895 549 550 
4 940 551 898 244 
5 557 905 556 558 952 
6 93 559 908 248 950 560 
4 95 564 956 565 
5 566 916 252 958 567 
5 570 921 569 963 571 
4 97 576 930 575 
4 98 578 931 577 
6 100 583 971 256 966 582 
4 103 589 938 588 
4 104 591 941 590 
6 943 595 106 596 986 263 
4 981 598 946 264 
4 112 610 954 609 
4 114 614 957 613 
6 115 615 959 272 1002 616 
4 116 619 1008 621 
4 121 628 984 627 
4 122 630 985 629 
4 124 634 993 633 
4 125 636 994 635 
4 126 638 997 637 
4 128 641 1006 640 
4 12 306 655 319 
4 13 274 654 319 
4 657 130 656 276 
4 658 312 656 130 
4 10 312 658 308 
6 658 130 657 274 13 309 
4 659 276 656 131 
4 660 131 656 312 
4 11 313 660 311 
6 14 277 659 131 660 313 
4 14 321 661 277 
4 14 313 662 321 
4 15 321 662 315 
4 12 320 664 317 
4 17 320 663 278 
4 665 132 654 274 
4 666 278 663 132 
4 666 132 665 281 
4 667 275 642 133 
4 668 134 659 277 
6 134 668 285 2 282 643 
4 670 285 668 135 
4 670 135 669 286 
4 673 136 672 288 
6 17 278 672 136 674 325 
4 674 136 673 331 
4 20 326 674 331 
4 675 137 644 287 
4 676 138 670 286 
4 678 295 676 139 
4 19 329 679 328 
4 680 140 673 288 
4 681 331 673 140 
4 22 332 681 335 
6 681 140 680 296 23 335 
4 682 296 680 141 
6 684 301 8 294 651 142 
4 684 142 683 302 
4 21 334 685 333 
6 685 338 24 302 683 143 
4 25 338 685 334 
4 23 296 686 337 
4 23 337 687 335 
4 26 341 687 337 
4 688 144 682 298 
4 689 144 688 303 
6 144 689 343 26 337 686 
4 691 303 688 145 
4 693 146 692 305 
4 694 147 684 302 
4 695 305 692 147 
6 29 347 695 147 694 339 
4 29 339 696 349 
4 698 148 691 304 
4 30 345 699 353 
4 31 353 699 346 
4 32 355 700 348 
4 29 350 701 347 
4 33 364 702 307 
5 310 702 364 703 358 
5 705 150 704 10 308 
4 706 359 704 150 
5 706 150 705 310 358 
4 11 311 707 314 
4 708 151 704 359 
5 314 707 151 708 361 
5 366 709 314 361 710 
4 34 316 709 366 
6 12 317 712 152 711 306 
6 711 152 713 362 33 307 
6 713 152 712 318 35 363 
6 153 702 310 9 309 655 
4 714 315 662 154 
4 714 154 709 316 
6 714 155 715 322 15 315 
6 716 155 714 316 34 367 
4 35 318 717 370 
5 370 717 327 374 718 
6 156 664 325 16 327 717 
4 719 157 715 324 
6 157 719 330 19 328 671 
5 722 158 721 326 20 
5 721 158 723 374 327 
4 723 158 722 376 
5 727 160 722 20 332 
4 22 336 727 332 
4 728 376 722 160 
5 727 336 380 728 160 
5 336 731 381 732 380 
4 37 381 731 342 
4 733 162 687 341 
4 733 342 731 162 
6 734 163 696 338 25 340 
6 39 388 738 164 737 352 
4 739 352 737 165 
5 391 745 389 739 354 
5 746 168 740 353 31 
4 33 362 753 365 
5 398 752 365 753 407 
4 754 358 703 170 
6 365 752 170 703 364 33 
4 755 170 752 398 
4 755 400 754 170 
5 359 706 171 750 360 
6 399 750 171 754 400 41 
4 756 361 708 172 
6 404 756 172 751 402 43 
6 173 757 368 34 366 710 
4 758 173 756 404 
4 758 406 757 173 
5 410 759 368 757 406 
4 35 371 760 363 
5 408 760 371 761 413 
5 407 753 760 408 44 
5 45 411 762 759 410 
6 370 718 174 761 371 35 
4 764 174 718 374 
4 765 413 761 174 
4 765 174 764 415 
5 176 723 376 377 768 
5 177 769 379 378 726 
6 419 769 177 766 418 47 
4 771 178 728 380 
6 178 771 425 50 421 770 
6 774 180 732 381 37 385 
4 775 425 771 180 
4 775 180 774 429 
6 776 387 38 383 736 181 
5 779 433 52 430 778 
5 53 438 781 780 432 
6 788 185 749 393 40 396 
5 795 186 794 398 407 
4 796 447 794 186 
5 796 186 795 409 60 
5 446 790 187 794 447 
4 797 406 758 188 
5 454 797 188 793 452 
5 797 189 798 410 406 
4 45 410 798 412 
4 799 189 797 454 
5 61 412 798 189 799 
5 801 190 800 408 413 
5 802 60 409 800 190 
4 802 190 801 457 
5 803 191 804 414 411 
5 457 801 192 806 458 
4 813 194 775 429 
5 816 196 813 429 430 
4 52 434 816 430 
4 817 473 813 196 
5 822 198 818 433 435 
6 824 199 784 436 54 442 
5 199 824 479 476 822 
4 834 447 796 202 
4 76 493 835 455 
5 486 834 202 835 493 
4 836 203 834 486 
6 836 488 73 449 830 203 
5 837 454 452 833 204 
4 838 492 837 204 
4 77 456 839 496 
5 802 206 840 455 60 
4 841 206 802 457 
4 76 455 840 494 
5 494 840 206 841 499 
4 845 499 841 208 
5 846 460 459 843 209 
6 79 464 846 209 847 505 
5 853 210 852 469 473 
6 854 511 82 470 852 210 
4 854 210 853 513 
4 84 514 858 475 
5 863 215 862 476 479 
5 495 872 486 493 873 
4 89 495 873 533 
4 874 488 836 218 
4 875 530 874 218 
4 876 219 874 530 
5 878 220 871 490 531 
4 878 532 877 220 
4 879 492 838 221 
4 880 221 877 532 
6 90 497 879 221 880 538 
4 90 540 881 497 
5 500 882 494 499 883 
4 91 534 882 500 
5 882 534 884 533 873 
5 886 542 885 881 540 
4 888 222 845 503 
6 889 543 91 500 883 222 
4 889 222 888 547 
4 893 547 888 224 
6 894 506 79 505 890 225 
6 897 226 896 507 82 511 
5 898 551 508 896 226 
4 898 226 897 553 
4 902 228 854 513 
4 903 553 897 228 
4 93 515 906 559 
5 907 906 514 84 519 
5 907 563 908 559 906 
6 915 231 913 522 86 527 
4 923 531 876 234 
4 97 575 924 537 
5 925 539 532 878 235 
5 98 577 925 235 923 
4 99 539 925 577 
4 90 538 926 541 
6 100 574 927 236 928 581 
4 929 237 927 574 
6 934 546 92 542 886 239 
5 548 935 543 889 547 
5 893 242 939 548 547 
4 940 242 893 551 
4 104 548 939 591 
4 110 599 945 555 
4 93 560 949 554 
4 951 246 950 612 
6 95 565 955 248 908 563 
6 955 614 114 612 950 248 
6 969 587 102 579 931 255 
4 975 626 974 257 
6 975 257 972 593 121 627 
6 121 593 973 261 983 628 
6 111 606 990 264 946 604 
6 0 281 665 133 642 279 
6 0 280 644 137 666 281 
4 0 279 645 280 
4 1 282 646 283 
4 3 289 649 290 
4 4 291 650 292 
4 677 142 651 293 
4 5 293 651 294 
6 146 653 299 8 301 692 
4 653 146 690 300 
4 7 299 653 300 
4 9 308 658 309 
4 9 310 705 308 
4 10 311 660 312 
5 10 704 151 707 311 
6 12 319 654 132 663 320 
4 15 322 671 323 
4 715 157 671 322 
4 16 325 674 326 
4 16 326 721 327 
6 18 328 679 139 676 286 
4 20 331 681 332 
4 24 338 696 339 
4 26 343 697 344 
6 699 345 27 303 691 148 
4 28 347 701 348 
6 701 166 743 356 32 348 
4 34 368 759 367 
5 759 762 369 716 367 
5 375 726 159 724 330 
4 766 177 726 375 
5 179 730 378 379 772 
5 382 736 383 734 340 
4 773 181 736 382 
4 37 384 778 385 
5 778 384 738 388 779 
5 747 391 354 740 168 
4 747 183 783 391 
5 748 184 787 397 392 
4 749 185 786 394 
6 41 400 755 187 790 401 
4 41 401 791 399 
4 42 403 792 402 
4 44 409 795 407 
4 44 408 800 409 
4 804 193 767 414 
6 46 415 764 176 768 416 
6 46 417 806 192 765 415 
4 46 416 808 417 
4 48 421 810 422 
4 784 199 822 435 
4 57 449 831 448 
4 58 451 832 450 
6 204 833 453 75 491 838 
4 59 453 833 452 
5 60 455 835 202 796 
4 62 461 848 462 
4 64 465 850 466 
4 66 469 852 470 
4 856 213 821 474 
5 821 213 860 478 69 
4 829 217 867 477 
4 74 490 871 489 
5 497 881 496 492 879 
4 887 223 847 501 
4 80 507 896 508 
4 900 229 857 512 
4 864 230 912 520 
6 912 230 914 564 95 521 
4 869 233 917 523 
4 89 536 922 535 
6 238 926 539 99 579 933 
4 91 543 935 544 
4 935 240 928 544 
4 944 245 901 552 
5 947 245 944 109 603 
5 554 949 555 553 903 
6 949 246 951 604 110 555 
4 919 253 965 568 
6 101 584 968 254 930 576 
4 972 257 968 584 
4 974 258 969 585 
4 976 259 970 587 
4 980 261 973 592 
6 262 979 594 123 631 988 
4 990 265 982 600 
4 995 267 989 602 
4 111 605 998 606 
4 998 268 991 606 
4 1004 271 996 608 
6 1005 273 961 620 116 621 
4 1009 273 1005 618 
4 1 279 642 275 
4 1 275 643 282 
6 135 661 321 15 323 669 
4 18 286 669 323 
4 3 287 644 280 
4 1 283 645 279 
4 3 280 645 289 
4 4 289 645 283 
4 2 284 646 282 
4 4 283 646 291 
4 5 291 646 284 
4 677 293 647 138 
4 5 284 647 293 
4 679 333 678 139 
6 141 648 290 6 298 682 
4 3 290 648 287 
4 4 292 649 289 
4 6 290 649 297 
4 7 297 649 292 
4 5 294 650 291 
4 7 292 650 299 
4 8 299 650 294 
4 27 343 689 303 
4 690 145 652 300 
4 7 300 652 297 
4 24 339 694 302 
4 28 305 695 347 
6 700 149 693 305 28 348 
4 700 346 698 149 
6 715 155 716 369 36 324 
4 36 372 719 324 
5 330 719 372 720 375 
5 21 329 724 159 725 
4 726 378 725 159 
4 25 334 729 340 
4 730 161 725 378 
5 729 161 730 382 340 
6 733 341 26 344 737 164 
6 37 342 733 164 738 384 
4 735 349 696 163 
4 38 351 734 383 
6 165 697 345 30 354 739 
4 39 352 739 389 
4 32 356 741 355 
4 742 166 701 350 
5 356 743 393 749 394 
6 40 357 742 167 744 395 
4 40 393 743 357 
6 744 167 735 351 38 386 
4 747 168 746 392 
5 748 169 741 356 394 
4 748 392 746 169 
4 42 360 750 399 
4 42 402 751 360 
4 36 369 762 373 
5 373 762 411 414 763 
4 766 375 720 175 
4 767 175 763 414 
4 767 418 766 175 
4 48 416 768 377 
4 49 379 769 419 
4 48 377 770 421 
4 773 382 730 179 
6 179 772 423 51 427 773 
4 49 423 772 379 
5 429 774 385 778 430 
4 777 181 773 427 
4 777 431 776 181 
4 39 390 779 388 
5 433 779 390 782 435 
5 780 781 395 744 386 
5 432 780 387 776 431 
4 783 182 745 391 
4 784 435 782 182 
4 784 182 783 436 
5 183 747 392 397 785 
6 436 783 183 785 441 54 
4 55 441 785 397 
4 786 184 748 394 
6 184 786 437 56 443 787 
4 55 397 787 443 
4 789 437 786 185 
4 789 185 788 439 
5 439 788 396 781 438 
4 57 401 790 446 
4 42 399 791 403 
4 57 448 791 401 
4 58 403 791 448 
4 43 402 792 405 
4 58 450 792 403 
4 59 405 792 450 
4 59 452 793 405 
5 61 805 191 803 412 
4 805 459 804 191 
4 62 458 806 417 
6 418 767 193 807 420 47 
5 193 804 459 460 807 
4 63 420 807 460 
4 48 422 808 416 
4 62 417 808 461 
4 64 461 808 422 
4 49 419 809 424 
4 63 463 809 420 
4 65 424 809 463 
4 50 426 810 421 
4 64 422 810 465 
4 66 465 810 426 
6 51 428 814 195 777 427 
4 51 423 811 428 
4 65 467 811 424 
4 67 428 811 467 
5 469 812 194 813 473 
4 66 426 812 469 
4 815 431 777 195 
4 67 471 814 428 
5 474 815 195 814 471 
5 817 196 816 434 68 
5 68 434 818 198 823 
4 53 432 819 440 
4 53 440 820 438 
5 69 829 201 820 440 
4 821 197 815 474 
5 821 69 440 819 197 
4 823 198 822 476 
4 70 479 824 442 
4 55 444 825 441 
4 70 442 825 480 
4 71 480 825 444 
6 56 437 789 200 828 445 
4 56 445 826 443 
4 71 444 826 482 
4 72 482 826 445 
4 827 200 789 439 
5 484 828 200 827 477 
4 72 445 828 484 
4 829 477 827 201 
4 57 446 830 449 
4 58 448 831 451 
4 73 487 831 449 
4 74 451 831 487 
4 59 450 832 453 
4 74 489 832 451 
6 75 489 871 220 877 491 
4 75 453 832 489 
5 799 205 839 456 61 
5 839 205 837 492 496 
4 77 498 842 456 
5 77 496 881 885 498 
5 842 498 501 843 207 
4 843 459 805 207 
6 208 844 462 78 503 845 
4 62 462 844 458 
4 63 460 846 464 
4 847 209 843 501 
4 64 466 848 461 
4 78 462 848 504 
4 80 504 848 466 
4 65 463 849 468 
4 79 506 849 464 
4 81 468 849 506 
4 66 470 850 465 
4 80 466 850 507 
4 82 507 850 470 
4 67 467 851 472 
4 81 509 851 468 
4 83 472 851 509 
5 513 853 212 858 514 
5 855 211 856 474 471 
6 855 472 83 512 857 211 
4 857 516 856 211 
5 858 212 817 68 475 
4 84 475 859 519 
5 69 478 861 217 829 
5 517 860 213 856 516 
4 85 478 860 517 
4 85 524 861 478 
4 862 214 823 476 
5 859 214 862 520 519 
6 863 481 86 522 864 215 
4 70 481 863 479 
4 864 520 862 215 
4 71 483 865 480 
4 86 481 865 527 
4 87 527 865 483 
4 72 485 866 482 
4 87 483 866 528 
6 88 523 917 232 918 528 
4 88 528 866 485 
5 867 216 868 484 477 
6 868 216 869 523 88 485 
4 869 216 867 525 
5 525 867 217 861 524 
6 218 872 495 89 535 875 
5 530 875 535 922 537 
5 490 870 219 876 531 
4 74 487 870 490 
5 876 530 537 924 234 
5 538 880 532 539 926 
6 89 533 884 236 927 536 
6 884 534 91 544 928 236 
5 498 885 502 887 501 
4 92 502 885 542 
6 92 545 891 223 887 502 
4 890 505 847 223 
4 891 549 890 223 
5 549 891 545 937 550 
5 224 892 508 551 893 
4 80 508 892 504 
4 81 506 894 510 
4 895 225 890 549 
5 895 552 510 894 225 
6 899 227 900 512 83 509 
5 899 510 552 901 227 
4 901 556 900 227 
5 556 901 245 947 558 
6 902 515 93 554 903 228 
5 515 902 513 514 906 
4 904 516 857 229 
4 905 229 900 556 
6 905 557 94 518 904 229 
5 521 907 519 520 912 
4 95 563 907 521 
5 909 910 524 85 517 
5 909 561 911 572 910 
4 94 561 909 518 
6 911 561 94 562 953 251 
4 96 526 910 572 
6 96 572 911 251 962 573 
4 913 230 864 522 
4 914 230 913 566 
5 564 914 566 567 956 
4 87 529 915 527 
4 916 566 913 231 
5 916 231 915 529 568 
5 918 232 919 568 529 
4 919 232 917 570 
4 920 233 869 525 
6 920 526 96 569 921 233 
4 921 570 917 233 
5 923 234 924 575 98 
6 537 922 237 929 576 97 
4 100 582 929 574 
4 101 576 929 582 
4 98 575 930 578 
4 99 577 931 579 
4 932 541 926 238 
4 102 586 933 579 
6 932 580 103 588 934 239 
4 103 580 933 586 
6 240 935 548 104 590 936 
4 100 581 936 583 
4 105 583 936 590 
6 103 586 970 259 978 589 
4 937 546 934 241 
6 550 937 241 938 595 107 
5 940 108 591 939 242 
6 105 590 941 260 980 592 
4 108 598 941 591 
4 107 597 942 550 
4 107 595 943 597 
4 944 552 895 243 
5 944 243 942 597 109 
5 945 244 898 553 555 
5 940 244 945 599 108 
4 110 604 946 599 
4 109 601 948 603 
4 113 558 947 603 
4 113 603 948 609 
4 114 605 951 612 
6 114 613 1000 268 998 605 
6 952 558 113 609 954 247 
4 953 562 952 247 
4 94 557 952 562 
6 953 622 117 623 962 251 
4 117 622 954 610 
4 956 249 955 565 
6 957 249 956 567 118 615 
4 115 613 957 615 
4 118 567 958 624 
4 118 624 959 615 
5 119 624 958 252 965 
5 571 960 253 919 570 
5 119 965 253 960 625 
4 119 625 961 617 
4 120 625 960 571 
4 120 620 961 625 
4 96 573 963 569 
6 964 620 120 571 963 250 
4 964 250 962 623 
4 117 619 964 623 
4 965 252 916 568 
4 968 585 967 254 
4 969 255 967 585 
4 972 584 966 256 
4 973 256 971 592 
4 973 593 972 256 
4 122 626 975 627 
4 976 587 969 258 
6 594 976 258 977 629 123 
4 122 629 977 626 
4 979 259 976 594 
4 979 596 978 259 
4 106 589 978 596 
4 981 600 980 260 
4 982 261 980 600 
4 124 628 983 632 
4 122 627 984 630 
4 124 633 984 628 
4 125 630 984 633 
4 123 629 985 631 
4 125 635 985 630 
4 126 631 985 635 
4 986 596 979 262 
4 987 602 986 262 
4 126 637 988 631 
4 989 601 943 263 
4 989 263 986 602 
4 990 600 981 264 
4 991 265 990 606 
6 991 607 127 634 992 265 
4 124 632 992 634 
4 125 633 993 636 
6 127 607 999 269 1003 639 
4 127 639 993 634 
4 128 636 993 639 
4 126 635 994 638 
4 128 640 994 636 
6 129 608 996 266 997 638 
4 129 638 994 640 
4 996 611 995 266 
6 995 611 112 609 948 267 
4 997 266 987 637 
4 999 607 991 268 
4 1000 616 999 268 
4 1002 269 999 616 
4 1002 618 1001 269 
4 128 639 1003 641 
6 1004 608 129 640 1006 270 
4 1005 621 1004 270 
4 1006 641 1001 270 
6 1007 271 1008 619 117 610 
4 1007 611 996 271 
4 1008 271 1004 621 
4 1009 272 959 617 
4 1009 618 1002 272 
4 667 276 659 134 
4 680 288 675 141 
4 931 578 967 255 
4 108 599 946 598 
4 112 611 1007 610 
4 116 620 964 619 
4 13 319 655 309 
4 17 325 664 320 
4 667 133 657 276 
4 18 323 671 328 
4 675 288 672 137 
4 677 138 676 295 
4 21 333 679 329 
4 683 142 677 295 
4 685 143 678 333 
4 691 145 690 304 
4 693 304 690 146 
4 27 345 697 343 
4 699 148 698 346 
4 31 346 700 355 
4 735 163 734 351 
4 697 165 737 344 
4 743 166 742 357 
4 927 237 922 536 
4 933 580 932 238 
4 936 581 928 240 
4 938 241 934 588 
4 950 246 949 560 
4 954 622 953 247 
4 957 614 955 249 
4 963 573 962 250 
4 101 582 966 584 
4 967 578 930 254 
4 102 587 970 586 
4 105 592 971 583 
4 974 585 968 257 
4 977 258 974 626 
4 106 595 938 589 
4 981 260 941 598 
4 983 261 982 632 
4 988 637 987 262 
4 109 597 943 601 
4 992 632 982 265 
4 995 602 987 266 
4 989 267 948 601 
4 111 604 951 605 
4 1003 269 1001 641 
4 1005 270 1001 618 
4 115 616 1000 613 
4 119 617 959 624 
4 961 273 1009 617 
