ply
format ascii 1.0
comment VTK generated PLY File
obj_info vtkPolyData points and polygons: vtk4.0
element vertex 842
property float x
property float y
property float z
element face 420
property list uchar int vertex_indices
end_header
-0.105 -0.00025 0 
-0.1045 -0.00025 0 
-0.104 -0.00025 0 
-0.1035 -0.00025 0 
-0.103 -0.00025 0 
-0.1025 -0.00025 0 
-0.102 -0.00025 0 
-0.1015 -0.00025 0 
-0.101 -0.00025 0 
-0.1005 -0.00025 0 
-0.1 -0.00025 0 
-0.0995 -0.00025 0 
-0.099 -0.00025 0 
-0.0985 -0.00025 0 
-0.098 -0.00025 0 
-0.0975 -0.00025 0 
-0.097 -0.00025 0 
-0.0965 -0.00025 0 
-0.096 -0.00025 0 
-0.0955 -0.00025 0 
-0.095 -0.00025 0 
-0.0945 -0.00025 0 
-0.094 -0.00025 0 
-0.0935 -0.00025 0 
-0.093 -0.00025 0 
-0.0925 -0.00025 0 
-0.092 -0.00025 0 
-0.0915 -0.00025 0 
-0.091 -0.00025 0 
-0.0905 -0.00025 0 
-0.09 -0.00025 0 
-0.0895 -0.00025 0 
-0.089 -0.00025 0 
-0.0885 -0.00025 0 
-0.088 -0.00025 0 
-0.0875 -0.00025 0 
-0.087 -0.00025 0 
-0.0865 -0.00025 0 
-0.086 -0.00025 0 
-0.0855 -0.00025 0 
-0.085 -0.00025 0 
-0.0845 -0.00025 0 
-0.084 -0.00025 0 
-0.0835 -0.00025 0 
-0.083 -0.00025 0 
-0.0825 -0.00025 0 
-0.082 -0.00025 0 
-0.0815 -0.00025 0 
-0.081 -0.00025 0 
-0.0805 -0.00025 0 
-0.08 -0.00025 0 
-0.0795 -0.00025 0 
-0.079 -0.00025 0 
-0.0785 -0.00025 0 
-0.078 -0.00025 0 
-0.0775 -0.00025 0 
-0.077 -0.00025 0 
-0.0765 -0.00025 0 
-0.076 -0.00025 0 
-0.0755 -0.00025 0 
-0.075 -0.00025 0 
-0.0745 -0.00025 0 
-0.074 -0.00025 0 
-0.0735 -0.00025 0 
-0.073 -0.00025 0 
-0.0725 -0.00025 0 
-0.072 -0.00025 0 
-0.0715 -0.00025 0 
-0.071 -0.00025 0 
-0.0705 -0.00025 0 
-0.07 -0.00025 0 
-0.0695 -0.00025 0 
-0.069 -0.00025 0 
-0.0685 -0.00025 0 
-0.068 -0.00025 0 
-0.0675 -0.00025 0 
-0.067 -0.00025 0 
-0.0665 -0.00025 0 
-0.066 -0.00025 0 
-0.0655 -0.00025 0 
-0.065 -0.00025 0 
-0.0645 -0.00025 0 
-0.064 -0.00025 0 
-0.0635 -0.00025 0 
-0.063 -0.00025 0 
-0.0625 -0.00025 0 
-0.062 -0.00025 0 
-0.0615 -0.00025 0 
-0.061 -0.00025 0 
-0.0605 -0.00025 0 
-0.06 -0.00025 0 
-0.0595 -0.00025 0 
-0.059 -0.00025 0 
-0.0585 -0.00025 0 
-0.058 -0.00025 0 
-0.0575 -0.00025 0 
-0.057 -0.00025 0 
-0.0565 -0.00025 0 
-0.056 -0.00025 0 
-0.0555 -0.00025 0 
-0.055 -0.00025 0 
-0.0545 -0.00025 0 
-0.054 -0.00025 0 
-0.0535 -0.00025 0 
-0.053 -0.00025 0 
-0.0525 -0.00025 0 
-0.052 -0.00025 0 
-0.0515 -0.00025 0 
-0.051 -0.00025 0 
-0.0505 -0.00025 0 
-0.05 -0.00025 0 
-0.0495 -0.00025 0 
-0.049 -0.00025 0 
-0.0485 -0.00025 0 
-0.048 -0.00025 0 
-0.0475 -0.00025 0 
-0.047 -0.00025 0 
-0.0465 -0.00025 0 
-0.046 -0.00025 0 
-0.0455 -0.00025 0 
-0.045 -0.00025 0 
-0.0445 -0.00025 0 
-0.044 -0.00025 0 
-0.0435 -0.00025 0 
-0.043 -0.00025 0 
-0.0425 -0.00025 0 
-0.042 -0.00025 0 
-0.0415 -0.00025 0 
-0.041 -0.00025 0 
-0.0405 -0.00025 0 
-0.04 -0.00025 0 
-0.0395 -0.00025 0 
-0.039 -0.00025 0 
-0.0385 -0.00025 0 
-0.038 -0.00025 0 
-0.0375 -0.00025 0 
-0.037 -0.00025 0 
-0.0365 -0.00025 0 
-0.036 -0.00025 0 
-0.0355 -0.00025 0 
-0.035 -0.00025 0 
-0.0345 -0.00025 0 
-0.034 -0.00025 0 
-0.0335 -0.00025 0 
-0.033 -0.00025 0 
-0.0325 -0.00025 0 
-0.032 -0.00025 0 
-0.0315 -0.00025 0 
-0.031 -0.00025 0 
-0.0305 -0.00025 0 
-0.03 -0.00025 0 
-0.0295 -0.00025 0 
-0.029 -0.00025 0 
-0.0285 -0.00025 0 
-0.028 -0.00025 0 
-0.0275 -0.00025 0 
-0.027 -0.00025 0 
-0.0265 -0.00025 0 
-0.026 -0.00025 0 
-0.0255 -0.00025 0 
-0.025 -0.00025 0 
-0.0245 -0.00025 0 
-0.024 -0.00025 0 
-0.0235 -0.00025 0 
-0.023 -0.00025 0 
-0.0225 -0.00025 0 
-0.022 -0.00025 0 
-0.0215 -0.00025 0 
-0.021 -0.00025 0 
-0.0205 -0.00025 0 
-0.02 -0.00025 0 
-0.0195 -0.00025 0 
-0.019 -0.00025 0 
-0.0185 -0.00025 0 
-0.018 -0.00025 0 
-0.0175 -0.00025 0 
-0.017 -0.00025 0 
-0.0165 -0.00025 0 
-0.016 -0.00025 0 
-0.0155 -0.00025 0 
-0.015 -0.00025 0 
-0.0145 -0.00025 0 
-0.014 -0.00025 0 
-0.0135 -0.00025 0 
-0.013 -0.00025 0 
-0.0125 -0.00025 0 
-0.012 -0.00025 0 
-0.0115 -0.00025 0 
-0.011 -0.00025 0 
-0.0105 -0.00025 0 
-0.01 -0.00025 0 
-0.0095 -0.00025 0 
-0.009 -0.00025 0 
-0.0085 -0.00025 0 
-0.008 -0.00025 0 
-0.0075 -0.00025 0 
-0.007 -0.00025 0 
-0.0065 -0.00025 0 
-0.006 -0.00025 0 
-0.0055 -0.00025 0 
-0.005 -0.00025 0 
-0.0045 -0.00025 0 
-0.004 -0.00025 0 
-0.0035 -0.00025 0 
-0.003 -0.00025 0 
-0.0025 -0.00025 0 
-0.002 -0.00025 0 
-0.0015 -0.00025 0 
-0.001 -0.00025 0 
-0.0005 -0.00025 0 
0 -0.00025 0 
0.0005 -0.00025 0 
0.001 -0.00025 0 
0.0015 -0.00025 0 
0.002 -0.00025 0 
0.0025 -0.00025 0 
0.003 -0.00025 0 
0.0035 -0.00025 0 
0.004 -0.00025 0 
0.0045 -0.00025 0 
0.005 -0.00025 0 
0.0055 -0.00025 0 
0.006 -0.00025 0 
0.0065 -0.00025 0 
0.007 -0.00025 0 
0.0075 -0.00025 0 
0.008 -0.00025 0 
0.0085 -0.00025 0 
0.009 -0.00025 0 
0.0095 -0.00025 0 
0.01 -0.00025 0 
0.0105 -0.00025 0 
0.011 -0.00025 0 
0.0115 -0.00025 0 
0.012 -0.00025 0 
0.0125 -0.00025 0 
0.013 -0.00025 0 
0.0135 -0.00025 0 
0.014 -0.00025 0 
0.0145 -0.00025 0 
0.015 -0.00025 0 
0.0155 -0.00025 0 
0.016 -0.00025 0 
0.0165 -0.00025 0 
0.017 -0.00025 0 
0.0175 -0.00025 0 
0.018 -0.00025 0 
0.0185 -0.00025 0 
0.019 -0.00025 0 
0.0195 -0.00025 0 
0.02 -0.00025 0 
0.0205 -0.00025 0 
0.021 -0.00025 0 
0.0215 -0.00025 0 
0.022 -0.00025 0 
0.0225 -0.00025 0 
0.023 -0.00025 0 
0.0235 -0.00025 0 
0.024 -0.00025 0 
0.0245 -0.00025 0 
0.025 -0.00025 0 
0.0255 -0.00025 0 
0.026 -0.00025 0 
0.0265 -0.00025 0 
0.027 -0.00025 0 
0.0275 -0.00025 0 
0.028 -0.00025 0 
0.0285 -0.00025 0 
0.029 -0.00025 0 
0.0295 -0.00025 0 
0.03 -0.00025 0 
0.0305 -0.00025 0 
0.031 -0.00025 0 
0.0315 -0.00025 0 
0.032 -0.00025 0 
0.0325 -0.00025 0 
0.033 -0.00025 0 
0.0335 -0.00025 0 
0.034 -0.00025 0 
0.0345 -0.00025 0 
0.035 -0.00025 0 
0.0355 -0.00025 0 
0.036 -0.00025 0 
0.0365 -0.00025 0 
0.037 -0.00025 0 
0.0375 -0.00025 0 
0.038 -0.00025 0 
0.0385 -0.00025 0 
0.039 -0.00025 0 
0.0395 -0.00025 0 
0.04 -0.00025 0 
0.0405 -0.00025 0 
0.041 -0.00025 0 
0.0415 -0.00025 0 
0.042 -0.00025 0 
0.0425 -0.00025 0 
0.043 -0.00025 0 
0.0435 -0.00025 0 
0.044 -0.00025 0 
0.0445 -0.00025 0 
0.045 -0.00025 0 
0.0455 -0.00025 0 
0.046 -0.00025 0 
0.0465 -0.00025 0 
0.047 -0.00025 0 
0.0475 -0.00025 0 
0.048 -0.00025 0 
0.0485 -0.00025 0 
0.049 -0.00025 0 
0.0495 -0.00025 0 
0.05 -0.00025 0 
0.0505 -0.00025 0 
0.051 -0.00025 0 
0.0515 -0.00025 0 
0.052 -0.00025 0 
0.0525 -0.00025 0 
0.053 -0.00025 0 
0.0535 -0.00025 0 
0.054 -0.00025 0 
0.0545 -0.00025 0 
0.055 -0.00025 0 
0.0555 -0.00025 0 
0.056 -0.00025 0 
0.0565 -0.00025 0 
0.057 -0.00025 0 
0.0575 -0.00025 0 
0.058 -0.00025 0 
0.0585 -0.00025 0 
0.059 -0.00025 0 
0.0595 -0.00025 0 
0.06 -0.00025 0 
0.0605 -0.00025 0 
0.061 -0.00025 0 
0.0615 -0.00025 0 
0.062 -0.00025 0 
0.0625 -0.00025 0 
0.063 -0.00025 0 
0.0635 -0.00025 0 
0.064 -0.00025 0 
0.0645 -0.00025 0 
0.065 -0.00025 0 
0.0655 -0.00025 0 
0.066 -0.00025 0 
0.0665 -0.00025 0 
0.067 -0.00025 0 
0.0675 -0.00025 0 
0.068 -0.00025 0 
0.0685 -0.00025 0 
0.069 -0.00025 0 
0.0695 -0.00025 0 
0.07 -0.00025 0 
0.0705 -0.00025 0 
0.071 -0.00025 0 
0.0715 -0.00025 0 
0.072 -0.00025 0 
0.0725 -0.00025 0 
0.073 -0.00025 0 
0.0735 -0.00025 0 
0.074 -0.00025 0 
0.0745 -0.00025 0 
0.075 -0.00025 0 
0.0755 -0.00025 0 
0.076 -0.00025 0 
0.0765 -0.00025 0 
0.077 -0.00025 0 
0.0775 -0.00025 0 
0.078 -0.00025 0 
0.0785 -0.00025 0 
0.079 -0.00025 0 
0.0795 -0.00025 0 
0.08 -0.00025 0 
0.0805 -0.00025 0 
0.081 -0.00025 0 
0.0815 -0.00025 0 
0.082 -0.00025 0 
0.0825 -0.00025 0 
0.083 -0.00025 0 
0.0835 -0.00025 0 
0.084 -0.00025 0 
0.0845 -0.00025 0 
0.085 -0.00025 0 
0.0855 -0.00025 0 
0.086 -0.00025 0 
0.0865 -0.00025 0 
0.087 -0.00025 0 
0.0875 -0.00025 0 
0.088 -0.00025 0 
0.0885 -0.00025 0 
0.089 -0.00025 0 
0.0895 -0.00025 0 
0.09 -0.00025 0 
0.0905 -0.00025 0 
0.091 -0.00025 0 
0.0915 -0.00025 0 
0.092 -0.00025 0 
0.0925 -0.00025 0 
0.093 -0.00025 0 
0.0935 -0.00025 0 
0.094 -0.00025 0 
0.0945 -0.00025 0 
0.095 -0.00025 0 
0.0955 -0.00025 0 
0.096 -0.00025 0 
0.0965 -0.00025 0 
0.097 -0.00025 0 
0.0975 -0.00025 0 
0.098 -0.00025 0 
0.0985 -0.00025 0 
0.099 -0.00025 0 
0.0995 -0.00025 0 
0.1 -0.00025 0 
0.1005 -0.00025 0 
0.101 -0.00025 0 
0.1015 -0.00025 0 
0.102 -0.00025 0 
0.1025 -0.00025 0 
0.103 -0.00025 0 
0.1035 -0.00025 0 
0.104 -0.00025 0 
0.1045 -0.00025 0 
0.105 -0.00025 0 
-0.105 0.00025 0 
-0.1045 0.00025 0 
-0.104 0.00025 0 
-0.1035 0.00025 0 
-0.103 0.00025 0 
-0.1025 0.00025 0 
-0.102 0.00025 0 
-0.1015 0.00025 0 
-0.101 0.00025 0 
-0.1005 0.00025 0 
-0.1 0.00025 0 
-0.0995 0.00025 0 
-0.099 0.00025 0 
-0.0985 0.00025 0 
-0.098 0.00025 0 
-0.0975 0.00025 0 
-0.097 0.00025 0 
-0.0965 0.00025 0 
-0.096 0.00025 0 
-0.0955 0.00025 0 
-0.095 0.00025 0 
-0.0945 0.00025 0 
-0.094 0.00025 0 
-0.0935 0.00025 0 
-0.093 0.00025 0 
-0.0925 0.00025 0 
-0.092 0.00025 0 
-0.0915 0.00025 0 
-0.091 0.00025 0 
-0.0905 0.00025 0 
-0.09 0.00025 0 
-0.0895 0.00025 0 
-0.089 0.00025 0 
-0.0885 0.00025 0 
-0.088 0.00025 0 
-0.0875 0.00025 0 
-0.087 0.00025 0 
-0.0865 0.00025 0 
-0.086 0.00025 0 
-0.0855 0.00025 0 
-0.085 0.00025 0 
-0.0845 0.00025 0 
-0.084 0.00025 0 
-0.0835 0.00025 0 
-0.083 0.00025 0 
-0.0825 0.00025 0 
-0.082 0.00025 0 
-0.0815 0.00025 0 
-0.081 0.00025 0 
-0.0805 0.00025 0 
-0.08 0.00025 0 
-0.0795 0.00025 0 
-0.079 0.00025 0 
-0.0785 0.00025 0 
-0.078 0.00025 0 
-0.0775 0.00025 0 
-0.077 0.00025 0 
-0.0765 0.00025 0 
-0.076 0.00025 0 
-0.0755 0.00025 0 
-0.075 0.00025 0 
-0.0745 0.00025 0 
-0.074 0.00025 0 
-0.0735 0.00025 0 
-0.073 0.00025 0 
-0.0725 0.00025 0 
-0.072 0.00025 0 
-0.0715 0.00025 0 
-0.071 0.00025 0 
-0.0705 0.00025 0 
-0.07 0.00025 0 
-0.0695 0.00025 0 
-0.069 0.00025 0 
-0.0685 0.00025 0 
-0.068 0.00025 0 
-0.0675 0.00025 0 
-0.067 0.00025 0 
-0.0665 0.00025 0 
-0.066 0.00025 0 
-0.0655 0.00025 0 
-0.065 0.00025 0 
-0.0645 0.00025 0 
-0.064 0.00025 0 
-0.0635 0.00025 0 
-0.063 0.00025 0 
-0.0625 0.00025 0 
-0.062 0.00025 0 
-0.0615 0.00025 0 
-0.061 0.00025 0 
-0.0605 0.00025 0 
-0.06 0.00025 0 
-0.0595 0.00025 0 
-0.059 0.00025 0 
-0.0585 0.00025 0 
-0.058 0.00025 0 
-0.0575 0.00025 0 
-0.057 0.00025 0 
-0.0565 0.00025 0 
-0.056 0.00025 0 
-0.0555 0.00025 0 
-0.055 0.00025 0 
-0.0545 0.00025 0 
-0.054 0.00025 0 
-0.0535 0.00025 0 
-0.053 0.00025 0 
-0.0525 0.00025 0 
-0.052 0.00025 0 
-0.0515 0.00025 0 
-0.051 0.00025 0 
-0.0505 0.00025 0 
-0.05 0.00025 0 
-0.0495 0.00025 0 
-0.049 0.00025 0 
-0.0485 0.00025 0 
-0.048 0.00025 0 
-0.0475 0.00025 0 
-0.047 0.00025 0 
-0.0465 0.00025 0 
-0.046 0.00025 0 
-0.0455 0.00025 0 
-0.045 0.00025 0 
-0.0445 0.00025 0 
-0.044 0.00025 0 
-0.0435 0.00025 0 
-0.043 0.00025 0 
-0.0425 0.00025 0 
-0.042 0.00025 0 
-0.0415 0.00025 0 
-0.041 0.00025 0 
-0.0405 0.00025 0 
-0.04 0.00025 0 
-0.0395 0.00025 0 
-0.039 0.00025 0 
-0.0385 0.00025 0 
-0.038 0.00025 0 
-0.0375 0.00025 0 
-0.037 0.00025 0 
-0.0365 0.00025 0 
-0.036 0.00025 0 
-0.0355 0.00025 0 
-0.035 0.00025 0 
-0.0345 0.00025 0 
-0.034 0.00025 0 
-0.0335 0.00025 0 
-0.033 0.00025 0 
-0.0325 0.00025 0 
-0.032 0.00025 0 
-0.0315 0.00025 0 
-0.031 0.00025 0 
-0.0305 0.00025 0 
-0.03 0.00025 0 
-0.0295 0.00025 0 
-0.029 0.00025 0 
-0.0285 0.00025 0 
-0.028 0.00025 0 
-0.0275 0.00025 0 
-0.027 0.00025 0 
-0.0265 0.00025 0 
-0.026 0.00025 0 
-0.0255 0.00025 0 
-0.025 0.00025 0 
-0.0245 0.00025 0 
-0.024 0.00025 0 
-0.0235 0.00025 0 
-0.023 0.00025 0 
-0.0225 0.00025 0 
-0.022 0.00025 0 
-0.0215 0.00025 0 
-0.021 0.00025 0 
-0.0205 0.00025 0 
-0.02 0.00025 0 
-0.0195 0.00025 0 
-0.019 0.00025 0 
-0.0185 0.00025 0 
-0.018 0.00025 0 
-0.0175 0.00025 0 
-0.017 0.00025 0 
-0.0165 0.00025 0 
-0.016 0.00025 0 
-0.0155 0.00025 0 
-0.015 0.00025 0 
-0.0145 0.00025 0 
-0.014 0.00025 0 
-0.0135 0.00025 0 
-0.013 0.00025 0 
-0.0125 0.00025 0 
-0.012 0.00025 0 
-0.0115 0.00025 0 
-0.011 0.00025 0 
-0.0105 0.00025 0 
-0.01 0.00025 0 
-0.0095 0.00025 0 
-0.009 0.00025 0 
-0.0085 0.00025 0 
-0.008 0.00025 0 
-0.0075 0.00025 0 
-0.007 0.00025 0 
-0.0065 0.00025 0 
-0.006 0.00025 0 
-0.0055 0.00025 0 
-0.005 0.00025 0 
-0.0045 0.00025 0 
-0.004 0.00025 0 
-0.0035 0.00025 0 
-0.003 0.00025 0 
-0.0025 0.00025 0 
-0.002 0.00025 0 
-0.0015 0.00025 0 
-0.001 0.00025 0 
-0.0005 0.00025 0 
0 0.00025 0 
0.0005 0.00025 0 
0.001 0.00025 0 
0.0015 0.00025 0 
0.002 0.00025 0 
0.0025 0.00025 0 
0.003 0.00025 0 
0.0035 0.00025 0 
0.004 0.00025 0 
0.0045 0.00025 0 
0.005 0.00025 0 
0.0055 0.00025 0 
0.006 0.00025 0 
0.0065 0.00025 0 
0.007 0.00025 0 
0.0075 0.00025 0 
0.008 0.00025 0 
0.0085 0.00025 0 
0.009 0.00025 0 
0.0095 0.00025 0 
0.01 0.00025 0 
0.0105 0.00025 0 
0.011 0.00025 0 
0.0115 0.00025 0 
0.012 0.00025 0 
0.0125 0.00025 0 
0.013 0.00025 0 
0.0135 0.00025 0 
0.014 0.00025 0 
0.0145 0.00025 0 
0.015 0.00025 0 
0.0155 0.00025 0 
0.016 0.00025 0 
0.0165 0.00025 0 
0.017 0.00025 0 
0.0175 0.00025 0 
0.018 0.00025 0 
0.0185 0.00025 0 
0.019 0.00025 0 
0.0195 0.00025 0 
0.02 0.00025 0 
0.0205 0.00025 0 
0.021 0.00025 0 
0.0215 0.00025 0 
0.022 0.00025 0 
0.0225 0.00025 0 
0.023 0.00025 0 
0.0235 0.00025 0 
0.024 0.00025 0 
0.0245 0.00025 0 
0.025 0.00025 0 
0.0255 0.00025 0 
0.026 0.00025 0 
0.0265 0.00025 0 
0.027 0.00025 0 
0.0275 0.00025 0 
0.028 0.00025 0 
0.0285 0.00025 0 
0.029 0.00025 0 
0.0295 0.00025 0 
0.03 0.00025 0 
0.0305 0.00025 0 
0.031 0.00025 0 
0.0315 0.00025 0 
0.032 0.00025 0 
0.0325 0.00025 0 
0.033 0.00025 0 
0.0335 0.00025 0 
0.034 0.00025 0 
0.0345 0.00025 0 
0.035 0.00025 0 
0.0355 0.00025 0 
0.036 0.00025 0 
0.0365 0.00025 0 
0.037 0.00025 0 
0.0375 0.00025 0 
0.038 0.00025 0 
0.0385 0.00025 0 
0.039 0.00025 0 
0.0395 0.00025 0 
0.04 0.00025 0 
0.0405 0.00025 0 
0.041 0.00025 0 
0.0415 0.00025 0 
0.042 0.00025 0 
0.0425 0.00025 0 
0.043 0.00025 0 
0.0435 0.00025 0 
0.044 0.00025 0 
0.0445 0.00025 0 
0.045 0.00025 0 
0.0455 0.00025 0 
0.046 0.00025 0 
0.0465 0.00025 0 
0.047 0.00025 0 
0.0475 0.00025 0 
0.048 0.00025 0 
0.0485 0.00025 0 
0.049 0.00025 0 
0.0495 0.00025 0 
0.05 0.00025 0 
0.0505 0.00025 0 
0.051 0.00025 0 
0.0515 0.00025 0 
0.052 0.00025 0 
0.0525 0.00025 0 
0.053 0.00025 0 
0.0535 0.00025 0 
0.054 0.00025 0 
0.0545 0.00025 0 
0.055 0.00025 0 
0.0555 0.00025 0 
0.056 0.00025 0 
0.0565 0.00025 0 
0.057 0.00025 0 
0.0575 0.00025 0 
0.058 0.00025 0 
0.0585 0.00025 0 
0.059 0.00025 0 
0.0595 0.00025 0 
0.06 0.00025 0 
0.0605 0.00025 0 
0.061 0.00025 0 
0.0615 0.00025 0 
0.062 0.00025 0 
0.0625 0.00025 0 
0.063 0.00025 0 
0.0635 0.00025 0 
0.064 0.00025 0 
0.0645 0.00025 0 
0.065 0.00025 0 
0.0655 0.00025 0 
0.066 0.00025 0 
0.0665 0.00025 0 
0.067 0.00025 0 
0.0675 0.00025 0 
0.068 0.00025 0 
0.0685 0.00025 0 
0.069 0.00025 0 
0.0695 0.00025 0 
0.07 0.00025 0 
0.0705 0.00025 0 
0.071 0.00025 0 
0.0715 0.00025 0 
0.072 0.00025 0 
0.0725 0.00025 0 
0.073 0.00025 0 
0.0735 0.00025 0 
0.074 0.00025 0 
0.0745 0.00025 0 
0.075 0.00025 0 
0.0755 0.00025 0 
0.076 0.00025 0 
0.0765 0.00025 0 
0.077 0.00025 0 
0.0775 0.00025 0 
0.078 0.00025 0 
0.0785 0.00025 0 
0.079 0.00025 0 
0.0795 0.00025 0 
0.08 0.00025 0 
0.0805 0.00025 0 
0.081 0.00025 0 
0.0815 0.00025 0 
0.082 0.00025 0 
0.0825 0.00025 0 
0.083 0.00025 0 
0.0835 0.00025 0 
0.084 0.00025 0 
0.0845 0.00025 0 
0.085 0.00025 0 
0.0855 0.00025 0 
0.086 0.00025 0 
0.0865 0.00025 0 
0.087 0.00025 0 
0.0875 0.00025 0 
0.088 0.00025 0 
0.0885 0.00025 0 
0.089 0.00025 0 
0.0895 0.00025 0 
0.09 0.00025 0 
0.0905 0.00025 0 
0.091 0.00025 0 
0.0915 0.00025 0 
0.092 0.00025 0 
0.0925 0.00025 0 
0.093 0.00025 0 
0.0935 0.00025 0 
0.094 0.00025 0 
0.0945 0.00025 0 
0.095 0.00025 0 
0.0955 0.00025 0 
0.096 0.00025 0 
0.0965 0.00025 0 
0.097 0.00025 0 
0.0975 0.00025 0 
0.098 0.00025 0 
0.0985 0.00025 0 
0.099 0.00025 0 
0.0995 0.00025 0 
0.1 0.00025 0 
0.1005 0.00025 0 
0.101 0.00025 0 
0.1015 0.00025 0 
0.102 0.00025 0 
0.1025 0.00025 0 
0.103 0.00025 0 
0.1035 0.00025 0 
0.104 0.00025 0 
0.1045 0.00025 0 
0.105 0.00025 0 
4 0 421 422 1 
4 1 422 423 2 
4 2 423 424 3 
4 3 424 425 4 
4 4 425 426 5 
4 5 426 427 6 
4 6 427 428 7 
4 7 428 429 8 
4 8 429 430 9 
4 9 430 431 10 
4 10 431 432 11 
4 11 432 433 12 
4 12 433 434 13 
4 13 434 435 14 
4 14 435 436 15 
4 15 436 437 16 
4 16 437 438 17 
4 17 438 439 18 
4 18 439 440 19 
4 19 440 441 20 
4 20 441 442 21 
4 21 442 443 22 
4 22 443 444 23 
4 23 444 445 24 
4 24 445 446 25 
4 25 446 447 26 
4 26 447 448 27 
4 27 448 449 28 
4 28 449 450 29 
4 29 450 451 30 
4 30 451 452 31 
4 31 452 453 32 
4 32 453 454 33 
4 33 454 455 34 
4 34 455 456 35 
4 35 456 457 36 
4 36 457 458 37 
4 37 458 459 38 
4 38 459 460 39 
4 39 460 461 40 
4 40 461 462 41 
4 41 462 463 42 
4 42 463 464 43 
4 43 464 465 44 
4 44 465 466 45 
4 45 466 467 46 
4 46 467 468 47 
4 47 468 469 48 
4 48 469 470 49 
4 49 470 471 50 
4 50 471 472 51 
4 51 472 473 52 
4 52 473 474 53 
4 53 474 475 54 
4 54 475 476 55 
4 55 476 477 56 
4 56 477 478 57 
4 57 478 479 58 
4 58 479 480 59 
4 59 480 481 60 
4 60 481 482 61 
4 61 482 483 62 
4 62 483 484 63 
4 63 484 485 64 
4 64 485 486 65 
4 65 486 487 66 
4 66 487 488 67 
4 67 488 489 68 
4 68 489 490 69 
4 69 490 491 70 
4 70 491 492 71 
4 71 492 493 72 
4 72 493 494 73 
4 73 494 495 74 
4 74 495 496 75 
4 75 496 497 76 
4 76 497 498 77 
4 77 498 499 78 
4 78 499 500 79 
4 79 500 501 80 
4 80 501 502 81 
4 81 502 503 82 
4 82 503 504 83 
4 83 504 505 84 
4 84 505 506 85 
4 85 506 507 86 
4 86 507 508 87 
4 87 508 509 88 
4 88 509 510 89 
4 89 510 511 90 
4 90 511 512 91 
4 91 512 513 92 
4 92 513 514 93 
4 93 514 515 94 
4 94 515 516 95 
4 95 516 517 96 
4 96 517 518 97 
4 97 518 519 98 
4 98 519 520 99 
4 99 520 521 100 
4 100 521 522 101 
4 101 522 523 102 
4 102 523 524 103 
4 103 524 525 104 
4 104 525 526 105 
4 105 526 527 106 
4 106 527 528 107 
4 107 528 529 108 
4 108 529 530 109 
4 109 530 531 110 
4 110 531 532 111 
4 111 532 533 112 
4 112 533 534 113 
4 113 534 535 114 
4 114 535 536 115 
4 115 536 537 116 
4 116 537 538 117 
4 117 538 539 118 
4 118 539 540 119 
4 119 540 541 120 
4 120 541 542 121 
4 121 542 543 122 
4 122 543 544 123 
4 123 544 545 124 
4 124 545 546 125 
4 125 546 547 126 
4 126 547 548 127 
4 127 548 549 128 
4 128 549 550 129 
4 129 550 551 130 
4 130 551 552 131 
4 131 552 553 132 
4 132 553 554 133 
4 133 554 555 134 
4 134 555 556 135 
4 135 556 557 136 
4 136 557 558 137 
4 137 558 559 138 
4 138 559 560 139 
4 139 560 561 140 
4 140 561 562 141 
4 141 562 563 142 
4 142 563 564 143 
4 143 564 565 144 
4 144 565 566 145 
4 145 566 567 146 
4 146 567 568 147 
4 147 568 569 148 
4 148 569 570 149 
4 149 570 571 150 
4 150 571 572 151 
4 151 572 573 152 
4 152 573 574 153 
4 153 574 575 154 
4 154 575 576 155 
4 155 576 577 156 
4 156 577 578 157 
4 157 578 579 158 
4 158 579 580 159 
4 159 580 581 160 
4 160 581 582 161 
4 161 582 583 162 
4 162 583 584 163 
4 163 584 585 164 
4 164 585 586 165 
4 165 586 587 166 
4 166 587 588 167 
4 167 588 589 168 
4 168 589 590 169 
4 169 590 591 170 
4 170 591 592 171 
4 171 592 593 172 
4 172 593 594 173 
4 173 594 595 174 
4 174 595 596 175 
4 175 596 597 176 
4 176 597 598 177 
4 177 598 599 178 
4 178 599 600 179 
4 179 600 601 180 
4 180 601 602 181 
4 181 602 603 182 
4 182 603 604 183 
4 183 604 605 184 
4 184 605 606 185 
4 185 606 607 186 
4 186 607 608 187 
4 187 608 609 188 
4 188 609 610 189 
4 189 610 611 190 
4 190 611 612 191 
4 191 612 613 192 
4 192 613 614 193 
4 193 614 615 194 
4 194 615 616 195 
4 195 616 617 196 
4 196 617 618 197 
4 197 618 619 198 
4 198 619 620 199 
4 199 620 621 200 
4 200 621 622 201 
4 201 622 623 202 
4 202 623 624 203 
4 203 624 625 204 
4 204 625 626 205 
4 205 626 627 206 
4 206 627 628 207 
4 207 628 629 208 
4 208 629 630 209 
4 209 630 631 210 
4 210 631 632 211 
4 211 632 633 212 
4 212 633 634 213 
4 213 634 635 214 
4 214 635 636 215 
4 215 636 637 216 
4 216 637 638 217 
4 217 638 639 218 
4 218 639 640 219 
4 219 640 641 220 
4 220 641 642 221 
4 221 642 643 222 
4 222 643 644 223 
4 223 644 645 224 
4 224 645 646 225 
4 225 646 647 226 
4 226 647 648 227 
4 227 648 649 228 
4 228 649 650 229 
4 229 650 651 230 
4 230 651 652 231 
4 231 652 653 232 
4 232 653 654 233 
4 233 654 655 234 
4 234 655 656 235 
4 235 656 657 236 
4 236 657 658 237 
4 237 658 659 238 
4 238 659 660 239 
4 239 660 661 240 
4 240 661 662 241 
4 241 662 663 242 
4 242 663 664 243 
4 243 664 665 244 
4 244 665 666 245 
4 245 666 667 246 
4 246 667 668 247 
4 247 668 669 248 
4 248 669 670 249 
4 249 670 671 250 
4 250 671 672 251 
4 251 672 673 252 
4 252 673 674 253 
4 253 674 675 254 
4 254 675 676 255 
4 255 676 677 256 
4 256 677 678 257 
4 257 678 679 258 
4 258 679 680 259 
4 259 680 681 260 
4 260 681 682 261 
4 261 682 683 262 
4 262 683 684 263 
4 263 684 685 264 
4 264 685 686 265 
4 265 686 687 266 
4 266 687 688 267 
4 267 688 689 268 
4 268 689 690 269 
4 269 690 691 270 
4 270 691 692 271 
4 271 692 693 272 
4 272 693 694 273 
4 273 694 695 274 
4 274 695 696 275 
4 275 696 697 276 
4 276 697 698 277 
4 277 698 699 278 
4 278 699 700 279 
4 279 700 701 280 
4 280 701 702 281 
4 281 702 703 282 
4 282 703 704 283 
4 283 704 705 284 
4 284 705 706 285 
4 285 706 707 286 
4 286 707 708 287 
4 287 708 709 288 
4 288 709 710 289 
4 289 710 711 290 
4 290 711 712 291 
4 291 712 713 292 
4 292 713 714 293 
4 293 714 715 294 
4 294 715 716 295 
4 295 716 717 296 
4 296 717 718 297 
4 297 718 719 298 
4 298 719 720 299 
4 299 720 721 300 
4 300 721 722 301 
4 301 722 723 302 
4 302 723 724 303 
4 303 724 725 304 
4 304 725 726 305 
4 305 726 727 306 
4 306 727 728 307 
4 307 728 729 308 
4 308 729 730 309 
4 309 730 731 310 
4 310 731 732 311 
4 311 732 733 312 
4 312 733 734 313 
4 313 734 735 314 
4 314 735 736 315 
4 315 736 737 316 
4 316 737 738 317 
4 317 738 739 318 
4 318 739 740 319 
4 319 740 741 320 
4 320 741 742 321 
4 321 742 743 322 
4 322 743 744 323 
4 323 744 745 324 
4 324 745 746 325 
4 325 746 747 326 
4 326 747 748 327 
4 327 748 749 328 
4 328 749 750 329 
4 329 750 751 330 
4 330 751 752 331 
4 331 752 753 332 
4 332 753 754 333 
4 333 754 755 334 
4 334 755 756 335 
4 335 756 757 336 
4 336 757 758 337 
4 337 758 759 338 
4 338 759 760 339 
4 339 760 761 340 
4 340 761 762 341 
4 341 762 763 342 
4 342 763 764 343 
4 343 764 765 344 
4 344 765 766 345 
4 345 766 767 346 
4 346 767 768 347 
4 347 768 769 348 
4 348 769 770 349 
4 349 770 771 350 
4 350 771 772 351 
4 351 772 773 352 
4 352 773 774 353 
4 353 774 775 354 
4 354 775 776 355 
4 355 776 777 356 
4 356 777 778 357 
4 357 778 779 358 
4 358 779 780 359 
4 359 780 781 360 
4 360 781 782 361 
4 361 782 783 362 
4 362 783 784 363 
4 363 784 785 364 
4 364 785 786 365 
4 365 786 787 366 
4 366 787 788 367 
4 367 788 789 368 
4 368 789 790 369 
4 369 790 791 370 
4 370 791 792 371 
4 371 792 793 372 
4 372 793 794 373 
4 373 794 795 374 
4 374 795 796 375 
4 375 796 797 376 
4 376 797 798 377 
4 377 798 799 378 
4 378 799 800 379 
4 379 800 801 380 
4 380 801 802 381 
4 381 802 803 382 
4 382 803 804 383 
4 383 804 805 384 
4 384 805 806 385 
4 385 806 807 386 
4 386 807 808 387 
4 387 808 809 388 
4 388 809 810 389 
4 389 810 811 390 
4 390 811 812 391 
4 391 812 813 392 
4 392 813 814 393 
4 393 814 815 394 
4 394 815 816 395 
4 395 816 817 396 
4 396 817 818 397 
4 397 818 819 398 
4 398 819 820 399 
4 399 820 821 400 
4 400 821 822 401 
4 401 822 823 402 
4 402 823 824 403 
4 403 824 825 404 
4 404 825 826 405 
4 405 826 827 406 
4 406 827 828 407 
4 407 828 829 408 
4 408 829 830 409 
4 409 830 831 410 
4 410 831 832 411 
4 411 832 833 412 
4 412 833 834 413 
4 413 834 835 414 
4 414 835 836 415 
4 415 836 837 416 
4 416 837 838 417 
4 417 838 839 418 
4 418 839 840 419 
4 419 840 841 420 
