ply
format ascii 1.0
comment VTK generated PLY File
obj_info vtkPolyData points and polygons: vtk4.0
element vertex 422
property float x
property float y
property float z
element face 210
property list uchar int vertex_indices
end_header
-0.105 -0.0005 0 
-0.104 -0.0005 0 
-0.103 -0.0005 0 
-0.102 -0.0005 0 
-0.101 -0.0005 0 
-0.1 -0.0005 0 
-0.099 -0.0005 0 
-0.098 -0.0005 0 
-0.097 -0.0005 0 
-0.096 -0.0005 0 
-0.095 -0.0005 0 
-0.094 -0.0005 0 
-0.093 -0.0005 0 
-0.092 -0.0005 0 
-0.091 -0.0005 0 
-0.09 -0.0005 0 
-0.089 -0.0005 0 
-0.088 -0.0005 0 
-0.087 -0.0005 0 
-0.086 -0.0005 0 
-0.085 -0.0005 0 
-0.084 -0.0005 0 
-0.083 -0.0005 0 
-0.082 -0.0005 0 
-0.081 -0.0005 0 
-0.08 -0.0005 0 
-0.079 -0.0005 0 
-0.078 -0.0005 0 
-0.077 -0.0005 0 
-0.076 -0.0005 0 
-0.075 -0.0005 0 
-0.074 -0.0005 0 
-0.073 -0.0005 0 
-0.072 -0.0005 0 
-0.071 -0.0005 0 
-0.07 -0.0005 0 
-0.069 -0.0005 0 
-0.068 -0.0005 0 
-0.067 -0.0005 0 
-0.066 -0.0005 0 
-0.065 -0.0005 0 
-0.064 -0.0005 0 
-0.063 -0.0005 0 
-0.062 -0.0005 0 
-0.061 -0.0005 0 
-0.06 -0.0005 0 
-0.059 -0.0005 0 
-0.058 -0.0005 0 
-0.057 -0.0005 0 
-0.056 -0.0005 0 
-0.055 -0.0005 0 
-0.054 -0.0005 0 
-0.053 -0.0005 0 
-0.052 -0.0005 0 
-0.051 -0.0005 0 
-0.05 -0.0005 0 
-0.049 -0.0005 0 
-0.048 -0.0005 0 
-0.047 -0.0005 0 
-0.046 -0.0005 0 
-0.045 -0.0005 0 
-0.044 -0.0005 0 
-0.043 -0.0005 0 
-0.042 -0.0005 0 
-0.041 -0.0005 0 
-0.04 -0.0005 0 
-0.039 -0.0005 0 
-0.038 -0.0005 0 
-0.037 -0.0005 0 
-0.036 -0.0005 0 
-0.035 -0.0005 0 
-0.034 -0.0005 0 
-0.033 -0.0005 0 
-0.032 -0.0005 0 
-0.031 -0.0005 0 
-0.03 -0.0005 0 
-0.029 -0.0005 0 
-0.028 -0.0005 0 
-0.027 -0.0005 0 
-0.026 -0.0005 0 
-0.025 -0.0005 0 
-0.024 -0.0005 0 
-0.023 -0.0005 0 
-0.022 -0.0005 0 
-0.021 -0.0005 0 
-0.02 -0.0005 0 
-0.019 -0.0005 0 
-0.018 -0.0005 0 
-0.017 -0.0005 0 
-0.016 -0.0005 0 
-0.015 -0.0005 0 
-0.014 -0.0005 0 
-0.013 -0.0005 0 
-0.012 -0.0005 0 
-0.011 -0.0005 0 
-0.01 -0.0005 0 
-0.009 -0.0005 0 
-0.008 -0.0005 0 
-0.007 -0.0005 0 
-0.006 -0.0005 0 
-0.005 -0.0005 0 
-0.004 -0.0005 0 
-0.003 -0.0005 0 
-0.002 -0.0005 0 
-0.001 -0.0005 0 
0 -0.0005 0 
0.001 -0.0005 0 
0.002 -0.0005 0 
0.003 -0.0005 0 
0.004 -0.0005 0 
0.005 -0.0005 0 
0.006 -0.0005 0 
0.007 -0.0005 0 
0.008 -0.0005 0 
0.009 -0.0005 0 
0.01 -0.0005 0 
0.011 -0.0005 0 
0.012 -0.0005 0 
0.013 -0.0005 0 
0.014 -0.0005 0 
0.015 -0.0005 0 
0.016 -0.0005 0 
0.017 -0.0005 0 
0.018 -0.0005 0 
0.019 -0.0005 0 
0.02 -0.0005 0 
0.021 -0.0005 0 
0.022 -0.0005 0 
0.023 -0.0005 0 
0.024 -0.0005 0 
0.025 -0.0005 0 
0.026 -0.0005 0 
0.027 -0.0005 0 
0.028 -0.0005 0 
0.029 -0.0005 0 
0.03 -0.0005 0 
0.031 -0.0005 0 
0.032 -0.0005 0 
0.033 -0.0005 0 
0.034 -0.0005 0 
0.035 -0.0005 0 
0.036 -0.0005 0 
0.037 -0.0005 0 
0.038 -0.0005 0 
0.039 -0.0005 0 
0.04 -0.0005 0 
0.041 -0.0005 0 
0.042 -0.0005 0 
0.043 -0.0005 0 
0.044 -0.0005 0 
0.045 -0.0005 0 
0.046 -0.0005 0 
0.047 -0.0005 0 
0.048 -0.0005 0 
0.049 -0.0005 0 
0.05 -0.0005 0 
0.051 -0.0005 0 
0.052 -0.0005 0 
0.053 -0.0005 0 
0.054 -0.0005 0 
0.055 -0.0005 0 
0.056 -0.0005 0 
0.057 -0.0005 0 
0.058 -0.0005 0 
0.059 -0.0005 0 
0.06 -0.0005 0 
0.061 -0.0005 0 
0.062 -0.0005 0 
0.063 -0.0005 0 
0.064 -0.0005 0 
0.065 -0.0005 0 
0.066 -0.0005 0 
0.067 -0.0005 0 
0.068 -0.0005 0 
0.069 -0.0005 0 
0.07 -0.0005 0 
0.071 -0.0005 0 
0.072 -0.0005 0 
0.073 -0.0005 0 
0.074 -0.0005 0 
0.075 -0.0005 0 
0.076 -0.0005 0 
0.077 -0.0005 0 
0.078 -0.0005 0 
0.079 -0.0005 0 
0.08 -0.0005 0 
0.081 -0.0005 0 
0.082 -0.0005 0 
0.083 -0.0005 0 
0.084 -0.0005 0 
0.085 -0.0005 0 
0.086 -0.0005 0 
0.087 -0.0005 0 
0.088 -0.0005 0 
0.089 -0.0005 0 
0.09 -0.0005 0 
0.091 -0.0005 0 
0.092 -0.0005 0 
0.093 -0.0005 0 
0.094 -0.0005 0 
0.095 -0.0005 0 
0.096 -0.0005 0 
0.097 -0.0005 0 
0.098 -0.0005 0 
0.099 -0.0005 0 
0.1 -0.0005 0 
0.101 -0.0005 0 
0.102 -0.0005 0 
0.103 -0.0005 0 
0.104 -0.0005 0 
0.105 -0.0005 0 
-0.105 0.0005 0 
-0.104 0.0005 0 
-0.103 0.0005 0 
-0.102 0.0005 0 
-0.101 0.0005 0 
-0.1 0.0005 0 
-0.099 0.0005 0 
-0.098 0.0005 0 
-0.097 0.0005 0 
-0.096 0.0005 0 
-0.095 0.0005 0 
-0.094 0.0005 0 
-0.093 0.0005 0 
-0.092 0.0005 0 
-0.091 0.0005 0 
-0.09 0.0005 0 
-0.089 0.0005 0 
-0.088 0.0005 0 
-0.087 0.0005 0 
-0.086 0.0005 0 
-0.085 0.0005 0 
-0.084 0.0005 0 
-0.083 0.0005 0 
-0.082 0.0005 0 
-0.081 0.0005 0 
-0.08 0.0005 0 
-0.079 0.0005 0 
-0.078 0.0005 0 
-0.077 0.0005 0 
-0.076 0.0005 0 
-0.075 0.0005 0 
-0.074 0.0005 0 
-0.073 0.0005 0 
-0.072 0.0005 0 
-0.071 0.0005 0 
-0.07 0.0005 0 
-0.069 0.0005 0 
-0.068 0.0005 0 
-0.067 0.0005 0 
-0.066 0.0005 0 
-0.065 0.0005 0 
-0.064 0.0005 0 
-0.063 0.0005 0 
-0.062 0.0005 0 
-0.061 0.0005 0 
-0.06 0.0005 0 
-0.059 0.0005 0 
-0.058 0.0005 0 
-0.057 0.0005 0 
-0.056 0.0005 0 
-0.055 0.0005 0 
-0.054 0.0005 0 
-0.053 0.0005 0 
-0.052 0.0005 0 
-0.051 0.0005 0 
-0.05 0.0005 0 
-0.049 0.0005 0 
-0.048 0.0005 0 
-0.047 0.0005 0 
-0.046 0.0005 0 
-0.045 0.0005 0 
-0.044 0.0005 0 
-0.043 0.0005 0 
-0.042 0.0005 0 
-0.041 0.0005 0 
-0.04 0.0005 0 
-0.039 0.0005 0 
-0.038 0.0005 0 
-0.037 0.0005 0 
-0.036 0.0005 0 
-0.035 0.0005 0 
-0.034 0.0005 0 
-0.033 0.0005 0 
-0.032 0.0005 0 
-0.031 0.0005 0 
-0.03 0.0005 0 
-0.029 0.0005 0 
-0.028 0.0005 0 
-0.027 0.0005 0 
-0.026 0.0005 0 
-0.025 0.0005 0 
-0.024 0.0005 0 
-0.023 0.0005 0 
-0.022 0.0005 0 
-0.021 0.0005 0 
-0.02 0.0005 0 
-0.019 0.0005 0 
-0.018 0.0005 0 
-0.017 0.0005 0 
-0.016 0.0005 0 
-0.015 0.0005 0 
-0.014 0.0005 0 
-0.013 0.0005 0 
-0.012 0.0005 0 
-0.011 0.0005 0 
-0.01 0.0005 0 
-0.009 0.0005 0 
-0.008 0.0005 0 
-0.007 0.0005 0 
-0.006 0.0005 0 
-0.005 0.0005 0 
-0.004 0.0005 0 
-0.003 0.0005 0 
-0.002 0.0005 0 
-0.001 0.0005 0 
0 0.0005 0 
0.001 0.0005 0 
0.002 0.0005 0 
0.003 0.0005 0 
0.004 0.0005 0 
0.005 0.0005 0 
0.006 0.0005 0 
0.007 0.0005 0 
0.008 0.0005 0 
0.009 0.0005 0 
0.01 0.0005 0 
0.011 0.0005 0 
0.012 0.0005 0 
0.013 0.0005 0 
0.014 0.0005 0 
0.015 0.0005 0 
0.016 0.0005 0 
0.017 0.0005 0 
0.018 0.0005 0 
0.019 0.0005 0 
0.02 0.0005 0 
0.021 0.0005 0 
0.022 0.0005 0 
0.023 0.0005 0 
0.024 0.0005 0 
0.025 0.0005 0 
0.026 0.0005 0 
0.027 0.0005 0 
0.028 0.0005 0 
0.029 0.0005 0 
0.03 0.0005 0 
0.031 0.0005 0 
0.032 0.0005 0 
0.033 0.0005 0 
0.034 0.0005 0 
0.035 0.0005 0 
0.036 0.0005 0 
0.037 0.0005 0 
0.038 0.0005 0 
0.039 0.0005 0 
0.04 0.0005 0 
0.041 0.0005 0 
0.042 0.0005 0 
0.043 0.0005 0 
0.044 0.0005 0 
0.045 0.0005 0 
0.046 0.0005 0 
0.047 0.0005 0 
0.048 0.0005 0 
0.049 0.0005 0 
0.05 0.0005 0 
0.051 0.0005 0 
0.052 0.0005 0 
0.053 0.0005 0 
0.054 0.0005 0 
0.055 0.0005 0 
0.056 0.0005 0 
0.057 0.0005 0 
0.058 0.0005 0 
0.059 0.0005 0 
0.06 0.0005 0 
0.061 0.0005 0 
0.062 0.0005 0 
0.063 0.0005 0 
0.064 0.0005 0 
0.065 0.0005 0 
0.066 0.0005 0 
0.067 0.0005 0 
0.068 0.0005 0 
0.069 0.0005 0 
0.07 0.0005 0 
0.071 0.0005 0 
0.072 0.0005 0 
0.073 0.0005 0 
0.074 0.0005 0 
0.075 0.0005 0 
0.076 0.0005 0 
0.077 0.0005 0 
0.078 0.0005 0 
0.079 0.0005 0 
0.08 0.0005 0 
0.081 0.0005 0 
0.082 0.0005 0 
0.083 0.0005 0 
0.084 0.0005 0 
0.085 0.0005 0 
0.086 0.0005 0 
0.087 0.0005 0 
0.088 0.0005 0 
0.089 0.0005 0 
0.09 0.0005 0 
0.091 0.0005 0 
0.092 0.0005 0 
0.093 0.0005 0 
0.094 0.0005 0 
0.095 0.0005 0 
0.096 0.0005 0 
0.097 0.0005 0 
0.098 0.0005 0 
0.099 0.0005 0 
0.1 0.0005 0 
0.101 0.0005 0 
0.102 0.0005 0 
0.103 0.0005 0 
0.104 0.0005 0 
0.105 0.0005 0 
4 0 211 212 1 
4 1 212 213 2 
4 2 213 214 3 
4 3 214 215 4 
4 4 215 216 5 
4 5 216 217 6 
4 6 217 218 7 
4 7 218 219 8 
4 8 219 220 9 
4 9 220 221 10 
4 10 221 222 11 
4 11 222 223 12 
4 12 223 224 13 
4 13 224 225 14 
4 14 225 226 15 
4 15 226 227 16 
4 16 227 228 17 
4 17 228 229 18 
4 18 229 230 19 
4 19 230 231 20 
4 20 231 232 21 
4 21 232 233 22 
4 22 233 234 23 
4 23 234 235 24 
4 24 235 236 25 
4 25 236 237 26 
4 26 237 238 27 
4 27 238 239 28 
4 28 239 240 29 
4 29 240 241 30 
4 30 241 242 31 
4 31 242 243 32 
4 32 243 244 33 
4 33 244 245 34 
4 34 245 246 35 
4 35 246 247 36 
4 36 247 248 37 
4 37 248 249 38 
4 38 249 250 39 
4 39 250 251 40 
4 40 251 252 41 
4 41 252 253 42 
4 42 253 254 43 
4 43 254 255 44 
4 44 255 256 45 
4 45 256 257 46 
4 46 257 258 47 
4 47 258 259 48 
4 48 259 260 49 
4 49 260 261 50 
4 50 261 262 51 
4 51 262 263 52 
4 52 263 264 53 
4 53 264 265 54 
4 54 265 266 55 
4 55 266 267 56 
4 56 267 268 57 
4 57 268 269 58 
4 58 269 270 59 
4 59 270 271 60 
4 60 271 272 61 
4 61 272 273 62 
4 62 273 274 63 
4 63 274 275 64 
4 64 275 276 65 
4 65 276 277 66 
4 66 277 278 67 
4 67 278 279 68 
4 68 279 280 69 
4 69 280 281 70 
4 70 281 282 71 
4 71 282 283 72 
4 72 283 284 73 
4 73 284 285 74 
4 74 285 286 75 
4 75 286 287 76 
4 76 287 288 77 
4 77 288 289 78 
4 78 289 290 79 
4 79 290 291 80 
4 80 291 292 81 
4 81 292 293 82 
4 82 293 294 83 
4 83 294 295 84 
4 84 295 296 85 
4 85 296 297 86 
4 86 297 298 87 
4 87 298 299 88 
4 88 299 300 89 
4 89 300 301 90 
4 90 301 302 91 
4 91 302 303 92 
4 92 303 304 93 
4 93 304 305 94 
4 94 305 306 95 
4 95 306 307 96 
4 96 307 308 97 
4 97 308 309 98 
4 98 309 310 99 
4 99 310 311 100 
4 100 311 312 101 
4 101 312 313 102 
4 102 313 314 103 
4 103 314 315 104 
4 104 315 316 105 
4 105 316 317 106 
4 106 317 318 107 
4 107 318 319 108 
4 108 319 320 109 
4 109 320 321 110 
4 110 321 322 111 
4 111 322 323 112 
4 112 323 324 113 
4 113 324 325 114 
4 114 325 326 115 
4 115 326 327 116 
4 116 327 328 117 
4 117 328 329 118 
4 118 329 330 119 
4 119 330 331 120 
4 120 331 332 121 
4 121 332 333 122 
4 122 333 334 123 
4 123 334 335 124 
4 124 335 336 125 
4 125 336 337 126 
4 126 337 338 127 
4 127 338 339 128 
4 128 339 340 129 
4 129 340 341 130 
4 130 341 342 131 
4 131 342 343 132 
4 132 343 344 133 
4 133 344 345 134 
4 134 345 346 135 
4 135 346 347 136 
4 136 347 348 137 
4 137 348 349 138 
4 138 349 350 139 
4 139 350 351 140 
4 140 351 352 141 
4 141 352 353 142 
4 142 353 354 143 
4 143 354 355 144 
4 144 355 356 145 
4 145 356 357 146 
4 146 357 358 147 
4 147 358 359 148 
4 148 359 360 149 
4 149 360 361 150 
4 150 361 362 151 
4 151 362 363 152 
4 152 363 364 153 
4 153 364 365 154 
4 154 365 366 155 
4 155 366 367 156 
4 156 367 368 157 
4 157 368 369 158 
4 158 369 370 159 
4 159 370 371 160 
4 160 371 372 161 
4 161 372 373 162 
4 162 373 374 163 
4 163 374 375 164 
4 164 375 376 165 
4 165 376 377 166 
4 166 377 378 167 
4 167 378 379 168 
4 168 379 380 169 
4 169 380 381 170 
4 170 381 382 171 
4 171 382 383 172 
4 172 383 384 173 
4 173 384 385 174 
4 174 385 386 175 
4 175 386 387 176 
4 176 387 388 177 
4 177 388 389 178 
4 178 389 390 179 
4 179 390 391 180 
4 180 391 392 181 
4 181 392 393 182 
4 182 393 394 183 
4 183 394 395 184 
4 184 395 396 185 
4 185 396 397 186 
4 186 397 398 187 
4 187 398 399 188 
4 188 399 400 189 
4 189 400 401 190 
4 190 401 402 191 
4 191 402 403 192 
4 192 403 404 193 
4 193 404 405 194 
4 194 405 406 195 
4 195 406 407 196 
4 196 407 408 197 
4 197 408 409 198 
4 198 409 410 199 
4 199 410 411 200 
4 200 411 412 201 
4 201 412 413 202 
4 202 413 414 203 
4 203 414 415 204 
4 204 415 416 205 
4 205 416 417 206 
4 206 417 418 207 
4 207 418 419 208 
4 208 419 420 209 
4 209 420 421 210 
